<?xml version="1.0" encoding="UTF-8" standalone="no"?>
<!DOCTYPE svg PUBLIC "-//W3C//DTD SVG 1.1//EN"
 "http://www.w3.org/Graphics/SVG/1.1/DTD/svg11.dtd">
<!-- Generated by graphviz version 2.43.0 (0)
 -->
<!-- Title: G Pages: 1 -->
<svg width="1342pt" height="348pt"
 viewBox="0.00 0.00 1342.00 348.00" xmlns="http://www.w3.org/2000/svg" xmlns:xlink="http://www.w3.org/1999/xlink">
<g id="graph0" class="graph" transform="scale(1 1) rotate(0) translate(4 344)">
<title>G</title>
<polygon fill="white" stroke="transparent" points="-4,4 -4,-344 1338,-344 1338,4 -4,4"/>
<g id="clust1" class="cluster">
<title>cluster0</title>
<polygon fill="none" stroke="black" stroke-dasharray="1,5" points="595,-152 595,-276 765,-276 765,-152 595,-152"/>
</g>
<g id="clust3" class="cluster">
<title>cluster1</title>
<polygon fill="none" stroke="black" stroke-dasharray="1,5" points="8,-8 8,-132 176,-132 176,-8 8,-8"/>
</g>
<g id="clust5" class="cluster">
<title>cluster2</title>
<polygon fill="none" stroke="black" stroke-dasharray="1,5" points="184,-8 184,-132 368,-132 368,-8 184,-8"/>
</g>
<g id="clust7" class="cluster">
<title>cluster3</title>
<polygon fill="none" stroke="black" stroke-dasharray="1,5" points="376,-8 376,-132 590,-132 590,-8 376,-8"/>
</g>
<g id="clust9" class="cluster">
<title>cluster4</title>
<polygon fill="none" stroke="black" stroke-dasharray="1,5" points="598,-8 598,-132 762,-132 762,-8 598,-8"/>
</g>
<g id="clust11" class="cluster">
<title>cluster5</title>
<polygon fill="none" stroke="black" stroke-dasharray="1,5" points="770,-8 770,-132 954,-132 954,-8 770,-8"/>
</g>
<g id="clust13" class="cluster">
<title>cluster6</title>
<polygon fill="none" stroke="black" stroke-dasharray="1,5" points="962,-8 962,-132 1146,-132 1146,-8 962,-8"/>
</g>
<g id="clust15" class="cluster">
<title>cluster7</title>
<polygon fill="none" stroke="black" stroke-dasharray="1,5" points="1154,-8 1154,-132 1326,-132 1326,-8 1154,-8"/>
</g>
<!-- token0 -->
<g id="node1" class="node">
<title>token0</title>
<ellipse fill="none" stroke="black" cx="680" cy="-322" rx="50.09" ry="18"/>
<text text-anchor="middle" x="680" y="-318.3" font-family="Times,serif" font-size="14.00">0: nUSD</text>
</g>
<!-- pool0 -->
<g id="node11" class="node">
<title>pool0</title>
<polygon fill="none" stroke="black" stroke-dasharray="5,2" points="756.5,-268 603.5,-268 603.5,-232 756.5,-232 756.5,-268"/>
<text text-anchor="middle" x="680" y="-246.3" font-family="Times,serif" font-size="14.00">DefaultPool 0xf449</text>
</g>
<!-- token0&#45;&#45;pool0 -->
<g id="edge1" class="edge">
<title>token0&#45;&#45;pool0</title>
<path fill="none" stroke="black" d="M680,-303.7C680,-292.85 680,-278.92 680,-268.1"/>
</g>
<!-- token1 -->
<g id="node2" class="node">
<title>token1</title>
<ellipse fill="none" stroke="black" cx="680" cy="-178" rx="59.29" ry="18"/>
<text text-anchor="middle" x="680" y="-174.3" font-family="Times,serif" font-size="14.00">1: USDC.e</text>
</g>
<!-- pool1 -->
<g id="node12" class="node">
<title>pool1</title>
<polygon fill="none" stroke="black" stroke-dasharray="5,2" points="168,-124 16,-124 16,-88 168,-88 168,-124"/>
<text text-anchor="middle" x="92" y="-102.3" font-family="Times,serif" font-size="14.00">UniswapV3 0xbf16</text>
</g>
<!-- token1&#45;&#45;pool1 -->
<g id="edge3" class="edge">
<title>token1&#45;&#45;pool1</title>
<path fill="none" stroke="black" d="M621.4,-175.27C527.51,-171.72 337.9,-161.27 180,-132 168.91,-129.94 157.21,-127.11 146.08,-124.08"/>
</g>
<!-- pool2 -->
<g id="node13" class="node">
<title>pool2</title>
<polygon fill="none" stroke="black" stroke-dasharray="5,2" points="360.5,-124 191.5,-124 191.5,-88 360.5,-88 360.5,-124"/>
<text text-anchor="middle" x="276" y="-102.3" font-family="Times,serif" font-size="14.00">VelodromeV2 0x1971</text>
</g>
<!-- token1&#45;&#45;pool2 -->
<g id="edge5" class="edge">
<title>token1&#45;&#45;pool2</title>
<path fill="none" stroke="black" d="M625.44,-170.86C563.64,-163.49 460.05,-149.84 372,-132 360.69,-129.71 348.73,-126.9 337.22,-124.01"/>
</g>
<!-- pool3 -->
<g id="node14" class="node">
<title>pool3</title>
<polygon fill="none" stroke="black" stroke-dasharray="5,2" points="582,-124 446,-124 446,-88 582,-88 582,-124"/>
<text text-anchor="middle" x="514" y="-102.3" font-family="Times,serif" font-size="14.00">CurveV1 0x1337</text>
</g>
<!-- token1&#45;&#45;pool3 -->
<g id="edge7" class="edge">
<title>token1&#45;&#45;pool3</title>
<path fill="none" stroke="black" d="M646.81,-163C620.22,-151.79 582.81,-136.02 554.47,-124.07"/>
</g>
<!-- pool4 -->
<g id="node15" class="node">
<title>pool4</title>
<polygon fill="none" stroke="black" stroke-dasharray="5,2" points="754,-124 606,-124 606,-88 754,-88 754,-124"/>
<text text-anchor="middle" x="680" y="-102.3" font-family="Times,serif" font-size="14.00">UniswapV3 0xf1f1</text>
</g>
<!-- token1&#45;&#45;pool4 -->
<g id="edge11" class="edge">
<title>token1&#45;&#45;pool4</title>
<path fill="none" stroke="black" d="M680,-159.7C680,-148.85 680,-134.92 680,-124.1"/>
</g>
<!-- pool5 -->
<g id="node16" class="node">
<title>pool5</title>
<polygon fill="none" stroke="black" stroke-dasharray="5,2" points="946.5,-124 777.5,-124 777.5,-88 946.5,-88 946.5,-124"/>
<text text-anchor="middle" x="862" y="-102.3" font-family="Times,serif" font-size="14.00">VelodromeV2 0x2b47</text>
</g>
<!-- token1&#45;&#45;pool5 -->
<g id="edge13" class="edge">
<title>token1&#45;&#45;pool5</title>
<path fill="none" stroke="black" d="M715.09,-163.5C744.32,-152.26 786.12,-136.18 817.67,-124.05"/>
</g>
<!-- pool6 -->
<g id="node17" class="node">
<title>pool6</title>
<polygon fill="none" stroke="black" stroke-dasharray="5,2" points="1138.5,-124 969.5,-124 969.5,-88 1138.5,-88 1138.5,-124"/>
<text text-anchor="middle" x="1054" y="-102.3" font-family="Times,serif" font-size="14.00">VelodromeV2 0x6d5b</text>
</g>
<!-- token1&#45;&#45;pool6 -->
<g id="edge15" class="edge">
<title>token1&#45;&#45;pool6</title>
<path fill="none" stroke="black" d="M733.05,-169.93C789.2,-162.09 880.26,-148.38 958,-132 969.04,-129.67 980.71,-126.9 991.98,-124.06"/>
</g>
<!-- pool7 -->
<g id="node18" class="node">
<title>pool7</title>
<polygon fill="none" stroke="black" stroke-dasharray="5,2" points="1317.5,-124 1162.5,-124 1162.5,-88 1317.5,-88 1317.5,-124"/>
<text text-anchor="middle" x="1240" y="-102.3" font-family="Times,serif" font-size="14.00">UniswapV3 0x2e2d</text>
</g>
<!-- token1&#45;&#45;pool7 -->
<g id="edge17" class="edge">
<title>token1&#45;&#45;pool7</title>
<path fill="none" stroke="black" d="M738.34,-174.71C827.64,-170.46 1003.31,-159.18 1150,-132 1161.32,-129.9 1173.29,-127.05 1184.67,-124.01"/>
</g>
<!-- token2 -->
<g id="node3" class="node">
<title>token2</title>
<ellipse fill="none" stroke="black" cx="92" cy="-34" rx="39.79" ry="18"/>
<text text-anchor="middle" x="92" y="-30.3" font-family="Times,serif" font-size="14.00">2: DAI</text>
</g>
<!-- token3 -->
<g id="node4" class="node">
<title>token3</title>
<ellipse fill="none" stroke="black" cx="276" cy="-34" rx="39.79" ry="18"/>
<text text-anchor="middle" x="276" y="-30.3" font-family="Times,serif" font-size="14.00">3: DAI</text>
</g>
<!-- token4 -->
<g id="node5" class="node">
<title>token4</title>
<ellipse fill="none" stroke="black" cx="424" cy="-34" rx="39.79" ry="18"/>
<text text-anchor="middle" x="424" y="-30.3" font-family="Times,serif" font-size="14.00">4: DAI</text>
</g>
<!-- token5 -->
<g id="node6" class="node">
<title>token5</title>
<ellipse fill="none" stroke="black" cx="532" cy="-34" rx="50.09" ry="18"/>
<text text-anchor="middle" x="532" y="-30.3" font-family="Times,serif" font-size="14.00">5: USDT</text>
</g>
<!-- token4&#45;&#45;token5 -->
<!-- token6 -->
<g id="node7" class="node">
<title>token6</title>
<ellipse fill="none" stroke="black" cx="680" cy="-34" rx="50.09" ry="18"/>
<text text-anchor="middle" x="680" y="-30.3" font-family="Times,serif" font-size="14.00">6: USDT</text>
</g>
<!-- token7 -->
<g id="node8" class="node">
<title>token7</title>
<ellipse fill="none" stroke="black" cx="862" cy="-34" rx="50.09" ry="18"/>
<text text-anchor="middle" x="862" y="-30.3" font-family="Times,serif" font-size="14.00">7: USDT</text>
</g>
<!-- token8 -->
<g id="node9" class="node">
<title>token8</title>
<ellipse fill="none" stroke="black" cx="1054" cy="-34" rx="48.99" ry="18"/>
<text text-anchor="middle" x="1054" y="-30.3" font-family="Times,serif" font-size="14.00">8: sUSD</text>
</g>
<!-- token9 -->
<g id="node10" class="node">
<title>token9</title>
<ellipse fill="none" stroke="black" cx="1240" cy="-34" rx="50.89" ry="18"/>
<text text-anchor="middle" x="1240" y="-30.3" font-family="Times,serif" font-size="14.00">9: USDC</text>
</g>
<!-- pool0&#45;&#45;token1 -->
<g id="edge2" class="edge">
<title>pool0&#45;&#45;token1</title>
<path fill="none" stroke="black" d="M680,-231.7C680,-220.85 680,-206.92 680,-196.1"/>
</g>
<!-- pool1&#45;&#45;token2 -->
<g id="edge4" class="edge">
<title>pool1&#45;&#45;token2</title>
<path fill="none" stroke="black" d="M92,-87.7C92,-76.85 92,-62.92 92,-52.1"/>
</g>
<!-- pool2&#45;&#45;token3 -->
<g id="edge6" class="edge">
<title>pool2&#45;&#45;token3</title>
<path fill="none" stroke="black" d="M276,-87.7C276,-76.85 276,-62.92 276,-52.1"/>
</g>
<!-- pool3&#45;&#45;token4 -->
<g id="edge8" class="edge">
<title>pool3&#45;&#45;token4</title>
<path fill="none" stroke="black" d="M491.75,-87.7C476.87,-76.12 457.47,-61.03 443.25,-49.97"/>
</g>
<!-- pool3&#45;&#45;token5 -->
<g id="edge9" class="edge">
<title>pool3&#45;&#45;token5</title>
<path fill="none" stroke="black" d="M518.45,-87.7C521.24,-76.85 524.82,-62.92 527.6,-52.1"/>
</g>
<!-- pool4&#45;&#45;token6 -->
<g id="edge12" class="edge">
<title>pool4&#45;&#45;token6</title>
<path fill="none" stroke="black" d="M680,-87.7C680,-76.85 680,-62.92 680,-52.1"/>
</g>
<!-- pool5&#45;&#45;token7 -->
<g id="edge14" class="edge">
<title>pool5&#45;&#45;token7</title>
<path fill="none" stroke="black" d="M862,-87.7C862,-76.85 862,-62.92 862,-52.1"/>
</g>
<!-- pool6&#45;&#45;token8 -->
<g id="edge16" class="edge">
<title>pool6&#45;&#45;token8</title>
<path fill="none" stroke="black" d="M1054,-87.7C1054,-76.85 1054,-62.92 1054,-52.1"/>
</g>
<!-- pool7&#45;&#45;token9 -->
<g id="edge18" class="edge">
<title>pool7&#45;&#45;token9</title>
<path fill="none" stroke="black" d="M1240,-87.7C1240,-76.85 1240,-62.92 1240,-52.1"/>
</g>
</g>
</svg>
