<?xml version="1.0" encoding="UTF-8" standalone="no"?>
<!DOCTYPE svg PUBLIC "-//W3C//DTD SVG 1.1//EN"
 "http://www.w3.org/Graphics/SVG/1.1/DTD/svg11.dtd">
<!-- Generated by graphviz version 2.43.0 (0)
 -->
<!-- Title: G Pages: 1 -->
<svg width="848pt" height="405pt"
 viewBox="0.00 0.00 848.00 405.22" xmlns="http://www.w3.org/2000/svg" xmlns:xlink="http://www.w3.org/1999/xlink">
<g id="graph0" class="graph" transform="scale(1 1) rotate(0) translate(4 401.22)">
<title>G</title>
<polygon fill="white" stroke="transparent" points="-4,4 -4,-401.22 844,-401.22 844,4 -4,4"/>
<g id="clust1" class="cluster">
<title>cluster0</title>
<polygon fill="none" stroke="black" stroke-dasharray="1,5" points="389,-171.74 389,-315.48 509,-315.48 509,-171.74 389,-171.74"/>
</g>
<g id="clust3" class="cluster">
<title>cluster1</title>
<polygon fill="none" stroke="black" stroke-dasharray="1,5" points="8,-8 8,-151.74 122,-151.74 122,-8 8,-8"/>
</g>
<g id="clust5" class="cluster">
<title>cluster2</title>
<polygon fill="none" stroke="black" stroke-dasharray="1,5" points="130,-8 130,-151.74 256,-151.74 256,-8 130,-8"/>
</g>
<g id="clust7" class="cluster">
<title>cluster3</title>
<polygon fill="none" stroke="black" stroke-dasharray="1,5" points="264,-8 264,-151.74 442,-151.74 442,-8 264,-8"/>
</g>
<g id="clust9" class="cluster">
<title>cluster4</title>
<polygon fill="none" stroke="black" stroke-dasharray="1,5" points="450,-8 450,-151.74 564,-151.74 564,-8 450,-8"/>
</g>
<g id="clust11" class="cluster">
<title>cluster5</title>
<polygon fill="none" stroke="black" stroke-dasharray="1,5" points="572,-8 572,-151.74 698,-151.74 698,-8 572,-8"/>
</g>
<g id="clust13" class="cluster">
<title>cluster6</title>
<polygon fill="none" stroke="black" stroke-dasharray="1,5" points="706,-8 706,-151.74 832,-151.74 832,-8 706,-8"/>
</g>
<!-- token0 -->
<g id="node1" class="node">
<title>token0</title>
<ellipse fill="none" stroke="black" cx="449" cy="-370.35" rx="42.35" ry="26.74"/>
<text text-anchor="middle" x="449" y="-374.15" font-family="Times,serif" font-size="14.00">USDC</text>
<text text-anchor="middle" x="449" y="-359.15" font-family="Times,serif" font-size="14.00">0</text>
</g>
<!-- pool0 -->
<g id="node10" class="node">
<title>pool0</title>
<polygon fill="none" stroke="black" stroke-dasharray="5,2" points="498,-307.48 400,-307.48 400,-269.48 498,-269.48 498,-307.48"/>
<text text-anchor="middle" x="449" y="-292.28" font-family="Times,serif" font-size="14.00">UniswapV3</text>
<text text-anchor="middle" x="449" y="-277.28" font-family="Times,serif" font-size="14.00">0x2e2d</text>
</g>
<!-- token0&#45;&#45;pool0 -->
<g id="edge1" class="edge">
<title>token0&#45;&#45;pool0</title>
<path fill="none" stroke="black" d="M449,-343.2C449,-331.55 449,-318.12 449,-307.6"/>
</g>
<!-- token1 -->
<g id="node2" class="node">
<title>token1</title>
<ellipse fill="none" stroke="black" cx="449" cy="-206.61" rx="51.74" ry="26.74"/>
<text text-anchor="middle" x="449" y="-210.41" font-family="Times,serif" font-size="14.00">USDC.e</text>
<text text-anchor="middle" x="449" y="-195.41" font-family="Times,serif" font-size="14.00">1</text>
</g>
<!-- pool1 -->
<g id="node11" class="node">
<title>pool1</title>
<polygon fill="none" stroke="black" stroke-dasharray="5,2" points="114,-143.74 16,-143.74 16,-105.74 114,-105.74 114,-143.74"/>
<text text-anchor="middle" x="65" y="-128.54" font-family="Times,serif" font-size="14.00">UniswapV3</text>
<text text-anchor="middle" x="65" y="-113.54" font-family="Times,serif" font-size="14.00">0xbf16</text>
</g>
<!-- token1&#45;&#45;pool1 -->
<g id="edge3" class="edge">
<title>token1&#45;&#45;pool1</title>
<path fill="none" stroke="black" d="M398.37,-200.93C334.07,-194.13 220.14,-179.23 126,-151.74 118.6,-149.58 110.89,-146.77 103.55,-143.79"/>
</g>
<!-- pool2 -->
<g id="node12" class="node">
<title>pool2</title>
<polygon fill="none" stroke="black" stroke-dasharray="5,2" points="248.5,-143.74 137.5,-143.74 137.5,-105.74 248.5,-105.74 248.5,-143.74"/>
<text text-anchor="middle" x="193" y="-128.54" font-family="Times,serif" font-size="14.00">VelodromeV2</text>
<text text-anchor="middle" x="193" y="-113.54" font-family="Times,serif" font-size="14.00">0x1971</text>
</g>
<!-- token1&#45;&#45;pool2 -->
<g id="edge5" class="edge">
<title>token1&#45;&#45;pool2</title>
<path fill="none" stroke="black" d="M403.19,-193.83C364.69,-183.62 308.36,-167.98 260,-151.74 252.78,-149.32 245.2,-146.57 237.84,-143.8"/>
</g>
<!-- pool3 -->
<g id="node13" class="node">
<title>pool3</title>
<polygon fill="none" stroke="black" stroke-dasharray="5,2" points="431,-143.74 353,-143.74 353,-105.74 431,-105.74 431,-143.74"/>
<text text-anchor="middle" x="392" y="-128.54" font-family="Times,serif" font-size="14.00">CurveV1</text>
<text text-anchor="middle" x="392" y="-113.54" font-family="Times,serif" font-size="14.00">0x1337</text>
</g>
<!-- token1&#45;&#45;pool3 -->
<g id="edge7" class="edge">
<title>token1&#45;&#45;pool3</title>
<path fill="none" stroke="black" d="M431.59,-181.21C423.01,-169.19 412.85,-154.95 404.96,-143.9"/>
</g>
<!-- pool4 -->
<g id="node14" class="node">
<title>pool4</title>
<polygon fill="none" stroke="black" stroke-dasharray="5,2" points="556,-143.74 458,-143.74 458,-105.74 556,-105.74 556,-143.74"/>
<text text-anchor="middle" x="507" y="-128.54" font-family="Times,serif" font-size="14.00">UniswapV3</text>
<text text-anchor="middle" x="507" y="-113.54" font-family="Times,serif" font-size="14.00">0xf1f1</text>
</g>
<!-- token1&#45;&#45;pool4 -->
<g id="edge11" class="edge">
<title>token1&#45;&#45;pool4</title>
<path fill="none" stroke="black" d="M466.72,-181.21C475.45,-169.19 485.79,-154.95 493.81,-143.9"/>
</g>
<!-- pool5 -->
<g id="node15" class="node">
<title>pool5</title>
<polygon fill="none" stroke="black" stroke-dasharray="5,2" points="690.5,-143.74 579.5,-143.74 579.5,-105.74 690.5,-105.74 690.5,-143.74"/>
<text text-anchor="middle" x="635" y="-128.54" font-family="Times,serif" font-size="14.00">VelodromeV2</text>
<text text-anchor="middle" x="635" y="-113.54" font-family="Times,serif" font-size="14.00">0x2b47</text>
</g>
<!-- token1&#45;&#45;pool5 -->
<g id="edge13" class="edge">
<title>token1&#45;&#45;pool5</title>
<path fill="none" stroke="black" d="M487.99,-188.87C518.67,-175.69 561.35,-157.37 592.82,-143.85"/>
</g>
<!-- pool6 -->
<g id="node16" class="node">
<title>pool6</title>
<polygon fill="none" stroke="black" stroke-dasharray="5,2" points="824.5,-143.74 713.5,-143.74 713.5,-105.74 824.5,-105.74 824.5,-143.74"/>
<text text-anchor="middle" x="769" y="-128.54" font-family="Times,serif" font-size="14.00">VelodromeV2</text>
<text text-anchor="middle" x="769" y="-113.54" font-family="Times,serif" font-size="14.00">0x6d5b</text>
</g>
<!-- token1&#45;&#45;pool6 -->
<g id="edge15" class="edge">
<title>token1&#45;&#45;pool6</title>
<path fill="none" stroke="black" d="M498.09,-197.57C549.49,-188.59 632.29,-172.54 702,-151.74 709.65,-149.46 717.67,-146.69 725.38,-143.82"/>
</g>
<!-- token2 -->
<g id="node3" class="node">
<title>token2</title>
<ellipse fill="none" stroke="black" cx="65" cy="-42.87" rx="30.31" ry="26.74"/>
<text text-anchor="middle" x="65" y="-46.67" font-family="Times,serif" font-size="14.00">DAI</text>
<text text-anchor="middle" x="65" y="-31.67" font-family="Times,serif" font-size="14.00">2</text>
</g>
<!-- token3 -->
<g id="node4" class="node">
<title>token3</title>
<ellipse fill="none" stroke="black" cx="193" cy="-42.87" rx="30.31" ry="26.74"/>
<text text-anchor="middle" x="193" y="-46.67" font-family="Times,serif" font-size="14.00">DAI</text>
<text text-anchor="middle" x="193" y="-31.67" font-family="Times,serif" font-size="14.00">3</text>
</g>
<!-- token4 -->
<g id="node5" class="node">
<title>token4</title>
<ellipse fill="none" stroke="black" cx="302" cy="-42.87" rx="30.31" ry="26.74"/>
<text text-anchor="middle" x="302" y="-46.67" font-family="Times,serif" font-size="14.00">DAI</text>
<text text-anchor="middle" x="302" y="-31.67" font-family="Times,serif" font-size="14.00">4</text>
</g>
<!-- token5 -->
<g id="node6" class="node">
<title>token5</title>
<ellipse fill="none" stroke="black" cx="392" cy="-42.87" rx="41.94" ry="26.74"/>
<text text-anchor="middle" x="392" y="-46.67" font-family="Times,serif" font-size="14.00">USDT</text>
<text text-anchor="middle" x="392" y="-31.67" font-family="Times,serif" font-size="14.00">5</text>
</g>
<!-- token4&#45;&#45;token5 -->
<!-- token6 -->
<g id="node7" class="node">
<title>token6</title>
<ellipse fill="none" stroke="black" cx="507" cy="-42.87" rx="41.94" ry="26.74"/>
<text text-anchor="middle" x="507" y="-46.67" font-family="Times,serif" font-size="14.00">USDT</text>
<text text-anchor="middle" x="507" y="-31.67" font-family="Times,serif" font-size="14.00">6</text>
</g>
<!-- token7 -->
<g id="node8" class="node">
<title>token7</title>
<ellipse fill="none" stroke="black" cx="635" cy="-42.87" rx="41.94" ry="26.74"/>
<text text-anchor="middle" x="635" y="-46.67" font-family="Times,serif" font-size="14.00">USDT</text>
<text text-anchor="middle" x="635" y="-31.67" font-family="Times,serif" font-size="14.00">7</text>
</g>
<!-- token8 -->
<g id="node9" class="node">
<title>token8</title>
<ellipse fill="none" stroke="black" cx="769" cy="-42.87" rx="40.11" ry="26.74"/>
<text text-anchor="middle" x="769" y="-46.67" font-family="Times,serif" font-size="14.00">sUSD</text>
<text text-anchor="middle" x="769" y="-31.67" font-family="Times,serif" font-size="14.00">8</text>
</g>
<!-- pool0&#45;&#45;token1 -->
<g id="edge2" class="edge">
<title>pool0&#45;&#45;token1</title>
<path fill="none" stroke="black" d="M449,-269.36C449,-258.77 449,-245.24 449,-233.54"/>
</g>
<!-- pool1&#45;&#45;token2 -->
<g id="edge4" class="edge">
<title>pool1&#45;&#45;token2</title>
<path fill="none" stroke="black" d="M65,-105.62C65,-95.03 65,-81.5 65,-69.8"/>
</g>
<!-- pool2&#45;&#45;token3 -->
<g id="edge6" class="edge">
<title>pool2&#45;&#45;token3</title>
<path fill="none" stroke="black" d="M193,-105.62C193,-95.03 193,-81.5 193,-69.8"/>
</g>
<!-- pool3&#45;&#45;token4 -->
<g id="edge8" class="edge">
<title>pool3&#45;&#45;token4</title>
<path fill="none" stroke="black" d="M371.58,-105.62C357.06,-92.73 337.61,-75.47 322.97,-62.48"/>
</g>
<!-- pool3&#45;&#45;token5 -->
<g id="edge9" class="edge">
<title>pool3&#45;&#45;token5</title>
<path fill="none" stroke="black" d="M392,-105.62C392,-95.03 392,-81.5 392,-69.8"/>
</g>
<!-- pool4&#45;&#45;token6 -->
<g id="edge12" class="edge">
<title>pool4&#45;&#45;token6</title>
<path fill="none" stroke="black" d="M507,-105.62C507,-95.03 507,-81.5 507,-69.8"/>
</g>
<!-- pool5&#45;&#45;token7 -->
<g id="edge14" class="edge">
<title>pool5&#45;&#45;token7</title>
<path fill="none" stroke="black" d="M635,-105.62C635,-95.03 635,-81.5 635,-69.8"/>
</g>
<!-- pool6&#45;&#45;token8 -->
<g id="edge16" class="edge">
<title>pool6&#45;&#45;token8</title>
<path fill="none" stroke="black" d="M769,-105.62C769,-95.03 769,-81.5 769,-69.8"/>
</g>
</g>
</svg>
