<?xml version="1.0" encoding="UTF-8" standalone="no"?>
<!DOCTYPE svg PUBLIC "-//W3C//DTD SVG 1.1//EN"
 "http://www.w3.org/Graphics/SVG/1.1/DTD/svg11.dtd">
<!-- Generated by graphviz version 2.43.0 (0)
 -->
<!-- Title: G Pages: 1 -->
<svg width="1780pt" height="405pt"
 viewBox="0.00 0.00 1780.00 405.22" xmlns="http://www.w3.org/2000/svg" xmlns:xlink="http://www.w3.org/1999/xlink">
<g id="graph0" class="graph" transform="scale(1 1) rotate(0) translate(4 401.22)">
<title>G</title>
<polygon fill="white" stroke="transparent" points="-4,4 -4,-401.22 1776,-401.22 1776,4 -4,4"/>
<g id="clust1" class="cluster">
<title>cluster0</title>
<polygon fill="none" stroke="black" stroke-dasharray="1,5" points="511,-171.74 511,-315.48 631,-315.48 631,-171.74 511,-171.74"/>
</g>
<g id="clust3" class="cluster">
<title>cluster1</title>
<polygon fill="none" stroke="black" stroke-dasharray="1,5" points="8,-8 8,-151.74 122,-151.74 122,-8 8,-8"/>
</g>
<g id="clust5" class="cluster">
<title>cluster2</title>
<polygon fill="none" stroke="black" stroke-dasharray="1,5" points="130,-8 130,-151.74 256,-151.74 256,-8 130,-8"/>
</g>
<g id="clust7" class="cluster">
<title>cluster3</title>
<polygon fill="none" stroke="black" stroke-dasharray="1,5" points="264,-8 264,-151.74 442,-151.74 442,-8 264,-8"/>
</g>
<g id="clust9" class="cluster">
<title>cluster4</title>
<polygon fill="none" stroke="black" stroke-dasharray="1,5" points="450,-8 450,-151.74 564,-151.74 564,-8 450,-8"/>
</g>
<g id="clust11" class="cluster">
<title>cluster5</title>
<polygon fill="none" stroke="black" stroke-dasharray="1,5" points="572,-8 572,-151.74 698,-151.74 698,-8 572,-8"/>
</g>
<g id="clust13" class="cluster">
<title>cluster6</title>
<polygon fill="none" stroke="black" stroke-dasharray="1,5" points="706,-8 706,-151.74 832,-151.74 832,-8 706,-8"/>
</g>
<g id="clust15" class="cluster">
<title>cluster7</title>
<polygon fill="none" stroke="black" stroke-dasharray="1,5" points="840,-8 840,-151.74 954,-151.74 954,-8 840,-8"/>
</g>
<g id="clust17" class="cluster">
<title>cluster8</title>
<polygon fill="none" stroke="black" stroke-dasharray="1,5" points="893,-171.74 893,-315.48 1007,-315.48 1007,-171.74 893,-171.74"/>
</g>
<g id="clust19" class="cluster">
<title>cluster9</title>
<polygon fill="none" stroke="black" stroke-dasharray="1,5" points="1245,-171.74 1245,-315.48 1365,-315.48 1365,-171.74 1245,-171.74"/>
</g>
<g id="clust21" class="cluster">
<title>cluster10</title>
<polygon fill="none" stroke="black" stroke-dasharray="1,5" points="962,-8 962,-151.74 1076,-151.74 1076,-8 962,-8"/>
</g>
<g id="clust23" class="cluster">
<title>cluster11</title>
<polygon fill="none" stroke="black" stroke-dasharray="1,5" points="1084,-8 1084,-151.74 1210,-151.74 1210,-8 1084,-8"/>
</g>
<g id="clust25" class="cluster">
<title>cluster12</title>
<polygon fill="none" stroke="black" stroke-dasharray="1,5" points="1218,-8 1218,-151.74 1396,-151.74 1396,-8 1218,-8"/>
</g>
<g id="clust27" class="cluster">
<title>cluster13</title>
<polygon fill="none" stroke="black" stroke-dasharray="1,5" points="1404,-8 1404,-151.74 1518,-151.74 1518,-8 1404,-8"/>
</g>
<g id="clust29" class="cluster">
<title>cluster14</title>
<polygon fill="none" stroke="black" stroke-dasharray="1,5" points="1526,-8 1526,-151.74 1640,-151.74 1640,-8 1526,-8"/>
</g>
<g id="clust31" class="cluster">
<title>cluster15</title>
<polygon fill="none" stroke="black" stroke-dasharray="1,5" points="1648,-8 1648,-151.74 1764,-151.74 1764,-8 1648,-8"/>
</g>
<!-- token0 -->
<g id="node1" class="node">
<title>token0</title>
<ellipse fill="none" stroke="black" cx="950" cy="-370.35" rx="42.35" ry="26.74"/>
<text text-anchor="middle" x="950" y="-374.15" font-family="Times,serif" font-size="14.00">USDC</text>
<text text-anchor="middle" x="950" y="-359.15" font-family="Times,serif" font-size="14.00">0</text>
</g>
<!-- pool0 -->
<g id="node20" class="node">
<title>pool0</title>
<polygon fill="none" stroke="black" stroke-dasharray="5,2" points="621,-307.48 523,-307.48 523,-269.48 621,-269.48 621,-307.48"/>
<text text-anchor="middle" x="572" y="-292.28" font-family="Times,serif" font-size="14.00">UniswapV3</text>
<text text-anchor="middle" x="572" y="-277.28" font-family="Times,serif" font-size="14.00">0x2e2d</text>
</g>
<!-- token0&#45;&#45;pool0 -->
<g id="edge1" class="edge">
<title>token0&#45;&#45;pool0</title>
<path fill="none" stroke="black" d="M909.91,-360.88C840.17,-346.14 696.79,-315.85 621.18,-299.87"/>
</g>
<!-- pool8 -->
<g id="node28" class="node">
<title>pool8</title>
<polygon fill="none" stroke="black" stroke-dasharray="5,2" points="999,-307.48 901,-307.48 901,-269.48 999,-269.48 999,-307.48"/>
<text text-anchor="middle" x="950" y="-292.28" font-family="Times,serif" font-size="14.00">UniswapV3</text>
<text text-anchor="middle" x="950" y="-277.28" font-family="Times,serif" font-size="14.00">0xa73c</text>
</g>
<!-- token0&#45;&#45;pool8 -->
<g id="edge19" class="edge">
<title>token0&#45;&#45;pool8</title>
<path fill="none" stroke="black" d="M950,-343.2C950,-331.55 950,-318.12 950,-307.6"/>
</g>
<!-- pool9 -->
<g id="node29" class="node">
<title>pool9</title>
<polygon fill="none" stroke="black" stroke-dasharray="5,2" points="1352,-307.48 1254,-307.48 1254,-269.48 1352,-269.48 1352,-307.48"/>
<text text-anchor="middle" x="1303" y="-292.28" font-family="Times,serif" font-size="14.00">UniswapV3</text>
<text text-anchor="middle" x="1303" y="-277.28" font-family="Times,serif" font-size="14.00">0x2ab2</text>
</g>
<!-- token0&#45;&#45;pool9 -->
<g id="edge21" class="edge">
<title>token0&#45;&#45;pool9</title>
<path fill="none" stroke="black" d="M989.47,-360.42C1054.32,-345.75 1183.29,-316.57 1253.93,-300.58"/>
</g>
<!-- token1 -->
<g id="node2" class="node">
<title>token1</title>
<ellipse fill="none" stroke="black" cx="571" cy="-206.61" rx="51.74" ry="26.74"/>
<text text-anchor="middle" x="571" y="-210.41" font-family="Times,serif" font-size="14.00">USDC.e</text>
<text text-anchor="middle" x="571" y="-195.41" font-family="Times,serif" font-size="14.00">1</text>
</g>
<!-- pool1 -->
<g id="node21" class="node">
<title>pool1</title>
<polygon fill="none" stroke="black" stroke-dasharray="5,2" points="114,-143.74 16,-143.74 16,-105.74 114,-105.74 114,-143.74"/>
<text text-anchor="middle" x="65" y="-128.54" font-family="Times,serif" font-size="14.00">UniswapV3</text>
<text text-anchor="middle" x="65" y="-113.54" font-family="Times,serif" font-size="14.00">0xbf16</text>
</g>
<!-- token1&#45;&#45;pool1 -->
<g id="edge3" class="edge">
<title>token1&#45;&#45;pool1</title>
<path fill="none" stroke="black" d="M519.39,-204.07C435.53,-200.53 265.07,-188.99 126,-151.74 118.33,-149.69 110.36,-146.85 102.81,-143.8"/>
</g>
<!-- pool2 -->
<g id="node22" class="node">
<title>pool2</title>
<polygon fill="none" stroke="black" stroke-dasharray="5,2" points="248.5,-143.74 137.5,-143.74 137.5,-105.74 248.5,-105.74 248.5,-143.74"/>
<text text-anchor="middle" x="193" y="-128.54" font-family="Times,serif" font-size="14.00">VelodromeV2</text>
<text text-anchor="middle" x="193" y="-113.54" font-family="Times,serif" font-size="14.00">0x1971</text>
</g>
<!-- token1&#45;&#45;pool2 -->
<g id="edge5" class="edge">
<title>token1&#45;&#45;pool2</title>
<path fill="none" stroke="black" d="M520.77,-200.03C458.72,-192.42 350.29,-176.81 260,-151.74 252.07,-149.54 243.77,-146.74 235.82,-143.81"/>
</g>
<!-- pool3 -->
<g id="node23" class="node">
<title>pool3</title>
<polygon fill="none" stroke="black" stroke-dasharray="5,2" points="431,-143.74 353,-143.74 353,-105.74 431,-105.74 431,-143.74"/>
<text text-anchor="middle" x="392" y="-128.54" font-family="Times,serif" font-size="14.00">CurveV1</text>
<text text-anchor="middle" x="392" y="-113.54" font-family="Times,serif" font-size="14.00">0x1337</text>
</g>
<!-- token1&#45;&#45;pool3 -->
<g id="edge7" class="edge">
<title>token1&#45;&#45;pool3</title>
<path fill="none" stroke="black" d="M531.69,-189.16C506.97,-178.7 474.49,-164.73 446,-151.74 440.51,-149.24 434.73,-146.53 429.09,-143.85"/>
</g>
<!-- pool4 -->
<g id="node24" class="node">
<title>pool4</title>
<polygon fill="none" stroke="black" stroke-dasharray="5,2" points="556,-143.74 458,-143.74 458,-105.74 556,-105.74 556,-143.74"/>
<text text-anchor="middle" x="507" y="-128.54" font-family="Times,serif" font-size="14.00">UniswapV3</text>
<text text-anchor="middle" x="507" y="-113.54" font-family="Times,serif" font-size="14.00">0xf1f1</text>
</g>
<!-- token1&#45;&#45;pool4 -->
<g id="edge11" class="edge">
<title>token1&#45;&#45;pool4</title>
<path fill="none" stroke="black" d="M551.8,-181.65C542.08,-169.52 530.47,-155.03 521.51,-143.85"/>
</g>
<!-- pool5 -->
<g id="node25" class="node">
<title>pool5</title>
<polygon fill="none" stroke="black" stroke-dasharray="5,2" points="690.5,-143.74 579.5,-143.74 579.5,-105.74 690.5,-105.74 690.5,-143.74"/>
<text text-anchor="middle" x="635" y="-128.54" font-family="Times,serif" font-size="14.00">VelodromeV2</text>
<text text-anchor="middle" x="635" y="-113.54" font-family="Times,serif" font-size="14.00">0x2b47</text>
</g>
<!-- token1&#45;&#45;pool5 -->
<g id="edge13" class="edge">
<title>token1&#45;&#45;pool5</title>
<path fill="none" stroke="black" d="M590.2,-181.65C599.92,-169.52 611.53,-155.03 620.49,-143.85"/>
</g>
<!-- pool6 -->
<g id="node26" class="node">
<title>pool6</title>
<polygon fill="none" stroke="black" stroke-dasharray="5,2" points="824.5,-143.74 713.5,-143.74 713.5,-105.74 824.5,-105.74 824.5,-143.74"/>
<text text-anchor="middle" x="769" y="-128.54" font-family="Times,serif" font-size="14.00">VelodromeV2</text>
<text text-anchor="middle" x="769" y="-113.54" font-family="Times,serif" font-size="14.00">0x6d5b</text>
</g>
<!-- token1&#45;&#45;pool6 -->
<g id="edge15" class="edge">
<title>token1&#45;&#45;pool6</title>
<path fill="none" stroke="black" d="M611.07,-189.45C643.84,-176.23 690.15,-157.55 724.16,-143.83"/>
</g>
<!-- pool7 -->
<g id="node27" class="node">
<title>pool7</title>
<polygon fill="none" stroke="black" stroke-dasharray="5,2" points="946,-143.74 848,-143.74 848,-105.74 946,-105.74 946,-143.74"/>
<text text-anchor="middle" x="897" y="-128.54" font-family="Times,serif" font-size="14.00">UniswapV3</text>
<text text-anchor="middle" x="897" y="-113.54" font-family="Times,serif" font-size="14.00">0x252c</text>
</g>
<!-- token1&#45;&#45;pool7 -->
<g id="edge17" class="edge">
<title>token1&#45;&#45;pool7</title>
<path fill="none" stroke="black" d="M620.59,-198.6C674.4,-190.29 762.48,-174.62 836,-151.74 843.14,-149.52 850.59,-146.75 857.73,-143.85"/>
</g>
<!-- token2 -->
<g id="node3" class="node">
<title>token2</title>
<ellipse fill="none" stroke="black" cx="65" cy="-42.87" rx="30.31" ry="26.74"/>
<text text-anchor="middle" x="65" y="-46.67" font-family="Times,serif" font-size="14.00">DAI</text>
<text text-anchor="middle" x="65" y="-31.67" font-family="Times,serif" font-size="14.00">2</text>
</g>
<!-- token3 -->
<g id="node4" class="node">
<title>token3</title>
<ellipse fill="none" stroke="black" cx="193" cy="-42.87" rx="30.31" ry="26.74"/>
<text text-anchor="middle" x="193" y="-46.67" font-family="Times,serif" font-size="14.00">DAI</text>
<text text-anchor="middle" x="193" y="-31.67" font-family="Times,serif" font-size="14.00">3</text>
</g>
<!-- token4 -->
<g id="node5" class="node">
<title>token4</title>
<ellipse fill="none" stroke="black" cx="302" cy="-42.87" rx="30.31" ry="26.74"/>
<text text-anchor="middle" x="302" y="-46.67" font-family="Times,serif" font-size="14.00">DAI</text>
<text text-anchor="middle" x="302" y="-31.67" font-family="Times,serif" font-size="14.00">4</text>
</g>
<!-- token5 -->
<g id="node6" class="node">
<title>token5</title>
<ellipse fill="none" stroke="black" cx="392" cy="-42.87" rx="41.94" ry="26.74"/>
<text text-anchor="middle" x="392" y="-46.67" font-family="Times,serif" font-size="14.00">USDT</text>
<text text-anchor="middle" x="392" y="-31.67" font-family="Times,serif" font-size="14.00">5</text>
</g>
<!-- token4&#45;&#45;token5 -->
<!-- token6 -->
<g id="node7" class="node">
<title>token6</title>
<ellipse fill="none" stroke="black" cx="507" cy="-42.87" rx="41.94" ry="26.74"/>
<text text-anchor="middle" x="507" y="-46.67" font-family="Times,serif" font-size="14.00">USDT</text>
<text text-anchor="middle" x="507" y="-31.67" font-family="Times,serif" font-size="14.00">6</text>
</g>
<!-- token7 -->
<g id="node8" class="node">
<title>token7</title>
<ellipse fill="none" stroke="black" cx="635" cy="-42.87" rx="41.94" ry="26.74"/>
<text text-anchor="middle" x="635" y="-46.67" font-family="Times,serif" font-size="14.00">USDT</text>
<text text-anchor="middle" x="635" y="-31.67" font-family="Times,serif" font-size="14.00">7</text>
</g>
<!-- token8 -->
<g id="node9" class="node">
<title>token8</title>
<ellipse fill="none" stroke="black" cx="769" cy="-42.87" rx="40.11" ry="26.74"/>
<text text-anchor="middle" x="769" y="-46.67" font-family="Times,serif" font-size="14.00">sUSD</text>
<text text-anchor="middle" x="769" y="-31.67" font-family="Times,serif" font-size="14.00">8</text>
</g>
<!-- token9 -->
<g id="node10" class="node">
<title>token9</title>
<ellipse fill="none" stroke="black" cx="897" cy="-42.87" rx="40.11" ry="26.74"/>
<text text-anchor="middle" x="897" y="-46.67" font-family="Times,serif" font-size="14.00">sUSD</text>
<text text-anchor="middle" x="897" y="-31.67" font-family="Times,serif" font-size="14.00">9</text>
</g>
<!-- token10 -->
<g id="node11" class="node">
<title>token10</title>
<ellipse fill="none" stroke="black" cx="950" cy="-206.61" rx="41.94" ry="26.74"/>
<text text-anchor="middle" x="950" y="-210.41" font-family="Times,serif" font-size="14.00">USDT</text>
<text text-anchor="middle" x="950" y="-195.41" font-family="Times,serif" font-size="14.00">10</text>
</g>
<!-- token11 -->
<g id="node12" class="node">
<title>token11</title>
<ellipse fill="none" stroke="black" cx="1305" cy="-206.61" rx="51.74" ry="26.74"/>
<text text-anchor="middle" x="1305" y="-210.41" font-family="Times,serif" font-size="14.00">USDC.e</text>
<text text-anchor="middle" x="1305" y="-195.41" font-family="Times,serif" font-size="14.00">11</text>
</g>
<!-- pool10 -->
<g id="node30" class="node">
<title>pool10</title>
<polygon fill="none" stroke="black" stroke-dasharray="5,2" points="1068,-143.74 970,-143.74 970,-105.74 1068,-105.74 1068,-143.74"/>
<text text-anchor="middle" x="1019" y="-128.54" font-family="Times,serif" font-size="14.00">UniswapV3</text>
<text text-anchor="middle" x="1019" y="-113.54" font-family="Times,serif" font-size="14.00">0xbf16</text>
</g>
<!-- token11&#45;&#45;pool10 -->
<g id="edge23" class="edge">
<title>token11&#45;&#45;pool10</title>
<path fill="none" stroke="black" d="M1256.94,-196.54C1210.94,-187.3 1139.88,-171.51 1080,-151.74 1073,-149.43 1065.69,-146.65 1058.66,-143.78"/>
</g>
<!-- pool11 -->
<g id="node31" class="node">
<title>pool11</title>
<polygon fill="none" stroke="black" stroke-dasharray="5,2" points="1202.5,-143.74 1091.5,-143.74 1091.5,-105.74 1202.5,-105.74 1202.5,-143.74"/>
<text text-anchor="middle" x="1147" y="-128.54" font-family="Times,serif" font-size="14.00">VelodromeV2</text>
<text text-anchor="middle" x="1147" y="-113.54" font-family="Times,serif" font-size="14.00">0x1971</text>
</g>
<!-- token11&#45;&#45;pool11 -->
<g id="edge25" class="edge">
<title>token11&#45;&#45;pool11</title>
<path fill="none" stroke="black" d="M1268.75,-187.29C1242.97,-174.25 1208.49,-156.82 1182.81,-143.84"/>
</g>
<!-- pool12 -->
<g id="node32" class="node">
<title>pool12</title>
<polygon fill="none" stroke="black" stroke-dasharray="5,2" points="1344,-143.74 1266,-143.74 1266,-105.74 1344,-105.74 1344,-143.74"/>
<text text-anchor="middle" x="1305" y="-128.54" font-family="Times,serif" font-size="14.00">CurveV1</text>
<text text-anchor="middle" x="1305" y="-113.54" font-family="Times,serif" font-size="14.00">0x1337</text>
</g>
<!-- token11&#45;&#45;pool12 -->
<g id="edge27" class="edge">
<title>token11&#45;&#45;pool12</title>
<path fill="none" stroke="black" d="M1305,-179.46C1305,-167.81 1305,-154.38 1305,-143.86"/>
</g>
<!-- pool13 -->
<g id="node33" class="node">
<title>pool13</title>
<polygon fill="none" stroke="black" stroke-dasharray="5,2" points="1510,-143.74 1412,-143.74 1412,-105.74 1510,-105.74 1510,-143.74"/>
<text text-anchor="middle" x="1461" y="-128.54" font-family="Times,serif" font-size="14.00">UniswapV3</text>
<text text-anchor="middle" x="1461" y="-113.54" font-family="Times,serif" font-size="14.00">0xf1f1</text>
</g>
<!-- token11&#45;&#45;pool13 -->
<g id="edge31" class="edge">
<title>token11&#45;&#45;pool13</title>
<path fill="none" stroke="black" d="M1341.18,-187.09C1366.65,-174.04 1400.57,-156.68 1425.82,-143.75"/>
</g>
<!-- pool14 -->
<g id="node34" class="node">
<title>pool14</title>
<polygon fill="none" stroke="black" stroke-dasharray="5,2" points="1632,-143.74 1534,-143.74 1534,-105.74 1632,-105.74 1632,-143.74"/>
<text text-anchor="middle" x="1583" y="-128.54" font-family="Times,serif" font-size="14.00">UniswapV3</text>
<text text-anchor="middle" x="1583" y="-113.54" font-family="Times,serif" font-size="14.00">0x252c</text>
</g>
<!-- token11&#45;&#45;pool14 -->
<g id="edge33" class="edge">
<title>token11&#45;&#45;pool14</title>
<path fill="none" stroke="black" d="M1352.61,-196.08C1397,-186.66 1464.76,-170.91 1522,-151.74 1528.88,-149.44 1536.06,-146.69 1542.99,-143.86"/>
</g>
<!-- pool15 -->
<g id="node35" class="node">
<title>pool15</title>
<polygon fill="none" stroke="black" stroke-dasharray="5,2" points="1755.5,-143.74 1656.5,-143.74 1656.5,-105.74 1755.5,-105.74 1755.5,-143.74"/>
<text text-anchor="middle" x="1706" y="-128.54" font-family="Times,serif" font-size="14.00">DefaultPool</text>
<text text-anchor="middle" x="1706" y="-113.54" font-family="Times,serif" font-size="14.00">0xf449</text>
</g>
<!-- token11&#45;&#45;pool15 -->
<g id="edge35" class="edge">
<title>token11&#45;&#45;pool15</title>
<path fill="none" stroke="black" d="M1355.79,-201.36C1422.81,-194.9 1543.98,-180.21 1644,-151.74 1651.52,-149.6 1659.35,-146.8 1666.82,-143.83"/>
</g>
<!-- token12 -->
<g id="node13" class="node">
<title>token12</title>
<ellipse fill="none" stroke="black" cx="1019" cy="-42.87" rx="30.31" ry="26.74"/>
<text text-anchor="middle" x="1019" y="-46.67" font-family="Times,serif" font-size="14.00">DAI</text>
<text text-anchor="middle" x="1019" y="-31.67" font-family="Times,serif" font-size="14.00">12</text>
</g>
<!-- token13 -->
<g id="node14" class="node">
<title>token13</title>
<ellipse fill="none" stroke="black" cx="1147" cy="-42.87" rx="30.31" ry="26.74"/>
<text text-anchor="middle" x="1147" y="-46.67" font-family="Times,serif" font-size="14.00">DAI</text>
<text text-anchor="middle" x="1147" y="-31.67" font-family="Times,serif" font-size="14.00">13</text>
</g>
<!-- token14 -->
<g id="node15" class="node">
<title>token14</title>
<ellipse fill="none" stroke="black" cx="1256" cy="-42.87" rx="30.31" ry="26.74"/>
<text text-anchor="middle" x="1256" y="-46.67" font-family="Times,serif" font-size="14.00">DAI</text>
<text text-anchor="middle" x="1256" y="-31.67" font-family="Times,serif" font-size="14.00">14</text>
</g>
<!-- token15 -->
<g id="node16" class="node">
<title>token15</title>
<ellipse fill="none" stroke="black" cx="1346" cy="-42.87" rx="41.94" ry="26.74"/>
<text text-anchor="middle" x="1346" y="-46.67" font-family="Times,serif" font-size="14.00">USDT</text>
<text text-anchor="middle" x="1346" y="-31.67" font-family="Times,serif" font-size="14.00">15</text>
</g>
<!-- token14&#45;&#45;token15 -->
<!-- token16 -->
<g id="node17" class="node">
<title>token16</title>
<ellipse fill="none" stroke="black" cx="1461" cy="-42.87" rx="41.94" ry="26.74"/>
<text text-anchor="middle" x="1461" y="-46.67" font-family="Times,serif" font-size="14.00">USDT</text>
<text text-anchor="middle" x="1461" y="-31.67" font-family="Times,serif" font-size="14.00">16</text>
</g>
<!-- token17 -->
<g id="node18" class="node">
<title>token17</title>
<ellipse fill="none" stroke="black" cx="1583" cy="-42.87" rx="40.11" ry="26.74"/>
<text text-anchor="middle" x="1583" y="-46.67" font-family="Times,serif" font-size="14.00">sUSD</text>
<text text-anchor="middle" x="1583" y="-31.67" font-family="Times,serif" font-size="14.00">17</text>
</g>
<!-- token18 -->
<g id="node19" class="node">
<title>token18</title>
<ellipse fill="none" stroke="black" cx="1706" cy="-42.87" rx="41.94" ry="26.74"/>
<text text-anchor="middle" x="1706" y="-46.67" font-family="Times,serif" font-size="14.00">nUSD</text>
<text text-anchor="middle" x="1706" y="-31.67" font-family="Times,serif" font-size="14.00">18</text>
</g>
<!-- pool0&#45;&#45;token1 -->
<g id="edge2" class="edge">
<title>pool0&#45;&#45;token1</title>
<path fill="none" stroke="black" d="M571.77,-269.36C571.64,-258.77 571.47,-245.24 571.32,-233.54"/>
</g>
<!-- pool1&#45;&#45;token2 -->
<g id="edge4" class="edge">
<title>pool1&#45;&#45;token2</title>
<path fill="none" stroke="black" d="M65,-105.62C65,-95.03 65,-81.5 65,-69.8"/>
</g>
<!-- pool2&#45;&#45;token3 -->
<g id="edge6" class="edge">
<title>pool2&#45;&#45;token3</title>
<path fill="none" stroke="black" d="M193,-105.62C193,-95.03 193,-81.5 193,-69.8"/>
</g>
<!-- pool3&#45;&#45;token4 -->
<g id="edge8" class="edge">
<title>pool3&#45;&#45;token4</title>
<path fill="none" stroke="black" d="M371.58,-105.62C357.06,-92.73 337.61,-75.47 322.97,-62.48"/>
</g>
<!-- pool3&#45;&#45;token5 -->
<g id="edge9" class="edge">
<title>pool3&#45;&#45;token5</title>
<path fill="none" stroke="black" d="M392,-105.62C392,-95.03 392,-81.5 392,-69.8"/>
</g>
<!-- pool4&#45;&#45;token6 -->
<g id="edge12" class="edge">
<title>pool4&#45;&#45;token6</title>
<path fill="none" stroke="black" d="M507,-105.62C507,-95.03 507,-81.5 507,-69.8"/>
</g>
<!-- pool5&#45;&#45;token7 -->
<g id="edge14" class="edge">
<title>pool5&#45;&#45;token7</title>
<path fill="none" stroke="black" d="M635,-105.62C635,-95.03 635,-81.5 635,-69.8"/>
</g>
<!-- pool6&#45;&#45;token8 -->
<g id="edge16" class="edge">
<title>pool6&#45;&#45;token8</title>
<path fill="none" stroke="black" d="M769,-105.62C769,-95.03 769,-81.5 769,-69.8"/>
</g>
<!-- pool7&#45;&#45;token9 -->
<g id="edge18" class="edge">
<title>pool7&#45;&#45;token9</title>
<path fill="none" stroke="black" d="M897,-105.62C897,-95.03 897,-81.5 897,-69.8"/>
</g>
<!-- pool8&#45;&#45;token10 -->
<g id="edge20" class="edge">
<title>pool8&#45;&#45;token10</title>
<path fill="none" stroke="black" d="M950,-269.36C950,-258.77 950,-245.24 950,-233.54"/>
</g>
<!-- pool9&#45;&#45;token11 -->
<g id="edge22" class="edge">
<title>pool9&#45;&#45;token11</title>
<path fill="none" stroke="black" d="M1303.45,-269.36C1303.72,-258.77 1304.06,-245.24 1304.35,-233.54"/>
</g>
<!-- pool10&#45;&#45;token12 -->
<g id="edge24" class="edge">
<title>pool10&#45;&#45;token12</title>
<path fill="none" stroke="black" d="M1019,-105.62C1019,-95.03 1019,-81.5 1019,-69.8"/>
</g>
<!-- pool11&#45;&#45;token13 -->
<g id="edge26" class="edge">
<title>pool11&#45;&#45;token13</title>
<path fill="none" stroke="black" d="M1147,-105.62C1147,-95.03 1147,-81.5 1147,-69.8"/>
</g>
<!-- pool12&#45;&#45;token14 -->
<g id="edge28" class="edge">
<title>pool12&#45;&#45;token14</title>
<path fill="none" stroke="black" d="M1293.88,-105.62C1286.82,-94.11 1277.63,-79.12 1270.06,-66.79"/>
</g>
<!-- pool12&#45;&#45;token15 -->
<g id="edge29" class="edge">
<title>pool12&#45;&#45;token15</title>
<path fill="none" stroke="black" d="M1314.3,-105.62C1319.93,-94.66 1327.17,-80.55 1333.31,-68.58"/>
</g>
<!-- pool13&#45;&#45;token16 -->
<g id="edge32" class="edge">
<title>pool13&#45;&#45;token16</title>
<path fill="none" stroke="black" d="M1461,-105.62C1461,-95.03 1461,-81.5 1461,-69.8"/>
</g>
<!-- pool14&#45;&#45;token17 -->
<g id="edge34" class="edge">
<title>pool14&#45;&#45;token17</title>
<path fill="none" stroke="black" d="M1583,-105.62C1583,-95.03 1583,-81.5 1583,-69.8"/>
</g>
<!-- pool15&#45;&#45;token18 -->
<g id="edge36" class="edge">
<title>pool15&#45;&#45;token18</title>
<path fill="none" stroke="black" d="M1706,-105.62C1706,-95.03 1706,-81.5 1706,-69.8"/>
</g>
</g>
</svg>
