<?xml version="1.0" encoding="UTF-8" standalone="no"?>
<!DOCTYPE svg PUBLIC "-//W3C//DTD SVG 1.1//EN"
 "http://www.w3.org/Graphics/SVG/1.1/DTD/svg11.dtd">
<!-- Generated by graphviz version 2.43.0 (0)
 -->
<!-- Title: G Pages: 1 -->
<svg width="194pt" height="204pt"
 viewBox="0.00 0.00 194.00 204.00" xmlns="http://www.w3.org/2000/svg" xmlns:xlink="http://www.w3.org/1999/xlink">
<g id="graph0" class="graph" transform="scale(1 1) rotate(0) translate(4 200)">
<title>G</title>
<polygon fill="white" stroke="transparent" points="-4,4 -4,-200 190,-200 190,4 -4,4"/>
<g id="clust1" class="cluster">
<title>cluster0</title>
<polygon fill="none" stroke="black" stroke-dasharray="1,5" points="8,-8 8,-132 178,-132 178,-8 8,-8"/>
</g>
<!-- token0 -->
<g id="node1" class="node">
<title>token0</title>
<ellipse fill="none" stroke="black" cx="93" cy="-178" rx="50.09" ry="18"/>
<text text-anchor="middle" x="93" y="-174.3" font-family="Times,serif" font-size="14.00">0: nUSD</text>
</g>
<!-- pool0 -->
<g id="node3" class="node">
<title>pool0</title>
<polygon fill="none" stroke="black" stroke-dasharray="5,2" points="169.5,-124 16.5,-124 16.5,-88 169.5,-88 169.5,-124"/>
<text text-anchor="middle" x="93" y="-102.3" font-family="Times,serif" font-size="14.00">DefaultPool 0xf449</text>
</g>
<!-- token0&#45;&#45;pool0 -->
<g id="edge1" class="edge">
<title>token0&#45;&#45;pool0</title>
<path fill="none" stroke="black" d="M93,-159.7C93,-148.85 93,-134.92 93,-124.1"/>
</g>
<!-- token1 -->
<g id="node2" class="node">
<title>token1</title>
<ellipse fill="none" stroke="black" cx="93" cy="-34" rx="50.89" ry="18"/>
<text text-anchor="middle" x="93" y="-30.3" font-family="Times,serif" font-size="14.00">1: USDC</text>
</g>
<!-- pool0&#45;&#45;token1 -->
<g id="edge2" class="edge">
<title>pool0&#45;&#45;token1</title>
<path fill="none" stroke="black" d="M93,-87.7C93,-76.85 93,-62.92 93,-52.1"/>
</g>
</g>
</svg>
