<?xml version="1.0" encoding="UTF-8" standalone="no"?>
<!DOCTYPE svg PUBLIC "-//W3C//DTD SVG 1.1//EN"
 "http://www.w3.org/Graphics/SVG/1.1/DTD/svg11.dtd">
<!-- Generated by graphviz version 2.43.0 (0)
 -->
<!-- Title: G Pages: 1 -->
<svg width="216pt" height="241pt"
 viewBox="0.00 0.00 216.00 241.48" xmlns="http://www.w3.org/2000/svg" xmlns:xlink="http://www.w3.org/1999/xlink">
<g id="graph0" class="graph" transform="scale(1 1) rotate(0) translate(4 237.48)">
<title>G</title>
<polygon fill="white" stroke="transparent" points="-4,4 -4,-237.48 212,-237.48 212,4 -4,4"/>
<g id="clust1" class="cluster">
<title>cluster0</title>
<polygon fill="none" stroke="black" stroke-dasharray="1,5" points="8,-8 8,-151.74 200,-151.74 200,-8 8,-8"/>
</g>
<!-- token0 -->
<g id="node1" class="node">
<title>token0</title>
<ellipse fill="none" stroke="black" cx="104" cy="-206.61" rx="42.35" ry="26.74"/>
<text text-anchor="middle" x="104" y="-210.41" font-family="Times,serif" font-size="14.00">USDC</text>
<text text-anchor="middle" x="104" y="-195.41" font-family="Times,serif" font-size="14.00">0</text>
</g>
<!-- pool0 -->
<g id="node3" class="node">
<title>pool0</title>
<polygon fill="none" stroke="black" stroke-dasharray="5,2" points="191.5,-143.74 16.5,-143.74 16.5,-105.74 191.5,-105.74 191.5,-143.74"/>
<text text-anchor="middle" x="104" y="-128.54" font-family="Times,serif" font-size="14.00">UniswapV3.Metavault</text>
<text text-anchor="middle" x="104" y="-113.54" font-family="Times,serif" font-size="14.00">0x887b</text>
</g>
<!-- token0&#45;&#45;pool0 -->
<g id="edge1" class="edge">
<title>token0&#45;&#45;pool0</title>
<path fill="none" stroke="black" d="M104,-179.46C104,-167.81 104,-154.38 104,-143.86"/>
</g>
<!-- token1 -->
<g id="node2" class="node">
<title>token1</title>
<ellipse fill="none" stroke="black" cx="104" cy="-42.87" rx="41.94" ry="26.74"/>
<text text-anchor="middle" x="104" y="-46.67" font-family="Times,serif" font-size="14.00">USDT</text>
<text text-anchor="middle" x="104" y="-31.67" font-family="Times,serif" font-size="14.00">1</text>
</g>
<!-- pool0&#45;&#45;token1 -->
<g id="edge2" class="edge">
<title>pool0&#45;&#45;token1</title>
<path fill="none" stroke="black" d="M104,-105.62C104,-95.03 104,-81.5 104,-69.8"/>
</g>
</g>
</svg>
