<?xml version="1.0" encoding="UTF-8" standalone="no"?>
<!DOCTYPE svg PUBLIC "-//W3C//DTD SVG 1.1//EN"
 "http://www.w3.org/Graphics/SVG/1.1/DTD/svg11.dtd">
<!-- Generated by graphviz version 2.43.0 (0)
 -->
<!-- Title: G Pages: 1 -->
<svg width="1446pt" height="204pt"
 viewBox="0.00 0.00 1446.00 204.00" xmlns="http://www.w3.org/2000/svg" xmlns:xlink="http://www.w3.org/1999/xlink">
<g id="graph0" class="graph" transform="scale(1 1) rotate(0) translate(4 200)">
<title>G</title>
<polygon fill="white" stroke="transparent" points="-4,4 -4,-200 1442,-200 1442,4 -4,4"/>
<g id="clust1" class="cluster">
<title>cluster0</title>
<polygon fill="none" stroke="black" stroke-dasharray="1,5" points="8,-8 8,-132 222,-132 222,-8 8,-8"/>
</g>
<g id="clust3" class="cluster">
<title>cluster1</title>
<polygon fill="none" stroke="black" stroke-dasharray="1,5" points="230,-8 230,-132 380,-132 380,-8 230,-8"/>
</g>
<g id="clust5" class="cluster">
<title>cluster2</title>
<polygon fill="none" stroke="black" stroke-dasharray="1,5" points="388,-8 388,-132 534,-132 534,-8 388,-8"/>
</g>
<g id="clust7" class="cluster">
<title>cluster3</title>
<polygon fill="none" stroke="black" stroke-dasharray="1,5" points="542,-8 542,-132 712,-132 712,-8 542,-8"/>
</g>
<g id="clust9" class="cluster">
<title>cluster4</title>
<polygon fill="none" stroke="black" stroke-dasharray="1,5" points="720,-8 720,-132 890,-132 890,-8 720,-8"/>
</g>
<g id="clust11" class="cluster">
<title>cluster5</title>
<polygon fill="none" stroke="black" stroke-dasharray="1,5" points="898,-8 898,-132 1070,-132 1070,-8 898,-8"/>
</g>
<g id="clust13" class="cluster">
<title>cluster6</title>
<polygon fill="none" stroke="black" stroke-dasharray="1,5" points="1078,-8 1078,-132 1250,-132 1250,-8 1078,-8"/>
</g>
<g id="clust15" class="cluster">
<title>cluster7</title>
<polygon fill="none" stroke="black" stroke-dasharray="1,5" points="1258,-8 1258,-132 1430,-132 1430,-8 1258,-8"/>
</g>
<!-- token0 -->
<g id="node1" class="node">
<title>token0</title>
<ellipse fill="none" stroke="black" cx="716" cy="-178" rx="50.89" ry="18"/>
<text text-anchor="middle" x="716" y="-174.3" font-family="Times,serif" font-size="14.00">0: USDC</text>
</g>
<!-- pool0 -->
<g id="node11" class="node">
<title>pool0</title>
<polygon fill="none" stroke="black" stroke-dasharray="5,2" points="213.5,-124 56.5,-124 56.5,-88 213.5,-88 213.5,-124"/>
<text text-anchor="middle" x="135" y="-102.3" font-family="Times,serif" font-size="14.00">DefaultPool 0x1116</text>
</g>
<!-- token0&#45;&#45;pool0 -->
<g id="edge1" class="edge">
<title>token0&#45;&#45;pool0</title>
<path fill="none" stroke="black" d="M665.52,-175.3C576.23,-171.65 384.85,-160.88 226,-132 214.56,-129.92 202.46,-127.07 190.95,-124.04"/>
</g>
<!-- pool1 -->
<g id="node12" class="node">
<title>pool1</title>
<polygon fill="none" stroke="black" stroke-dasharray="5,2" points="372,-124 238,-124 238,-88 372,-88 372,-124"/>
<text text-anchor="middle" x="305" y="-102.3" font-family="Times,serif" font-size="14.00">CurveV1 0x4dec</text>
</g>
<!-- token0&#45;&#45;pool1 -->
<g id="edge5" class="edge">
<title>token0&#45;&#45;pool1</title>
<path fill="none" stroke="black" d="M667.15,-173.03C602,-167.12 483.32,-154.27 384,-132 374.31,-129.83 364.11,-127.01 354.37,-124.05"/>
</g>
<!-- pool2 -->
<g id="node13" class="node">
<title>pool2</title>
<polygon fill="none" stroke="black" stroke-dasharray="5,2" points="526,-124 396,-124 396,-88 526,-88 526,-124"/>
<text text-anchor="middle" x="461" y="-102.3" font-family="Times,serif" font-size="14.00">CurveV1 0xdcef</text>
</g>
<!-- token0&#45;&#45;pool2 -->
<g id="edge7" class="edge">
<title>token0&#45;&#45;pool2</title>
<path fill="none" stroke="black" d="M674.79,-167.4C638.58,-158.77 584.55,-145.43 538,-132 529.49,-129.55 520.51,-126.79 511.8,-124.02"/>
</g>
<!-- pool3 -->
<g id="node14" class="node">
<title>pool3</title>
<polygon fill="none" stroke="black" stroke-dasharray="5,2" points="704,-124 550,-124 550,-88 704,-88 704,-124"/>
<text text-anchor="middle" x="627" y="-102.3" font-family="Times,serif" font-size="14.00">UniswapV3 0x73ea</text>
</g>
<!-- token0&#45;&#45;pool3 -->
<g id="edge9" class="edge">
<title>token0&#45;&#45;pool3</title>
<path fill="none" stroke="black" d="M695.8,-161.12C681.75,-150.06 663.03,-135.34 648.67,-124.04"/>
</g>
<!-- pool4 -->
<g id="node15" class="node">
<title>pool4</title>
<polygon fill="none" stroke="black" stroke-dasharray="5,2" points="882,-124 728,-124 728,-88 882,-88 882,-124"/>
<text text-anchor="middle" x="805" y="-102.3" font-family="Times,serif" font-size="14.00">UniswapV3 0xc63b</text>
</g>
<!-- token0&#45;&#45;pool4 -->
<g id="edge11" class="edge">
<title>token0&#45;&#45;pool4</title>
<path fill="none" stroke="black" d="M736.2,-161.12C750.25,-150.06 768.97,-135.34 783.33,-124.04"/>
</g>
<!-- pool5 -->
<g id="node16" class="node">
<title>pool5</title>
<polygon fill="none" stroke="black" stroke-dasharray="5,2" points="1061.5,-124 906.5,-124 906.5,-88 1061.5,-88 1061.5,-124"/>
<text text-anchor="middle" x="984" y="-102.3" font-family="Times,serif" font-size="14.00">UniswapV3 0x4e09</text>
</g>
<!-- token0&#45;&#45;pool5 -->
<g id="edge13" class="edge">
<title>token0&#45;&#45;pool5</title>
<path fill="none" stroke="black" d="M756.36,-167.08C792.49,-158.14 846.86,-144.5 894,-132 903.56,-129.46 913.68,-126.72 923.54,-124"/>
</g>
<!-- pool6 -->
<g id="node17" class="node">
<title>pool6</title>
<polygon fill="none" stroke="black" stroke-dasharray="5,2" points="1241.5,-124 1086.5,-124 1086.5,-88 1241.5,-88 1241.5,-124"/>
<text text-anchor="middle" x="1164" y="-102.3" font-family="Times,serif" font-size="14.00">UniswapV3 0x1339</text>
</g>
<!-- token0&#45;&#45;pool6 -->
<g id="edge15" class="edge">
<title>token0&#45;&#45;pool6</title>
<path fill="none" stroke="black" d="M765,-173.12C834.3,-167.12 964.68,-153.93 1074,-132 1084.97,-129.8 1096.57,-126.97 1107.65,-124.01"/>
</g>
<!-- pool7 -->
<g id="node18" class="node">
<title>pool7</title>
<polygon fill="none" stroke="black" stroke-dasharray="5,2" points="1421.5,-124 1266.5,-124 1266.5,-88 1421.5,-88 1421.5,-124"/>
<text text-anchor="middle" x="1344" y="-102.3" font-family="Times,serif" font-size="14.00">UniswapV3 0x3416</text>
</g>
<!-- token0&#45;&#45;pool7 -->
<g id="edge17" class="edge">
<title>token0&#45;&#45;pool7</title>
<path fill="none" stroke="black" d="M766.47,-175.93C862.25,-173.2 1076.63,-163.76 1254,-132 1265.33,-129.97 1277.3,-127.14 1288.68,-124.12"/>
</g>
<!-- token1 -->
<g id="node2" class="node">
<title>token1</title>
<ellipse fill="none" stroke="black" cx="56" cy="-34" rx="39.79" ry="18"/>
<text text-anchor="middle" x="56" y="-30.3" font-family="Times,serif" font-size="14.00">1: DAI</text>
</g>
<!-- token2 -->
<g id="node3" class="node">
<title>token2</title>
<ellipse fill="none" stroke="black" cx="164" cy="-34" rx="50.09" ry="18"/>
<text text-anchor="middle" x="164" y="-30.3" font-family="Times,serif" font-size="14.00">2: USDT</text>
</g>
<!-- token1&#45;&#45;token2 -->
<!-- token3 -->
<g id="node4" class="node">
<title>token3</title>
<ellipse fill="none" stroke="black" cx="305" cy="-34" rx="58.49" ry="18"/>
<text text-anchor="middle" x="305" y="-30.3" font-family="Times,serif" font-size="14.00">3: crvUSD</text>
</g>
<!-- token4 -->
<g id="node5" class="node">
<title>token4</title>
<ellipse fill="none" stroke="black" cx="461" cy="-34" rx="48.19" ry="18"/>
<text text-anchor="middle" x="461" y="-30.3" font-family="Times,serif" font-size="14.00">4: FRAX</text>
</g>
<!-- token5 -->
<g id="node6" class="node">
<title>token5</title>
<ellipse fill="none" stroke="black" cx="627" cy="-34" rx="58.49" ry="18"/>
<text text-anchor="middle" x="627" y="-30.3" font-family="Times,serif" font-size="14.00">5: crvUSD</text>
</g>
<!-- token6 -->
<g id="node7" class="node">
<title>token6</title>
<ellipse fill="none" stroke="black" cx="805" cy="-34" rx="48.19" ry="18"/>
<text text-anchor="middle" x="805" y="-30.3" font-family="Times,serif" font-size="14.00">6: FRAX</text>
</g>
<!-- token7 -->
<g id="node8" class="node">
<title>token7</title>
<ellipse fill="none" stroke="black" cx="984" cy="-34" rx="49.29" ry="18"/>
<text text-anchor="middle" x="984" y="-30.3" font-family="Times,serif" font-size="14.00">7: LUSD</text>
</g>
<!-- token8 -->
<g id="node9" class="node">
<title>token8</title>
<ellipse fill="none" stroke="black" cx="1164" cy="-34" rx="55.79" ry="18"/>
<text text-anchor="middle" x="1164" y="-30.3" font-family="Times,serif" font-size="14.00">8: PYUSD</text>
</g>
<!-- token9 -->
<g id="node10" class="node">
<title>token9</title>
<ellipse fill="none" stroke="black" cx="1344" cy="-34" rx="50.09" ry="18"/>
<text text-anchor="middle" x="1344" y="-30.3" font-family="Times,serif" font-size="14.00">9: USDT</text>
</g>
<!-- pool0&#45;&#45;token1 -->
<g id="edge2" class="edge">
<title>pool0&#45;&#45;token1</title>
<path fill="none" stroke="black" d="M115.47,-87.7C102.59,-76.28 85.85,-61.45 73.42,-50.44"/>
</g>
<!-- pool0&#45;&#45;token2 -->
<g id="edge3" class="edge">
<title>pool0&#45;&#45;token2</title>
<path fill="none" stroke="black" d="M142.17,-87.7C146.66,-76.85 152.43,-62.92 156.91,-52.1"/>
</g>
<!-- pool1&#45;&#45;token3 -->
<g id="edge6" class="edge">
<title>pool1&#45;&#45;token3</title>
<path fill="none" stroke="black" d="M305,-87.7C305,-76.85 305,-62.92 305,-52.1"/>
</g>
<!-- pool2&#45;&#45;token4 -->
<g id="edge8" class="edge">
<title>pool2&#45;&#45;token4</title>
<path fill="none" stroke="black" d="M461,-87.7C461,-76.85 461,-62.92 461,-52.1"/>
</g>
<!-- pool3&#45;&#45;token5 -->
<g id="edge10" class="edge">
<title>pool3&#45;&#45;token5</title>
<path fill="none" stroke="black" d="M627,-87.7C627,-76.85 627,-62.92 627,-52.1"/>
</g>
<!-- pool4&#45;&#45;token6 -->
<g id="edge12" class="edge">
<title>pool4&#45;&#45;token6</title>
<path fill="none" stroke="black" d="M805,-87.7C805,-76.85 805,-62.92 805,-52.1"/>
</g>
<!-- pool5&#45;&#45;token7 -->
<g id="edge14" class="edge">
<title>pool5&#45;&#45;token7</title>
<path fill="none" stroke="black" d="M984,-87.7C984,-76.85 984,-62.92 984,-52.1"/>
</g>
<!-- pool6&#45;&#45;token8 -->
<g id="edge16" class="edge">
<title>pool6&#45;&#45;token8</title>
<path fill="none" stroke="black" d="M1164,-87.7C1164,-76.85 1164,-62.92 1164,-52.1"/>
</g>
<!-- pool7&#45;&#45;token9 -->
<g id="edge18" class="edge">
<title>pool7&#45;&#45;token9</title>
<path fill="none" stroke="black" d="M1344,-87.7C1344,-76.85 1344,-62.92 1344,-52.1"/>
</g>
</g>
</svg>
