<?xml version="1.0" encoding="UTF-8" standalone="no"?>
<!DOCTYPE svg PUBLIC "-//W3C//DTD SVG 1.1//EN"
 "http://www.w3.org/Graphics/SVG/1.1/DTD/svg11.dtd">
<!-- Generated by graphviz version 2.43.0 (0)
 -->
<!-- Title: G Pages: 1 -->
<svg width="1564pt" height="204pt"
 viewBox="0.00 0.00 1564.00 204.00" xmlns="http://www.w3.org/2000/svg" xmlns:xlink="http://www.w3.org/1999/xlink">
<g id="graph0" class="graph" transform="scale(1 1) rotate(0) translate(4 200)">
<title>G</title>
<polygon fill="white" stroke="transparent" points="-4,4 -4,-200 1560,-200 1560,4 -4,4"/>
<g id="clust1" class="cluster">
<title>cluster0</title>
<polygon fill="none" stroke="black" stroke-dasharray="1,5" points="8,-8 8,-132 340,-132 340,-8 8,-8"/>
</g>
<g id="clust3" class="cluster">
<title>cluster1</title>
<polygon fill="none" stroke="black" stroke-dasharray="1,5" points="348,-8 348,-132 498,-132 498,-8 348,-8"/>
</g>
<g id="clust5" class="cluster">
<title>cluster2</title>
<polygon fill="none" stroke="black" stroke-dasharray="1,5" points="506,-8 506,-132 652,-132 652,-8 506,-8"/>
</g>
<g id="clust7" class="cluster">
<title>cluster3</title>
<polygon fill="none" stroke="black" stroke-dasharray="1,5" points="660,-8 660,-132 830,-132 830,-8 660,-8"/>
</g>
<g id="clust9" class="cluster">
<title>cluster4</title>
<polygon fill="none" stroke="black" stroke-dasharray="1,5" points="838,-8 838,-132 1008,-132 1008,-8 838,-8"/>
</g>
<g id="clust11" class="cluster">
<title>cluster5</title>
<polygon fill="none" stroke="black" stroke-dasharray="1,5" points="1016,-8 1016,-132 1188,-132 1188,-8 1016,-8"/>
</g>
<g id="clust13" class="cluster">
<title>cluster6</title>
<polygon fill="none" stroke="black" stroke-dasharray="1,5" points="1196,-8 1196,-132 1368,-132 1368,-8 1196,-8"/>
</g>
<g id="clust15" class="cluster">
<title>cluster7</title>
<polygon fill="none" stroke="black" stroke-dasharray="1,5" points="1376,-8 1376,-132 1548,-132 1548,-8 1376,-8"/>
</g>
<!-- token0 -->
<g id="node1" class="node">
<title>token0</title>
<ellipse fill="none" stroke="black" cx="834" cy="-178" rx="50.89" ry="18"/>
<text text-anchor="middle" x="834" y="-174.3" font-family="Times,serif" font-size="14.00">0: USDC</text>
</g>
<!-- pool0 -->
<g id="node12" class="node">
<title>pool0</title>
<polygon fill="none" stroke="black" stroke-dasharray="5,2" points="285.5,-124 136.5,-124 136.5,-88 285.5,-88 285.5,-124"/>
<text text-anchor="middle" x="211" y="-102.3" font-family="Times,serif" font-size="14.00">NexusPool 0x1116</text>
</g>
<!-- token0&#45;&#45;pool0 -->
<g id="edge1" class="edge">
<title>token0&#45;&#45;pool0</title>
<path fill="none" stroke="black" d="M784.44,-174C695.79,-168.28 504.33,-154.38 344,-132 325.04,-129.35 304.67,-125.86 285.71,-122.32"/>
</g>
<!-- pool1 -->
<g id="node13" class="node">
<title>pool1</title>
<polygon fill="none" stroke="black" stroke-dasharray="5,2" points="490,-124 356,-124 356,-88 490,-88 490,-124"/>
<text text-anchor="middle" x="423" y="-102.3" font-family="Times,serif" font-size="14.00">CurveV1 0x4dec</text>
</g>
<!-- token0&#45;&#45;pool1 -->
<g id="edge7" class="edge">
<title>token0&#45;&#45;pool1</title>
<path fill="none" stroke="black" d="M785.15,-173.03C720,-167.12 601.32,-154.27 502,-132 492.31,-129.83 482.11,-127.01 472.37,-124.05"/>
</g>
<!-- pool2 -->
<g id="node14" class="node">
<title>pool2</title>
<polygon fill="none" stroke="black" stroke-dasharray="5,2" points="644,-124 514,-124 514,-88 644,-88 644,-124"/>
<text text-anchor="middle" x="579" y="-102.3" font-family="Times,serif" font-size="14.00">CurveV1 0xdcef</text>
</g>
<!-- token0&#45;&#45;pool2 -->
<g id="edge9" class="edge">
<title>token0&#45;&#45;pool2</title>
<path fill="none" stroke="black" d="M792.79,-167.4C756.58,-158.77 702.55,-145.43 656,-132 647.49,-129.55 638.51,-126.79 629.8,-124.02"/>
</g>
<!-- pool3 -->
<g id="node15" class="node">
<title>pool3</title>
<polygon fill="none" stroke="black" stroke-dasharray="5,2" points="822,-124 668,-124 668,-88 822,-88 822,-124"/>
<text text-anchor="middle" x="745" y="-102.3" font-family="Times,serif" font-size="14.00">UniswapV3 0x73ea</text>
</g>
<!-- token0&#45;&#45;pool3 -->
<g id="edge11" class="edge">
<title>token0&#45;&#45;pool3</title>
<path fill="none" stroke="black" d="M813.8,-161.12C799.75,-150.06 781.03,-135.34 766.67,-124.04"/>
</g>
<!-- pool4 -->
<g id="node16" class="node">
<title>pool4</title>
<polygon fill="none" stroke="black" stroke-dasharray="5,2" points="1000,-124 846,-124 846,-88 1000,-88 1000,-124"/>
<text text-anchor="middle" x="923" y="-102.3" font-family="Times,serif" font-size="14.00">UniswapV3 0xc63b</text>
</g>
<!-- token0&#45;&#45;pool4 -->
<g id="edge13" class="edge">
<title>token0&#45;&#45;pool4</title>
<path fill="none" stroke="black" d="M854.2,-161.12C868.25,-150.06 886.97,-135.34 901.33,-124.04"/>
</g>
<!-- pool5 -->
<g id="node17" class="node">
<title>pool5</title>
<polygon fill="none" stroke="black" stroke-dasharray="5,2" points="1179.5,-124 1024.5,-124 1024.5,-88 1179.5,-88 1179.5,-124"/>
<text text-anchor="middle" x="1102" y="-102.3" font-family="Times,serif" font-size="14.00">UniswapV3 0x4e09</text>
</g>
<!-- token0&#45;&#45;pool5 -->
<g id="edge15" class="edge">
<title>token0&#45;&#45;pool5</title>
<path fill="none" stroke="black" d="M874.36,-167.08C910.49,-158.14 964.86,-144.5 1012,-132 1021.56,-129.46 1031.68,-126.72 1041.54,-124"/>
</g>
<!-- pool6 -->
<g id="node18" class="node">
<title>pool6</title>
<polygon fill="none" stroke="black" stroke-dasharray="5,2" points="1359.5,-124 1204.5,-124 1204.5,-88 1359.5,-88 1359.5,-124"/>
<text text-anchor="middle" x="1282" y="-102.3" font-family="Times,serif" font-size="14.00">UniswapV3 0x1339</text>
</g>
<!-- token0&#45;&#45;pool6 -->
<g id="edge17" class="edge">
<title>token0&#45;&#45;pool6</title>
<path fill="none" stroke="black" d="M883,-173.12C952.3,-167.12 1082.68,-153.93 1192,-132 1202.97,-129.8 1214.57,-126.97 1225.65,-124.01"/>
</g>
<!-- pool7 -->
<g id="node19" class="node">
<title>pool7</title>
<polygon fill="none" stroke="black" stroke-dasharray="5,2" points="1539.5,-124 1384.5,-124 1384.5,-88 1539.5,-88 1539.5,-124"/>
<text text-anchor="middle" x="1462" y="-102.3" font-family="Times,serif" font-size="14.00">UniswapV3 0x3416</text>
</g>
<!-- token0&#45;&#45;pool7 -->
<g id="edge19" class="edge">
<title>token0&#45;&#45;pool7</title>
<path fill="none" stroke="black" d="M884.47,-175.93C980.25,-173.2 1194.63,-163.76 1372,-132 1383.33,-129.97 1395.3,-127.14 1406.68,-124.12"/>
</g>
<!-- token1 -->
<g id="node2" class="node">
<title>token1</title>
<ellipse fill="none" stroke="black" cx="56" cy="-34" rx="39.79" ry="18"/>
<text text-anchor="middle" x="56" y="-30.3" font-family="Times,serif" font-size="14.00">1: DAI</text>
</g>
<!-- token2 -->
<g id="node3" class="node">
<title>token2</title>
<ellipse fill="none" stroke="black" cx="164" cy="-34" rx="50.09" ry="18"/>
<text text-anchor="middle" x="164" y="-30.3" font-family="Times,serif" font-size="14.00">2: USDT</text>
</g>
<!-- token1&#45;&#45;token2 -->
<!-- token3 -->
<g id="node4" class="node">
<title>token3</title>
<ellipse fill="none" stroke="black" cx="282" cy="-34" rx="50.09" ry="18"/>
<text text-anchor="middle" x="282" y="-30.3" font-family="Times,serif" font-size="14.00">3: nUSD</text>
</g>
<!-- token2&#45;&#45;token3 -->
<!-- token4 -->
<g id="node5" class="node">
<title>token4</title>
<ellipse fill="none" stroke="black" cx="423" cy="-34" rx="58.49" ry="18"/>
<text text-anchor="middle" x="423" y="-30.3" font-family="Times,serif" font-size="14.00">4: crvUSD</text>
</g>
<!-- token5 -->
<g id="node6" class="node">
<title>token5</title>
<ellipse fill="none" stroke="black" cx="579" cy="-34" rx="48.19" ry="18"/>
<text text-anchor="middle" x="579" y="-30.3" font-family="Times,serif" font-size="14.00">5: FRAX</text>
</g>
<!-- token6 -->
<g id="node7" class="node">
<title>token6</title>
<ellipse fill="none" stroke="black" cx="745" cy="-34" rx="58.49" ry="18"/>
<text text-anchor="middle" x="745" y="-30.3" font-family="Times,serif" font-size="14.00">6: crvUSD</text>
</g>
<!-- token7 -->
<g id="node8" class="node">
<title>token7</title>
<ellipse fill="none" stroke="black" cx="923" cy="-34" rx="48.19" ry="18"/>
<text text-anchor="middle" x="923" y="-30.3" font-family="Times,serif" font-size="14.00">7: FRAX</text>
</g>
<!-- token8 -->
<g id="node9" class="node">
<title>token8</title>
<ellipse fill="none" stroke="black" cx="1102" cy="-34" rx="49.29" ry="18"/>
<text text-anchor="middle" x="1102" y="-30.3" font-family="Times,serif" font-size="14.00">8: LUSD</text>
</g>
<!-- token9 -->
<g id="node10" class="node">
<title>token9</title>
<ellipse fill="none" stroke="black" cx="1282" cy="-34" rx="55.79" ry="18"/>
<text text-anchor="middle" x="1282" y="-30.3" font-family="Times,serif" font-size="14.00">9: PYUSD</text>
</g>
<!-- token10 -->
<g id="node11" class="node">
<title>token10</title>
<ellipse fill="none" stroke="black" cx="1462" cy="-34" rx="55.79" ry="18"/>
<text text-anchor="middle" x="1462" y="-30.3" font-family="Times,serif" font-size="14.00">10: USDT</text>
</g>
<!-- pool0&#45;&#45;token1 -->
<g id="edge2" class="edge">
<title>pool0&#45;&#45;token1</title>
<path fill="none" stroke="black" d="M173.08,-87.88C145.3,-75.33 108.24,-58.59 83.32,-47.34"/>
</g>
<!-- pool0&#45;&#45;token2 -->
<g id="edge3" class="edge">
<title>pool0&#45;&#45;token2</title>
<path fill="none" stroke="black" d="M199.38,-87.7C191.99,-76.68 182.46,-62.5 175.16,-51.62"/>
</g>
<!-- pool0&#45;&#45;token3 -->
<g id="edge4" class="edge">
<title>pool0&#45;&#45;token3</title>
<path fill="none" stroke="black" d="M228.55,-87.7C239.88,-76.52 254.53,-62.08 265.62,-51.14"/>
</g>
<!-- pool1&#45;&#45;token4 -->
<g id="edge8" class="edge">
<title>pool1&#45;&#45;token4</title>
<path fill="none" stroke="black" d="M423,-87.7C423,-76.85 423,-62.92 423,-52.1"/>
</g>
<!-- pool2&#45;&#45;token5 -->
<g id="edge10" class="edge">
<title>pool2&#45;&#45;token5</title>
<path fill="none" stroke="black" d="M579,-87.7C579,-76.85 579,-62.92 579,-52.1"/>
</g>
<!-- pool3&#45;&#45;token6 -->
<g id="edge12" class="edge">
<title>pool3&#45;&#45;token6</title>
<path fill="none" stroke="black" d="M745,-87.7C745,-76.85 745,-62.92 745,-52.1"/>
</g>
<!-- pool4&#45;&#45;token7 -->
<g id="edge14" class="edge">
<title>pool4&#45;&#45;token7</title>
<path fill="none" stroke="black" d="M923,-87.7C923,-76.85 923,-62.92 923,-52.1"/>
</g>
<!-- pool5&#45;&#45;token8 -->
<g id="edge16" class="edge">
<title>pool5&#45;&#45;token8</title>
<path fill="none" stroke="black" d="M1102,-87.7C1102,-76.85 1102,-62.92 1102,-52.1"/>
</g>
<!-- pool6&#45;&#45;token9 -->
<g id="edge18" class="edge">
<title>pool6&#45;&#45;token9</title>
<path fill="none" stroke="black" d="M1282,-87.7C1282,-76.85 1282,-62.92 1282,-52.1"/>
</g>
<!-- pool7&#45;&#45;token10 -->
<g id="edge20" class="edge">
<title>pool7&#45;&#45;token10</title>
<path fill="none" stroke="black" d="M1462,-87.7C1462,-76.85 1462,-62.92 1462,-52.1"/>
</g>
</g>
</svg>
