<?xml version="1.0" encoding="UTF-8" standalone="no"?>
<!DOCTYPE svg PUBLIC "-//W3C//DTD SVG 1.1//EN"
 "http://www.w3.org/Graphics/SVG/1.1/DTD/svg11.dtd">
<!-- Generated by graphviz version 2.43.0 (0)
 -->
<!-- Title: G Pages: 1 -->
<svg width="1147pt" height="241pt"
 viewBox="0.00 0.00 1147.00 241.48" xmlns="http://www.w3.org/2000/svg" xmlns:xlink="http://www.w3.org/1999/xlink">
<g id="graph0" class="graph" transform="scale(1 1) rotate(0) translate(4 237.48)">
<title>G</title>
<polygon fill="white" stroke="transparent" points="-4,4 -4,-237.48 1143,-237.48 1143,4 -4,4"/>
<g id="clust1" class="cluster">
<title>cluster0</title>
<polygon fill="none" stroke="black" stroke-dasharray="1,5" points="8,-8 8,-151.74 287,-151.74 287,-8 8,-8"/>
</g>
<g id="clust3" class="cluster">
<title>cluster1</title>
<polygon fill="none" stroke="black" stroke-dasharray="1,5" points="295,-8 295,-151.74 413,-151.74 413,-8 295,-8"/>
</g>
<g id="clust5" class="cluster">
<title>cluster2</title>
<polygon fill="none" stroke="black" stroke-dasharray="1,5" points="421,-8 421,-151.74 517,-151.74 517,-8 421,-8"/>
</g>
<g id="clust7" class="cluster">
<title>cluster3</title>
<polygon fill="none" stroke="black" stroke-dasharray="1,5" points="525,-8 525,-151.74 643,-151.74 643,-8 525,-8"/>
</g>
<g id="clust9" class="cluster">
<title>cluster4</title>
<polygon fill="none" stroke="black" stroke-dasharray="1,5" points="651,-8 651,-151.74 765,-151.74 765,-8 651,-8"/>
</g>
<g id="clust11" class="cluster">
<title>cluster5</title>
<polygon fill="none" stroke="black" stroke-dasharray="1,5" points="773,-8 773,-151.74 887,-151.74 887,-8 773,-8"/>
</g>
<g id="clust13" class="cluster">
<title>cluster6</title>
<polygon fill="none" stroke="black" stroke-dasharray="1,5" points="895,-8 895,-151.74 1009,-151.74 1009,-8 895,-8"/>
</g>
<g id="clust15" class="cluster">
<title>cluster7</title>
<polygon fill="none" stroke="black" stroke-dasharray="1,5" points="1017,-8 1017,-151.74 1131,-151.74 1131,-8 1017,-8"/>
</g>
<!-- token0 -->
<g id="node1" class="node">
<title>token0</title>
<ellipse fill="none" stroke="black" cx="647" cy="-206.61" rx="42.35" ry="26.74"/>
<text text-anchor="middle" x="647" y="-210.41" font-family="Times,serif" font-size="14.00">USDC</text>
<text text-anchor="middle" x="647" y="-195.41" font-family="Times,serif" font-size="14.00">0</text>
</g>
<!-- pool0 -->
<g id="node12" class="node">
<title>pool0</title>
<polygon fill="none" stroke="black" stroke-dasharray="5,2" points="230,-143.74 138,-143.74 138,-105.74 230,-105.74 230,-143.74"/>
<text text-anchor="middle" x="184" y="-128.54" font-family="Times,serif" font-size="14.00">NexusPool</text>
<text text-anchor="middle" x="184" y="-113.54" font-family="Times,serif" font-size="14.00">0x1116</text>
</g>
<!-- token0&#45;&#45;pool0 -->
<g id="edge1" class="edge">
<title>token0&#45;&#45;pool0</title>
<path fill="none" stroke="black" d="M605.41,-200.53C538.76,-192.11 404.01,-173.97 291,-151.74 270.93,-147.79 248.94,-142.6 230.15,-137.9"/>
</g>
<!-- pool1 -->
<g id="node13" class="node">
<title>pool1</title>
<polygon fill="none" stroke="black" stroke-dasharray="5,2" points="399,-143.74 321,-143.74 321,-105.74 399,-105.74 399,-143.74"/>
<text text-anchor="middle" x="360" y="-128.54" font-family="Times,serif" font-size="14.00">CurveV1</text>
<text text-anchor="middle" x="360" y="-113.54" font-family="Times,serif" font-size="14.00">0x4dec</text>
</g>
<!-- token0&#45;&#45;pool1 -->
<g id="edge7" class="edge">
<title>token0&#45;&#45;pool1</title>
<path fill="none" stroke="black" d="M606.43,-198.63C559.94,-190.05 481.82,-173.87 417,-151.74 410.31,-149.46 403.34,-146.66 396.67,-143.75"/>
</g>
<!-- pool2 -->
<g id="node14" class="node">
<title>pool2</title>
<polygon fill="none" stroke="black" stroke-dasharray="5,2" points="508,-143.74 430,-143.74 430,-105.74 508,-105.74 508,-143.74"/>
<text text-anchor="middle" x="469" y="-128.54" font-family="Times,serif" font-size="14.00">CurveV1</text>
<text text-anchor="middle" x="469" y="-113.54" font-family="Times,serif" font-size="14.00">0xdcef</text>
</g>
<!-- token0&#45;&#45;pool2 -->
<g id="edge9" class="edge">
<title>token0&#45;&#45;pool2</title>
<path fill="none" stroke="black" d="M611.99,-191.3C586.57,-180.75 551.44,-165.84 521,-151.74 515.6,-149.24 509.92,-146.51 504.39,-143.79"/>
</g>
<!-- pool3 -->
<g id="node15" class="node">
<title>pool3</title>
<polygon fill="none" stroke="black" stroke-dasharray="5,2" points="634,-143.74 536,-143.74 536,-105.74 634,-105.74 634,-143.74"/>
<text text-anchor="middle" x="585" y="-128.54" font-family="Times,serif" font-size="14.00">UniswapV3</text>
<text text-anchor="middle" x="585" y="-113.54" font-family="Times,serif" font-size="14.00">0x73ea</text>
</g>
<!-- token0&#45;&#45;pool3 -->
<g id="edge11" class="edge">
<title>token0&#45;&#45;pool3</title>
<path fill="none" stroke="black" d="M628.73,-182.08C619.23,-169.84 607.8,-155.11 599.01,-143.78"/>
</g>
<!-- pool4 -->
<g id="node16" class="node">
<title>pool4</title>
<polygon fill="none" stroke="black" stroke-dasharray="5,2" points="757,-143.74 659,-143.74 659,-105.74 757,-105.74 757,-143.74"/>
<text text-anchor="middle" x="708" y="-128.54" font-family="Times,serif" font-size="14.00">UniswapV3</text>
<text text-anchor="middle" x="708" y="-113.54" font-family="Times,serif" font-size="14.00">0xc63b</text>
</g>
<!-- token0&#45;&#45;pool4 -->
<g id="edge13" class="edge">
<title>token0&#45;&#45;pool4</title>
<path fill="none" stroke="black" d="M664.97,-182.08C674.32,-169.84 685.57,-155.11 694.22,-143.78"/>
</g>
<!-- pool5 -->
<g id="node17" class="node">
<title>pool5</title>
<polygon fill="none" stroke="black" stroke-dasharray="5,2" points="879,-143.74 781,-143.74 781,-105.74 879,-105.74 879,-143.74"/>
<text text-anchor="middle" x="830" y="-128.54" font-family="Times,serif" font-size="14.00">UniswapV3</text>
<text text-anchor="middle" x="830" y="-113.54" font-family="Times,serif" font-size="14.00">0x4e09</text>
</g>
<!-- token0&#45;&#45;pool5 -->
<g id="edge15" class="edge">
<title>token0&#45;&#45;pool5</title>
<path fill="none" stroke="black" d="M681.42,-190.59C711.86,-177.3 756.33,-157.89 788.69,-143.77"/>
</g>
<!-- pool6 -->
<g id="node18" class="node">
<title>pool6</title>
<polygon fill="none" stroke="black" stroke-dasharray="5,2" points="1001,-143.74 903,-143.74 903,-105.74 1001,-105.74 1001,-143.74"/>
<text text-anchor="middle" x="952" y="-128.54" font-family="Times,serif" font-size="14.00">UniswapV3</text>
<text text-anchor="middle" x="952" y="-113.54" font-family="Times,serif" font-size="14.00">0x1339</text>
</g>
<!-- token0&#45;&#45;pool6 -->
<g id="edge17" class="edge">
<title>token0&#45;&#45;pool6</title>
<path fill="none" stroke="black" d="M687.76,-199C736.71,-190.52 820.98,-174.18 891,-151.74 898.13,-149.46 905.57,-146.66 912.7,-143.75"/>
</g>
<!-- pool7 -->
<g id="node19" class="node">
<title>pool7</title>
<polygon fill="none" stroke="black" stroke-dasharray="5,2" points="1123,-143.74 1025,-143.74 1025,-105.74 1123,-105.74 1123,-143.74"/>
<text text-anchor="middle" x="1074" y="-128.54" font-family="Times,serif" font-size="14.00">UniswapV3</text>
<text text-anchor="middle" x="1074" y="-113.54" font-family="Times,serif" font-size="14.00">0x3416</text>
</g>
<!-- token0&#45;&#45;pool7 -->
<g id="edge19" class="edge">
<title>token0&#45;&#45;pool7</title>
<path fill="none" stroke="black" d="M689.17,-202.93C758.04,-197.78 898.48,-183.99 1013,-151.74 1020.54,-149.62 1028.37,-146.79 1035.82,-143.78"/>
</g>
<!-- token1 -->
<g id="node2" class="node">
<title>token1</title>
<ellipse fill="none" stroke="black" cx="46" cy="-42.87" rx="30.31" ry="26.74"/>
<text text-anchor="middle" x="46" y="-46.67" font-family="Times,serif" font-size="14.00">DAI</text>
<text text-anchor="middle" x="46" y="-31.67" font-family="Times,serif" font-size="14.00">1</text>
</g>
<!-- token2 -->
<g id="node3" class="node">
<title>token2</title>
<ellipse fill="none" stroke="black" cx="136" cy="-42.87" rx="41.94" ry="26.74"/>
<text text-anchor="middle" x="136" y="-46.67" font-family="Times,serif" font-size="14.00">USDT</text>
<text text-anchor="middle" x="136" y="-31.67" font-family="Times,serif" font-size="14.00">2</text>
</g>
<!-- token1&#45;&#45;token2 -->
<!-- token3 -->
<g id="node4" class="node">
<title>token3</title>
<ellipse fill="none" stroke="black" cx="237" cy="-42.87" rx="41.94" ry="26.74"/>
<text text-anchor="middle" x="237" y="-46.67" font-family="Times,serif" font-size="14.00">nUSD</text>
<text text-anchor="middle" x="237" y="-31.67" font-family="Times,serif" font-size="14.00">3</text>
</g>
<!-- token2&#45;&#45;token3 -->
<!-- token4 -->
<g id="node5" class="node">
<title>token4</title>
<ellipse fill="none" stroke="black" cx="354" cy="-42.87" rx="50.82" ry="26.74"/>
<text text-anchor="middle" x="354" y="-46.67" font-family="Times,serif" font-size="14.00">crvUSD</text>
<text text-anchor="middle" x="354" y="-31.67" font-family="Times,serif" font-size="14.00">4</text>
</g>
<!-- token5 -->
<g id="node6" class="node">
<title>token5</title>
<ellipse fill="none" stroke="black" cx="469" cy="-42.87" rx="39.7" ry="26.74"/>
<text text-anchor="middle" x="469" y="-46.67" font-family="Times,serif" font-size="14.00">FRAX</text>
<text text-anchor="middle" x="469" y="-31.67" font-family="Times,serif" font-size="14.00">5</text>
</g>
<!-- token6 -->
<g id="node7" class="node">
<title>token6</title>
<ellipse fill="none" stroke="black" cx="584" cy="-42.87" rx="50.82" ry="26.74"/>
<text text-anchor="middle" x="584" y="-46.67" font-family="Times,serif" font-size="14.00">crvUSD</text>
<text text-anchor="middle" x="584" y="-31.67" font-family="Times,serif" font-size="14.00">6</text>
</g>
<!-- token7 -->
<g id="node8" class="node">
<title>token7</title>
<ellipse fill="none" stroke="black" cx="708" cy="-42.87" rx="39.7" ry="26.74"/>
<text text-anchor="middle" x="708" y="-46.67" font-family="Times,serif" font-size="14.00">FRAX</text>
<text text-anchor="middle" x="708" y="-31.67" font-family="Times,serif" font-size="14.00">7</text>
</g>
<!-- token8 -->
<g id="node9" class="node">
<title>token8</title>
<ellipse fill="none" stroke="black" cx="830" cy="-42.87" rx="41.02" ry="26.74"/>
<text text-anchor="middle" x="830" y="-46.67" font-family="Times,serif" font-size="14.00">LUSD</text>
<text text-anchor="middle" x="830" y="-31.67" font-family="Times,serif" font-size="14.00">8</text>
</g>
<!-- token9 -->
<g id="node10" class="node">
<title>token9</title>
<ellipse fill="none" stroke="black" cx="952" cy="-42.87" rx="48.17" ry="26.74"/>
<text text-anchor="middle" x="952" y="-46.67" font-family="Times,serif" font-size="14.00">PYUSD</text>
<text text-anchor="middle" x="952" y="-31.67" font-family="Times,serif" font-size="14.00">9</text>
</g>
<!-- token10 -->
<g id="node11" class="node">
<title>token10</title>
<ellipse fill="none" stroke="black" cx="1074" cy="-42.87" rx="41.94" ry="26.74"/>
<text text-anchor="middle" x="1074" y="-46.67" font-family="Times,serif" font-size="14.00">USDT</text>
<text text-anchor="middle" x="1074" y="-31.67" font-family="Times,serif" font-size="14.00">10</text>
</g>
<!-- pool0&#45;&#45;token1 -->
<g id="edge2" class="edge">
<title>pool0&#45;&#45;token1</title>
<path fill="none" stroke="black" d="M149.22,-105.72C130.05,-95.55 105.96,-82.38 85,-69.74 79.99,-66.72 74.71,-63.35 69.72,-60.07"/>
</g>
<!-- pool0&#45;&#45;token2 -->
<g id="edge3" class="edge">
<title>pool0&#45;&#45;token2</title>
<path fill="none" stroke="black" d="M173.11,-105.62C166.47,-94.57 157.9,-80.31 150.67,-68.28"/>
</g>
<!-- pool0&#45;&#45;token3 -->
<g id="edge4" class="edge">
<title>pool0&#45;&#45;token3</title>
<path fill="none" stroke="black" d="M196.03,-105.62C203.42,-94.48 212.98,-80.07 221,-67.98"/>
</g>
<!-- pool1&#45;&#45;token4 -->
<g id="edge8" class="edge">
<title>pool1&#45;&#45;token4</title>
<path fill="none" stroke="black" d="M358.64,-105.62C357.84,-95.03 356.83,-81.5 355.95,-69.8"/>
</g>
<!-- pool2&#45;&#45;token5 -->
<g id="edge10" class="edge">
<title>pool2&#45;&#45;token5</title>
<path fill="none" stroke="black" d="M469,-105.62C469,-95.03 469,-81.5 469,-69.8"/>
</g>
<!-- pool3&#45;&#45;token6 -->
<g id="edge12" class="edge">
<title>pool3&#45;&#45;token6</title>
<path fill="none" stroke="black" d="M584.77,-105.62C584.64,-95.03 584.47,-81.5 584.32,-69.8"/>
</g>
<!-- pool4&#45;&#45;token7 -->
<g id="edge14" class="edge">
<title>pool4&#45;&#45;token7</title>
<path fill="none" stroke="black" d="M708,-105.62C708,-95.03 708,-81.5 708,-69.8"/>
</g>
<!-- pool5&#45;&#45;token8 -->
<g id="edge16" class="edge">
<title>pool5&#45;&#45;token8</title>
<path fill="none" stroke="black" d="M830,-105.62C830,-95.03 830,-81.5 830,-69.8"/>
</g>
<!-- pool6&#45;&#45;token9 -->
<g id="edge18" class="edge">
<title>pool6&#45;&#45;token9</title>
<path fill="none" stroke="black" d="M952,-105.62C952,-95.03 952,-81.5 952,-69.8"/>
</g>
<!-- pool7&#45;&#45;token10 -->
<g id="edge20" class="edge">
<title>pool7&#45;&#45;token10</title>
<path fill="none" stroke="black" d="M1074,-105.62C1074,-95.03 1074,-81.5 1074,-69.8"/>
</g>
</g>
</svg>
