<?xml version="1.0" encoding="UTF-8" standalone="no"?>
<!DOCTYPE svg PUBLIC "-//W3C//DTD SVG 1.1//EN"
 "http://www.w3.org/Graphics/SVG/1.1/DTD/svg11.dtd">
<!-- Generated by graphviz version 2.43.0 (0)
 -->
<!-- Title: G Pages: 1 -->
<svg width="909pt" height="348pt"
 viewBox="0.00 0.00 909.00 348.00" xmlns="http://www.w3.org/2000/svg" xmlns:xlink="http://www.w3.org/1999/xlink">
<g id="graph0" class="graph" transform="scale(1 1) rotate(0) translate(4 344)">
<title>G</title>
<polygon fill="white" stroke="transparent" points="-4,4 -4,-344 905,-344 905,4 -4,4"/>
<g id="clust1" class="cluster">
<title>cluster0</title>
<polygon fill="none" stroke="black" stroke-dasharray="1,5" points="70,-152 70,-276 242,-276 242,-152 70,-152"/>
</g>
<g id="clust3" class="cluster">
<title>cluster1</title>
<polygon fill="none" stroke="black" stroke-dasharray="1,5" points="251,-152 251,-276 421,-276 421,-152 251,-152"/>
</g>
<g id="clust5" class="cluster">
<title>cluster2</title>
<polygon fill="none" stroke="black" stroke-dasharray="1,5" points="429,-152 429,-276 893,-276 893,-152 429,-152"/>
</g>
<g id="clust7" class="cluster">
<title>cluster3</title>
<polygon fill="none" stroke="black" stroke-dasharray="1,5" points="8,-8 8,-132 242,-132 242,-8 8,-8"/>
</g>
<g id="clust9" class="cluster">
<title>cluster4</title>
<polygon fill="none" stroke="black" stroke-dasharray="1,5" points="250,-8 250,-132 514,-132 514,-8 250,-8"/>
</g>
<!-- token0 -->
<g id="node1" class="node">
<title>token0</title>
<ellipse fill="none" stroke="black" cx="336" cy="-322" rx="50.89" ry="18"/>
<text text-anchor="middle" x="336" y="-318.3" font-family="Times,serif" font-size="14.00">0: USDC</text>
</g>
<!-- pool0 -->
<g id="node12" class="node">
<title>pool0</title>
<polygon fill="none" stroke="black" stroke-dasharray="5,2" points="233.5,-268 78.5,-268 78.5,-232 233.5,-232 233.5,-268"/>
<text text-anchor="middle" x="156" y="-246.3" font-family="Times,serif" font-size="14.00">UniswapV3 0x8e29</text>
</g>
<!-- token0&#45;&#45;pool0 -->
<g id="edge1" class="edge">
<title>token0&#45;&#45;pool0</title>
<path fill="none" stroke="black" d="M302.99,-308.16C274.06,-296.91 231.79,-280.48 200,-268.11"/>
</g>
<!-- pool1 -->
<g id="node13" class="node">
<title>pool1</title>
<polygon fill="none" stroke="black" stroke-dasharray="5,2" points="413,-268 259,-268 259,-232 413,-232 413,-268"/>
<text text-anchor="middle" x="336" y="-246.3" font-family="Times,serif" font-size="14.00">UniswapV3 0xbe3a</text>
</g>
<!-- token0&#45;&#45;pool1 -->
<g id="edge3" class="edge">
<title>token0&#45;&#45;pool1</title>
<path fill="none" stroke="black" d="M336,-303.7C336,-292.85 336,-278.92 336,-268.1"/>
</g>
<!-- pool2 -->
<g id="node14" class="node">
<title>pool2</title>
<polygon fill="none" stroke="black" stroke-dasharray="5,2" points="742.5,-268 503.5,-268 503.5,-232 742.5,-232 742.5,-268"/>
<text text-anchor="middle" x="623" y="-246.3" font-family="Times,serif" font-size="14.00">GMXV1StableArbitrum 0x489e</text>
</g>
<!-- token0&#45;&#45;pool2 -->
<g id="edge5" class="edge">
<title>token0&#45;&#45;pool2</title>
<path fill="none" stroke="black" d="M376.51,-311.12C422.33,-299.95 497.74,-281.55 553.11,-268.05"/>
</g>
<!-- token1 -->
<g id="node2" class="node">
<title>token1</title>
<ellipse fill="none" stroke="black" cx="155" cy="-178" rx="59.29" ry="18"/>
<text text-anchor="middle" x="155" y="-174.3" font-family="Times,serif" font-size="14.00">1: USDC.e</text>
</g>
<!-- pool3 -->
<g id="node15" class="node">
<title>pool3</title>
<polygon fill="none" stroke="black" stroke-dasharray="5,2" points="233.5,-124 76.5,-124 76.5,-88 233.5,-88 233.5,-124"/>
<text text-anchor="middle" x="155" y="-102.3" font-family="Times,serif" font-size="14.00">DefaultPool 0x9dd3</text>
</g>
<!-- token1&#45;&#45;pool3 -->
<g id="edge13" class="edge">
<title>token1&#45;&#45;pool3</title>
<path fill="none" stroke="black" d="M155,-159.7C155,-148.85 155,-134.92 155,-124.1"/>
</g>
<!-- token2 -->
<g id="node3" class="node">
<title>token2</title>
<ellipse fill="none" stroke="black" cx="336" cy="-178" rx="50.09" ry="18"/>
<text text-anchor="middle" x="336" y="-174.3" font-family="Times,serif" font-size="14.00">2: USDT</text>
</g>
<!-- pool4 -->
<g id="node16" class="node">
<title>pool4</title>
<polygon fill="none" stroke="black" stroke-dasharray="5,2" points="415.5,-124 258.5,-124 258.5,-88 415.5,-88 415.5,-124"/>
<text text-anchor="middle" x="337" y="-102.3" font-family="Times,serif" font-size="14.00">DefaultPool 0x9dd3</text>
</g>
<!-- token2&#45;&#45;pool4 -->
<g id="edge17" class="edge">
<title>token2&#45;&#45;pool4</title>
<path fill="none" stroke="black" d="M336.25,-159.7C336.4,-148.85 336.6,-134.92 336.76,-124.1"/>
</g>
<!-- token3 -->
<g id="node4" class="node">
<title>token3</title>
<ellipse fill="none" stroke="black" cx="496" cy="-178" rx="59.29" ry="18"/>
<text text-anchor="middle" x="496" y="-174.3" font-family="Times,serif" font-size="14.00">3: USDC.e</text>
</g>
<!-- token4 -->
<g id="node5" class="node">
<title>token4</title>
<ellipse fill="none" stroke="black" cx="623" cy="-178" rx="50.09" ry="18"/>
<text text-anchor="middle" x="623" y="-174.3" font-family="Times,serif" font-size="14.00">4: USDT</text>
</g>
<!-- token3&#45;&#45;token4 -->
<!-- token5 -->
<g id="node6" class="node">
<title>token5</title>
<ellipse fill="none" stroke="black" cx="739" cy="-178" rx="48.19" ry="18"/>
<text text-anchor="middle" x="739" y="-174.3" font-family="Times,serif" font-size="14.00">5: FRAX</text>
</g>
<!-- token4&#45;&#45;token5 -->
<!-- token6 -->
<g id="node7" class="node">
<title>token6</title>
<ellipse fill="none" stroke="black" cx="845" cy="-178" rx="39.79" ry="18"/>
<text text-anchor="middle" x="845" y="-174.3" font-family="Times,serif" font-size="14.00">6: DAI</text>
</g>
<!-- token5&#45;&#45;token6 -->
<!-- token7 -->
<g id="node8" class="node">
<title>token7</title>
<ellipse fill="none" stroke="black" cx="66" cy="-34" rx="50.09" ry="18"/>
<text text-anchor="middle" x="66" y="-30.3" font-family="Times,serif" font-size="14.00">7: nUSD</text>
</g>
<!-- token8 -->
<g id="node9" class="node">
<title>token8</title>
<ellipse fill="none" stroke="black" cx="184" cy="-34" rx="50.09" ry="18"/>
<text text-anchor="middle" x="184" y="-30.3" font-family="Times,serif" font-size="14.00">8: USDT</text>
</g>
<!-- token7&#45;&#45;token8 -->
<!-- token9 -->
<g id="node10" class="node">
<title>token9</title>
<ellipse fill="none" stroke="black" cx="308" cy="-34" rx="50.09" ry="18"/>
<text text-anchor="middle" x="308" y="-30.3" font-family="Times,serif" font-size="14.00">9: nUSD</text>
</g>
<!-- token10 -->
<g id="node11" class="node">
<title>token10</title>
<ellipse fill="none" stroke="black" cx="441" cy="-34" rx="64.99" ry="18"/>
<text text-anchor="middle" x="441" y="-30.3" font-family="Times,serif" font-size="14.00">10: USDC.e</text>
</g>
<!-- token9&#45;&#45;token10 -->
<!-- pool0&#45;&#45;token1 -->
<g id="edge2" class="edge">
<title>pool0&#45;&#45;token1</title>
<path fill="none" stroke="black" d="M155.75,-231.7C155.6,-220.85 155.4,-206.92 155.24,-196.1"/>
</g>
<!-- pool1&#45;&#45;token2 -->
<g id="edge4" class="edge">
<title>pool1&#45;&#45;token2</title>
<path fill="none" stroke="black" d="M336,-231.7C336,-220.85 336,-206.92 336,-196.1"/>
</g>
<!-- pool2&#45;&#45;token3 -->
<g id="edge6" class="edge">
<title>pool2&#45;&#45;token3</title>
<path fill="none" stroke="black" d="M591.93,-231.88C570.93,-220.3 543.46,-205.16 523.3,-194.05"/>
</g>
<!-- pool2&#45;&#45;token4 -->
<g id="edge7" class="edge">
<title>pool2&#45;&#45;token4</title>
<path fill="none" stroke="black" d="M623,-231.7C623,-220.85 623,-206.92 623,-196.1"/>
</g>
<!-- pool2&#45;&#45;token5 -->
<g id="edge8" class="edge">
<title>pool2&#45;&#45;token5</title>
<path fill="none" stroke="black" d="M651.38,-231.88C670.83,-220.14 696.36,-204.73 714.84,-193.58"/>
</g>
<!-- pool2&#45;&#45;token6 -->
<g id="edge9" class="edge">
<title>pool2&#45;&#45;token6</title>
<path fill="none" stroke="black" d="M680.44,-231.98C714.19,-221.83 757.63,-208.53 796,-196 802.08,-194.02 808.55,-191.82 814.74,-189.69"/>
</g>
<!-- pool3&#45;&#45;token7 -->
<g id="edge14" class="edge">
<title>pool3&#45;&#45;token7</title>
<path fill="none" stroke="black" d="M133,-87.7C118.59,-76.36 99.9,-61.66 85.92,-50.67"/>
</g>
<!-- pool3&#45;&#45;token8 -->
<g id="edge15" class="edge">
<title>pool3&#45;&#45;token8</title>
<path fill="none" stroke="black" d="M162.17,-87.7C166.66,-76.85 172.43,-62.92 176.91,-52.1"/>
</g>
<!-- pool4&#45;&#45;token9 -->
<g id="edge18" class="edge">
<title>pool4&#45;&#45;token9</title>
<path fill="none" stroke="black" d="M329.83,-87.7C325.34,-76.85 319.57,-62.92 315.09,-52.1"/>
</g>
<!-- pool4&#45;&#45;token10 -->
<g id="edge19" class="edge">
<title>pool4&#45;&#45;token10</title>
<path fill="none" stroke="black" d="M362.44,-87.88C379.16,-76.62 400.88,-62 417.25,-50.99"/>
</g>
</g>
</svg>
