<?xml version="1.0" encoding="UTF-8" standalone="no"?>
<!DOCTYPE svg PUBLIC "-//W3C//DTD SVG 1.1//EN"
 "http://www.w3.org/Graphics/SVG/1.1/DTD/svg11.dtd">
<!-- Generated by graphviz version 2.43.0 (0)
 -->
<!-- Title: G Pages: 1 -->
<svg width="404pt" height="218pt"
 viewBox="0.00 0.00 404.00 218.00" xmlns="http://www.w3.org/2000/svg" xmlns:xlink="http://www.w3.org/1999/xlink">
<g id="graph0" class="graph" transform="scale(1 1) rotate(0) translate(4 214)">
<title>G</title>
<polygon fill="white" stroke="transparent" points="-4,4 -4,-214 400,-214 400,4 -4,4"/>
<g id="clust1" class="cluster">
<title>cluster0</title>
<polygon fill="none" stroke="black" points="131,-91 131,-166 361,-166 361,-91 131,-91"/>
<text text-anchor="middle" x="246" y="-150.8" font-family="Times,serif" font-size="14.00">DefaultPool 0xa196</text>
</g>
<g id="clust3" class="cluster">
<title>cluster1</title>
<polygon fill="none" stroke="black" points="8,-8 8,-83 388,-83 388,-8 8,-8"/>
<text text-anchor="middle" x="198" y="-67.8" font-family="Times,serif" font-size="14.00">DefaultPool 0xed2a</text>
</g>
<!-- token0 -->
<g id="node1" class="node">
<title>token0</title>
<ellipse fill="none" stroke="black" cx="247" cy="-192" rx="50.89" ry="18"/>
<text text-anchor="middle" x="247" y="-188.3" font-family="Times,serif" font-size="14.00">0: USDC</text>
</g>
<!-- token1 -->
<g id="node2" class="node">
<title>token1</title>
<ellipse fill="none" stroke="black" cx="189" cy="-117" rx="50.09" ry="18"/>
<text text-anchor="middle" x="189" y="-113.3" font-family="Times,serif" font-size="14.00">1: nUSD</text>
</g>
<!-- token0&#45;&gt;token1 -->
<g id="edge1" class="edge">
<title>token0&#45;&gt;token1</title>
<path fill="none" stroke="black" d="M233.84,-174.44C226.35,-165.01 216.83,-153.02 208.48,-142.52"/>
<polygon fill="black" stroke="black" points="211.07,-140.15 202.11,-134.5 205.59,-144.51 211.07,-140.15"/>
</g>
<!-- token2 -->
<g id="node3" class="node">
<title>token2</title>
<ellipse fill="none" stroke="black" cx="305" cy="-117" rx="48.19" ry="18"/>
<text text-anchor="middle" x="305" y="-113.3" font-family="Times,serif" font-size="14.00">2: USDt</text>
</g>
<!-- token0&#45;&gt;token2 -->
<g id="edge2" class="edge">
<title>token0&#45;&gt;token2</title>
<path fill="none" stroke="black" d="M260.16,-174.44C267.65,-165.01 277.17,-153.02 285.52,-142.52"/>
<polygon fill="black" stroke="black" points="288.41,-144.51 291.89,-134.5 282.93,-140.15 288.41,-144.51"/>
</g>
<!-- token1&#45;&gt;token2 -->
<!-- token3 -->
<g id="node4" class="node">
<title>token3</title>
<ellipse fill="none" stroke="black" cx="64" cy="-34" rx="48.19" ry="18"/>
<text text-anchor="middle" x="64" y="-30.3" font-family="Times,serif" font-size="14.00">3: DAI.e</text>
</g>
<!-- token1&#45;&gt;token3 -->
<g id="edge4" class="edge">
<title>token1&#45;&gt;token3</title>
<path fill="none" stroke="black" d="M157.66,-102.77C145.82,-97.27 132.45,-90.43 121,-83 109.81,-75.73 98.39,-66.53 88.73,-58.14"/>
<polygon fill="black" stroke="black" points="90.88,-55.36 81.08,-51.33 86.23,-60.59 90.88,-55.36"/>
</g>
<!-- token4 -->
<g id="node5" class="node">
<title>token4</title>
<ellipse fill="none" stroke="black" cx="189" cy="-34" rx="59.29" ry="18"/>
<text text-anchor="middle" x="189" y="-30.3" font-family="Times,serif" font-size="14.00">4: USDC.e</text>
</g>
<!-- token1&#45;&gt;token4 -->
<g id="edge5" class="edge">
<title>token1&#45;&gt;token4</title>
<path fill="none" stroke="black" d="M189,-98.82C189,-88.19 189,-74.31 189,-62.2"/>
<polygon fill="black" stroke="black" points="192.5,-62.15 189,-52.15 185.5,-62.15 192.5,-62.15"/>
</g>
<!-- token5 -->
<g id="node6" class="node">
<title>token5</title>
<ellipse fill="none" stroke="black" cx="323" cy="-34" rx="57.39" ry="18"/>
<text text-anchor="middle" x="323" y="-30.3" font-family="Times,serif" font-size="14.00">5: USDT.e</text>
</g>
<!-- token1&#45;&gt;token5 -->
<g id="edge6" class="edge">
<title>token1&#45;&gt;token5</title>
<path fill="none" stroke="black" d="M219.39,-102.66C231.36,-97.04 245.07,-90.16 257,-83 269.88,-75.28 283.4,-65.72 294.84,-57.17"/>
<polygon fill="black" stroke="black" points="297.28,-59.72 303.12,-50.88 293.04,-54.14 297.28,-59.72"/>
</g>
<!-- token3&#45;&gt;token4 -->
<!-- token4&#45;&gt;token5 -->
</g>
</svg>
