<?xml version="1.0" encoding="UTF-8" standalone="no"?>
<!DOCTYPE svg PUBLIC "-//W3C//DTD SVG 1.1//EN"
 "http://www.w3.org/Graphics/SVG/1.1/DTD/svg11.dtd">
<!-- Generated by graphviz version 2.43.0 (0)
 -->
<!-- Title: G Pages: 1 -->
<svg width="404pt" height="348pt"
 viewBox="0.00 0.00 404.00 348.00" xmlns="http://www.w3.org/2000/svg" xmlns:xlink="http://www.w3.org/1999/xlink">
<g id="graph0" class="graph" transform="scale(1 1) rotate(0) translate(4 344)">
<title>G</title>
<polygon fill="white" stroke="transparent" points="-4,4 -4,-344 400,-344 400,4 -4,4"/>
<g id="clust1" class="cluster">
<title>cluster0</title>
<polygon fill="none" stroke="black" stroke-dasharray="1,5" points="131,-152 131,-276 361,-276 361,-152 131,-152"/>
</g>
<g id="clust3" class="cluster">
<title>cluster1</title>
<polygon fill="none" stroke="black" stroke-dasharray="1,5" points="8,-8 8,-132 388,-132 388,-8 8,-8"/>
</g>
<!-- token0 -->
<g id="node1" class="node">
<title>token0</title>
<ellipse fill="none" stroke="black" cx="246" cy="-322" rx="50.89" ry="18"/>
<text text-anchor="middle" x="246" y="-318.3" font-family="Times,serif" font-size="14.00">0: USDC</text>
</g>
<!-- pool0 -->
<g id="node7" class="node">
<title>pool0</title>
<polygon fill="none" stroke="black" stroke-dasharray="5,2" points="324,-268 168,-268 168,-232 324,-232 324,-268"/>
<text text-anchor="middle" x="246" y="-246.3" font-family="Times,serif" font-size="14.00">DefaultPool 0xa196</text>
</g>
<!-- token0&#45;&#45;pool0 -->
<g id="edge1" class="edge">
<title>token0&#45;&#45;pool0</title>
<path fill="none" stroke="black" d="M246,-303.7C246,-292.85 246,-278.92 246,-268.1"/>
</g>
<!-- token1 -->
<g id="node2" class="node">
<title>token1</title>
<ellipse fill="none" stroke="black" cx="189" cy="-178" rx="50.09" ry="18"/>
<text text-anchor="middle" x="189" y="-174.3" font-family="Times,serif" font-size="14.00">1: nUSD</text>
</g>
<!-- token2 -->
<g id="node3" class="node">
<title>token2</title>
<ellipse fill="none" stroke="black" cx="305" cy="-178" rx="48.19" ry="18"/>
<text text-anchor="middle" x="305" y="-174.3" font-family="Times,serif" font-size="14.00">2: USDt</text>
</g>
<!-- token1&#45;&#45;token2 -->
<!-- pool1 -->
<g id="node8" class="node">
<title>pool1</title>
<polygon fill="none" stroke="black" stroke-dasharray="5,2" points="266.5,-124 111.5,-124 111.5,-88 266.5,-88 266.5,-124"/>
<text text-anchor="middle" x="189" y="-102.3" font-family="Times,serif" font-size="14.00">DefaultPool 0xed2a</text>
</g>
<!-- token1&#45;&#45;pool1 -->
<g id="edge5" class="edge">
<title>token1&#45;&#45;pool1</title>
<path fill="none" stroke="black" d="M189,-159.7C189,-148.85 189,-134.92 189,-124.1"/>
</g>
<!-- token3 -->
<g id="node4" class="node">
<title>token3</title>
<ellipse fill="none" stroke="black" cx="64" cy="-34" rx="48.19" ry="18"/>
<text text-anchor="middle" x="64" y="-30.3" font-family="Times,serif" font-size="14.00">3: DAI.e</text>
</g>
<!-- token4 -->
<g id="node5" class="node">
<title>token4</title>
<ellipse fill="none" stroke="black" cx="189" cy="-34" rx="59.29" ry="18"/>
<text text-anchor="middle" x="189" y="-30.3" font-family="Times,serif" font-size="14.00">4: USDC.e</text>
</g>
<!-- token3&#45;&#45;token4 -->
<!-- token5 -->
<g id="node6" class="node">
<title>token5</title>
<ellipse fill="none" stroke="black" cx="323" cy="-34" rx="57.39" ry="18"/>
<text text-anchor="middle" x="323" y="-30.3" font-family="Times,serif" font-size="14.00">5: USDT.e</text>
</g>
<!-- token4&#45;&#45;token5 -->
<!-- pool0&#45;&#45;token1 -->
<g id="edge2" class="edge">
<title>pool0&#45;&#45;token1</title>
<path fill="none" stroke="black" d="M231.91,-231.7C222.94,-220.68 211.39,-206.5 202.54,-195.62"/>
</g>
<!-- pool0&#45;&#45;token2 -->
<g id="edge3" class="edge">
<title>pool0&#45;&#45;token2</title>
<path fill="none" stroke="black" d="M260.58,-231.7C269.87,-220.68 281.82,-206.5 290.99,-195.62"/>
</g>
<!-- pool1&#45;&#45;token3 -->
<g id="edge6" class="edge">
<title>pool1&#45;&#45;token3</title>
<path fill="none" stroke="black" d="M158.42,-87.88C137.32,-76.06 109.57,-60.52 89.63,-49.35"/>
</g>
<!-- pool1&#45;&#45;token4 -->
<g id="edge7" class="edge">
<title>pool1&#45;&#45;token4</title>
<path fill="none" stroke="black" d="M189,-87.7C189,-76.85 189,-62.92 189,-52.1"/>
</g>
<!-- pool1&#45;&#45;token5 -->
<g id="edge8" class="edge">
<title>pool1&#45;&#45;token5</title>
<path fill="none" stroke="black" d="M221.78,-87.88C244.09,-76.22 273.33,-60.95 294.64,-49.81"/>
</g>
</g>
</svg>
