<?xml version="1.0" encoding="UTF-8" standalone="no"?>
<!DOCTYPE svg PUBLIC "-//W3C//DTD SVG 1.1//EN"
 "http://www.w3.org/Graphics/SVG/1.1/DTD/svg11.dtd">
<!-- Generated by graphviz version 2.43.0 (0)
 -->
<!-- Title: G Pages: 1 -->
<svg width="934pt" height="348pt"
 viewBox="0.00 0.00 934.00 348.00" xmlns="http://www.w3.org/2000/svg" xmlns:xlink="http://www.w3.org/1999/xlink">
<g id="graph0" class="graph" transform="scale(1 1) rotate(0) translate(4 344)">
<title>G</title>
<polygon fill="white" stroke="transparent" points="-4,4 -4,-344 930,-344 930,4 -4,4"/>
<g id="clust1" class="cluster">
<title>cluster0</title>
<polygon fill="none" stroke="black" stroke-dasharray="1,5" points="131,-152 131,-276 361,-276 361,-152 131,-152"/>
</g>
<g id="clust3" class="cluster">
<title>cluster1</title>
<polygon fill="none" stroke="black" stroke-dasharray="1,5" points="8,-8 8,-132 388,-132 388,-8 8,-8"/>
</g>
<g id="clust5" class="cluster">
<title>cluster2</title>
<polygon fill="none" stroke="black" stroke-dasharray="1,5" points="369,-152 369,-276 579,-276 579,-152 369,-152"/>
</g>
<g id="clust7" class="cluster">
<title>cluster3</title>
<polygon fill="none" stroke="black" stroke-dasharray="1,5" points="587,-152 587,-276 849,-276 849,-152 587,-152"/>
</g>
<g id="clust9" class="cluster">
<title>cluster4</title>
<polygon fill="none" stroke="black" stroke-dasharray="1,5" points="544,-8 544,-132 918,-132 918,-8 544,-8"/>
</g>
<!-- token0 -->
<g id="node1" class="node">
<title>token0</title>
<ellipse fill="none" stroke="black" cx="474" cy="-322" rx="50.89" ry="18"/>
<text text-anchor="middle" x="474" y="-318.3" font-family="Times,serif" font-size="14.00">0: USDC</text>
</g>
<!-- pool0 -->
<g id="node12" class="node">
<title>pool0</title>
<polygon fill="none" stroke="black" stroke-dasharray="5,2" points="353,-268 197,-268 197,-232 353,-232 353,-268"/>
<text text-anchor="middle" x="275" y="-246.3" font-family="Times,serif" font-size="14.00">DefaultPool 0xa196</text>
</g>
<!-- token0&#45;&#45;pool0 -->
<g id="edge1" class="edge">
<title>token0&#45;&#45;pool0</title>
<path fill="none" stroke="black" d="M439.34,-308.81C407.27,-297.53 359.28,-280.65 323.43,-268.03"/>
</g>
<!-- pool2 -->
<g id="node14" class="node">
<title>pool2</title>
<polygon fill="none" stroke="black" stroke-dasharray="5,2" points="571,-268 377,-268 377,-232 571,-232 571,-268"/>
<text text-anchor="middle" x="474" y="-246.3" font-family="Times,serif" font-size="14.00">UniswapV3SR02 0x8042</text>
</g>
<!-- token0&#45;&#45;pool2 -->
<g id="edge11" class="edge">
<title>token0&#45;&#45;pool2</title>
<path fill="none" stroke="black" d="M474,-303.7C474,-292.85 474,-278.92 474,-268.1"/>
</g>
<!-- pool3 -->
<g id="node15" class="node">
<title>pool3</title>
<polygon fill="none" stroke="black" stroke-dasharray="5,2" points="841,-268 595,-268 595,-232 841,-232 841,-268"/>
<text text-anchor="middle" x="718" y="-246.3" font-family="Times,serif" font-size="14.00">GMXV1StableAvalanche 0x9ab2</text>
</g>
<!-- token0&#45;&#45;pool3 -->
<g id="edge13" class="edge">
<title>token0&#45;&#45;pool3</title>
<path fill="none" stroke="black" d="M512.12,-310.06C551.26,-298.83 612.72,-281.2 658.31,-268.12"/>
</g>
<!-- token1 -->
<g id="node2" class="node">
<title>token1</title>
<ellipse fill="none" stroke="black" cx="189" cy="-178" rx="50.09" ry="18"/>
<text text-anchor="middle" x="189" y="-174.3" font-family="Times,serif" font-size="14.00">1: nUSD</text>
</g>
<!-- token2 -->
<g id="node3" class="node">
<title>token2</title>
<ellipse fill="none" stroke="black" cx="305" cy="-178" rx="48.19" ry="18"/>
<text text-anchor="middle" x="305" y="-174.3" font-family="Times,serif" font-size="14.00">2: USDt</text>
</g>
<!-- token1&#45;&#45;token2 -->
<!-- pool1 -->
<g id="node13" class="node">
<title>pool1</title>
<polygon fill="none" stroke="black" stroke-dasharray="5,2" points="266.5,-124 111.5,-124 111.5,-88 266.5,-88 266.5,-124"/>
<text text-anchor="middle" x="189" y="-102.3" font-family="Times,serif" font-size="14.00">DefaultPool 0xed2a</text>
</g>
<!-- token1&#45;&#45;pool1 -->
<g id="edge5" class="edge">
<title>token1&#45;&#45;pool1</title>
<path fill="none" stroke="black" d="M189,-159.7C189,-148.85 189,-134.92 189,-124.1"/>
</g>
<!-- token3 -->
<g id="node4" class="node">
<title>token3</title>
<ellipse fill="none" stroke="black" cx="64" cy="-34" rx="48.19" ry="18"/>
<text text-anchor="middle" x="64" y="-30.3" font-family="Times,serif" font-size="14.00">3: DAI.e</text>
</g>
<!-- token4 -->
<g id="node5" class="node">
<title>token4</title>
<ellipse fill="none" stroke="black" cx="189" cy="-34" rx="59.29" ry="18"/>
<text text-anchor="middle" x="189" y="-30.3" font-family="Times,serif" font-size="14.00">4: USDC.e</text>
</g>
<!-- token3&#45;&#45;token4 -->
<!-- token5 -->
<g id="node6" class="node">
<title>token5</title>
<ellipse fill="none" stroke="black" cx="323" cy="-34" rx="57.39" ry="18"/>
<text text-anchor="middle" x="323" y="-30.3" font-family="Times,serif" font-size="14.00">5: USDT.e</text>
</g>
<!-- token4&#45;&#45;token5 -->
<!-- token6 -->
<g id="node7" class="node">
<title>token6</title>
<ellipse fill="none" stroke="black" cx="474" cy="-178" rx="48.19" ry="18"/>
<text text-anchor="middle" x="474" y="-174.3" font-family="Times,serif" font-size="14.00">6: USDt</text>
</g>
<!-- token7 -->
<g id="node8" class="node">
<title>token7</title>
<ellipse fill="none" stroke="black" cx="718" cy="-178" rx="59.29" ry="18"/>
<text text-anchor="middle" x="718" y="-174.3" font-family="Times,serif" font-size="14.00">7: USDC.e</text>
</g>
<!-- pool4 -->
<g id="node16" class="node">
<title>pool4</title>
<polygon fill="none" stroke="black" stroke-dasharray="5,2" points="795.5,-124 640.5,-124 640.5,-88 795.5,-88 795.5,-124"/>
<text text-anchor="middle" x="718" y="-102.3" font-family="Times,serif" font-size="14.00">DefaultPool 0xed2a</text>
</g>
<!-- token7&#45;&#45;pool4 -->
<g id="edge15" class="edge">
<title>token7&#45;&#45;pool4</title>
<path fill="none" stroke="black" d="M718,-159.7C718,-148.85 718,-134.92 718,-124.1"/>
</g>
<!-- token8 -->
<g id="node9" class="node">
<title>token8</title>
<ellipse fill="none" stroke="black" cx="602" cy="-34" rx="50.09" ry="18"/>
<text text-anchor="middle" x="602" y="-30.3" font-family="Times,serif" font-size="14.00">8: nUSD</text>
</g>
<!-- token9 -->
<g id="node10" class="node">
<title>token9</title>
<ellipse fill="none" stroke="black" cx="718" cy="-34" rx="48.19" ry="18"/>
<text text-anchor="middle" x="718" y="-30.3" font-family="Times,serif" font-size="14.00">9: DAI.e</text>
</g>
<!-- token8&#45;&#45;token9 -->
<!-- token10 -->
<g id="node11" class="node">
<title>token10</title>
<ellipse fill="none" stroke="black" cx="847" cy="-34" rx="63.09" ry="18"/>
<text text-anchor="middle" x="847" y="-30.3" font-family="Times,serif" font-size="14.00">10: USDT.e</text>
</g>
<!-- token9&#45;&#45;token10 -->
<!-- pool0&#45;&#45;token1 -->
<g id="edge2" class="edge">
<title>pool0&#45;&#45;token1</title>
<path fill="none" stroke="black" d="M253.74,-231.7C239.81,-220.36 221.76,-205.66 208.25,-194.67"/>
</g>
<!-- pool0&#45;&#45;token2 -->
<g id="edge3" class="edge">
<title>pool0&#45;&#45;token2</title>
<path fill="none" stroke="black" d="M282.42,-231.7C287.07,-220.85 293.04,-206.92 297.67,-196.1"/>
</g>
<!-- pool1&#45;&#45;token3 -->
<g id="edge6" class="edge">
<title>pool1&#45;&#45;token3</title>
<path fill="none" stroke="black" d="M158.42,-87.88C137.32,-76.06 109.57,-60.52 89.63,-49.35"/>
</g>
<!-- pool1&#45;&#45;token4 -->
<g id="edge7" class="edge">
<title>pool1&#45;&#45;token4</title>
<path fill="none" stroke="black" d="M189,-87.7C189,-76.85 189,-62.92 189,-52.1"/>
</g>
<!-- pool1&#45;&#45;token5 -->
<g id="edge8" class="edge">
<title>pool1&#45;&#45;token5</title>
<path fill="none" stroke="black" d="M221.78,-87.88C244.09,-76.22 273.33,-60.95 294.64,-49.81"/>
</g>
<!-- pool2&#45;&#45;token6 -->
<g id="edge12" class="edge">
<title>pool2&#45;&#45;token6</title>
<path fill="none" stroke="black" d="M474,-231.7C474,-220.85 474,-206.92 474,-196.1"/>
</g>
<!-- pool3&#45;&#45;token7 -->
<g id="edge14" class="edge">
<title>pool3&#45;&#45;token7</title>
<path fill="none" stroke="black" d="M718,-231.7C718,-220.85 718,-206.92 718,-196.1"/>
</g>
<!-- pool4&#45;&#45;token8 -->
<g id="edge16" class="edge">
<title>pool4&#45;&#45;token8</title>
<path fill="none" stroke="black" d="M689.62,-87.88C670.31,-76.22 645,-60.95 626.55,-49.81"/>
</g>
<!-- pool4&#45;&#45;token9 -->
<g id="edge17" class="edge">
<title>pool4&#45;&#45;token9</title>
<path fill="none" stroke="black" d="M718,-87.7C718,-76.85 718,-62.92 718,-52.1"/>
</g>
<!-- pool4&#45;&#45;token10 -->
<g id="edge18" class="edge">
<title>pool4&#45;&#45;token10</title>
<path fill="none" stroke="black" d="M749.56,-87.88C770.74,-76.38 798.4,-61.37 818.84,-50.28"/>
</g>
</g>
</svg>
