<?xml version="1.0" encoding="UTF-8" standalone="no"?>
<!DOCTYPE svg PUBLIC "-//W3C//DTD SVG 1.1//EN"
 "http://www.w3.org/Graphics/SVG/1.1/DTD/svg11.dtd">
<!-- Generated by graphviz version 2.43.0 (0)
 -->
<!-- Title: G Pages: 1 -->
<svg width="1082pt" height="405pt"
 viewBox="0.00 0.00 1082.00 405.22" xmlns="http://www.w3.org/2000/svg" xmlns:xlink="http://www.w3.org/1999/xlink">
<g id="graph0" class="graph" transform="scale(1 1) rotate(0) translate(4 401.22)">
<title>G</title>
<polygon fill="white" stroke="transparent" points="-4,4 -4,-401.22 1078,-401.22 1078,4 -4,4"/>
<g id="clust1" class="cluster">
<title>cluster0</title>
<polygon fill="none" stroke="black" stroke-dasharray="1,5" points="115,-171.74 115,-315.48 312,-315.48 312,-171.74 115,-171.74"/>
</g>
<g id="clust3" class="cluster">
<title>cluster1</title>
<polygon fill="none" stroke="black" stroke-dasharray="1,5" points="8,-8 8,-151.74 341,-151.74 341,-8 8,-8"/>
</g>
<g id="clust5" class="cluster">
<title>cluster2</title>
<polygon fill="none" stroke="black" stroke-dasharray="1,5" points="320,-171.74 320,-315.48 472,-315.48 472,-171.74 320,-171.74"/>
</g>
<g id="clust7" class="cluster">
<title>cluster3</title>
<polygon fill="none" stroke="black" stroke-dasharray="1,5" points="480,-171.74 480,-315.48 686,-315.48 686,-171.74 480,-171.74"/>
</g>
<g id="clust9" class="cluster">
<title>cluster4</title>
<polygon fill="none" stroke="black" stroke-dasharray="1,5" points="432,-8 432,-151.74 745,-151.74 745,-8 432,-8"/>
</g>
<g id="clust11" class="cluster">
<title>cluster5</title>
<polygon fill="none" stroke="black" stroke-dasharray="1,5" points="694,-171.74 694,-315.48 824,-315.48 824,-171.74 694,-171.74"/>
</g>
<g id="clust13" class="cluster">
<title>cluster6</title>
<polygon fill="none" stroke="black" stroke-dasharray="1,5" points="834,-171.74 834,-315.48 964,-315.48 964,-171.74 834,-171.74"/>
</g>
<g id="clust15" class="cluster">
<title>cluster7</title>
<polygon fill="none" stroke="black" stroke-dasharray="1,5" points="753,-8 753,-151.74 1066,-151.74 1066,-8 753,-8"/>
</g>
<!-- token0 -->
<g id="node1" class="node">
<title>token0</title>
<ellipse fill="none" stroke="black" cx="583" cy="-370.35" rx="42.35" ry="26.74"/>
<text text-anchor="middle" x="583" y="-374.15" font-family="Times,serif" font-size="14.00">USDC</text>
<text text-anchor="middle" x="583" y="-359.15" font-family="Times,serif" font-size="14.00">0</text>
</g>
<!-- pool0 -->
<g id="node17" class="node">
<title>pool0</title>
<polygon fill="none" stroke="black" stroke-dasharray="5,2" points="303.5,-307.48 204.5,-307.48 204.5,-269.48 303.5,-269.48 303.5,-307.48"/>
<text text-anchor="middle" x="254" y="-292.28" font-family="Times,serif" font-size="14.00">DefaultPool</text>
<text text-anchor="middle" x="254" y="-277.28" font-family="Times,serif" font-size="14.00">0xa196</text>
</g>
<!-- token0&#45;&#45;pool0 -->
<g id="edge1" class="edge">
<title>token0&#45;&#45;pool0</title>
<path fill="none" stroke="black" d="M541.66,-363.61C488.64,-355.66 394.2,-339.51 316,-315.48 308.75,-313.25 301.18,-310.48 293.93,-307.58"/>
</g>
<!-- pool2 -->
<g id="node19" class="node">
<title>pool2</title>
<polygon fill="none" stroke="black" stroke-dasharray="5,2" points="464,-307.48 328,-307.48 328,-269.48 464,-269.48 464,-307.48"/>
<text text-anchor="middle" x="396" y="-292.28" font-family="Times,serif" font-size="14.00">UniswapV3SR02</text>
<text text-anchor="middle" x="396" y="-277.28" font-family="Times,serif" font-size="14.00">0x8042</text>
</g>
<!-- token0&#45;&#45;pool2 -->
<g id="edge11" class="edge">
<title>token0&#45;&#45;pool2</title>
<path fill="none" stroke="black" d="M548.26,-354.51C517.21,-341.25 471.62,-321.78 438.42,-307.6"/>
</g>
<!-- pool3 -->
<g id="node20" class="node">
<title>pool3</title>
<polygon fill="none" stroke="black" stroke-dasharray="5,2" points="677.5,-307.48 488.5,-307.48 488.5,-269.48 677.5,-269.48 677.5,-307.48"/>
<text text-anchor="middle" x="583" y="-292.28" font-family="Times,serif" font-size="14.00">GMXV1StableAvalanche</text>
<text text-anchor="middle" x="583" y="-277.28" font-family="Times,serif" font-size="14.00">0x9ab2</text>
</g>
<!-- token0&#45;&#45;pool3 -->
<g id="edge13" class="edge">
<title>token0&#45;&#45;pool3</title>
<path fill="none" stroke="black" d="M583,-343.2C583,-331.55 583,-318.12 583,-307.6"/>
</g>
<!-- pool5 -->
<g id="node22" class="node">
<title>pool5</title>
<polygon fill="none" stroke="black" stroke-dasharray="5,2" points="816,-307.48 702,-307.48 702,-269.48 816,-269.48 816,-307.48"/>
<text text-anchor="middle" x="759" y="-292.28" font-family="Times,serif" font-size="14.00">TraderJoeV21</text>
<text text-anchor="middle" x="759" y="-277.28" font-family="Times,serif" font-size="14.00">0x9b2c</text>
</g>
<!-- token0&#45;&#45;pool5 -->
<g id="edge21" class="edge">
<title>token0&#45;&#45;pool5</title>
<path fill="none" stroke="black" d="M616.93,-353.95C646.2,-340.67 688.5,-321.48 719.32,-307.49"/>
</g>
<!-- pool6 -->
<g id="node23" class="node">
<title>pool6</title>
<polygon fill="none" stroke="black" stroke-dasharray="5,2" points="956,-307.48 842,-307.48 842,-269.48 956,-269.48 956,-307.48"/>
<text text-anchor="middle" x="899" y="-292.28" font-family="Times,serif" font-size="14.00">TraderJoeV21</text>
<text text-anchor="middle" x="899" y="-277.28" font-family="Times,serif" font-size="14.00">0x7c13</text>
</g>
<!-- token0&#45;&#45;pool6 -->
<g id="edge23" class="edge">
<title>token0&#45;&#45;pool6</title>
<path fill="none" stroke="black" d="M623.74,-362.13C672.7,-353.06 757.13,-336.15 828,-315.48 835.94,-313.17 844.27,-310.41 852.32,-307.58"/>
</g>
<!-- token1 -->
<g id="node2" class="node">
<title>token1</title>
<ellipse fill="none" stroke="black" cx="165" cy="-206.61" rx="41.94" ry="26.74"/>
<text text-anchor="middle" x="165" y="-210.41" font-family="Times,serif" font-size="14.00">nUSD</text>
<text text-anchor="middle" x="165" y="-195.41" font-family="Times,serif" font-size="14.00">1</text>
</g>
<!-- token2 -->
<g id="node3" class="node">
<title>token2</title>
<ellipse fill="none" stroke="black" cx="264" cy="-206.61" rx="39.7" ry="26.74"/>
<text text-anchor="middle" x="264" y="-210.41" font-family="Times,serif" font-size="14.00">USDt</text>
<text text-anchor="middle" x="264" y="-195.41" font-family="Times,serif" font-size="14.00">2</text>
</g>
<!-- token1&#45;&#45;token2 -->
<!-- pool1 -->
<g id="node18" class="node">
<title>pool1</title>
<polygon fill="none" stroke="black" stroke-dasharray="5,2" points="214.5,-143.74 115.5,-143.74 115.5,-105.74 214.5,-105.74 214.5,-143.74"/>
<text text-anchor="middle" x="165" y="-128.54" font-family="Times,serif" font-size="14.00">DefaultPool</text>
<text text-anchor="middle" x="165" y="-113.54" font-family="Times,serif" font-size="14.00">0xed2a</text>
</g>
<!-- token1&#45;&#45;pool1 -->
<g id="edge5" class="edge">
<title>token1&#45;&#45;pool1</title>
<path fill="none" stroke="black" d="M165,-179.46C165,-167.81 165,-154.38 165,-143.86"/>
</g>
<!-- token3 -->
<g id="node4" class="node">
<title>token3</title>
<ellipse fill="none" stroke="black" cx="56" cy="-42.87" rx="39.7" ry="26.74"/>
<text text-anchor="middle" x="56" y="-46.67" font-family="Times,serif" font-size="14.00">DAI.e</text>
<text text-anchor="middle" x="56" y="-31.67" font-family="Times,serif" font-size="14.00">3</text>
</g>
<!-- token4 -->
<g id="node5" class="node">
<title>token4</title>
<ellipse fill="none" stroke="black" cx="165" cy="-42.87" rx="51.74" ry="26.74"/>
<text text-anchor="middle" x="165" y="-46.67" font-family="Times,serif" font-size="14.00">USDC.e</text>
<text text-anchor="middle" x="165" y="-31.67" font-family="Times,serif" font-size="14.00">4</text>
</g>
<!-- token3&#45;&#45;token4 -->
<!-- token5 -->
<g id="node6" class="node">
<title>token5</title>
<ellipse fill="none" stroke="black" cx="284" cy="-42.87" rx="49.49" ry="26.74"/>
<text text-anchor="middle" x="284" y="-46.67" font-family="Times,serif" font-size="14.00">USDT.e</text>
<text text-anchor="middle" x="284" y="-31.67" font-family="Times,serif" font-size="14.00">5</text>
</g>
<!-- token4&#45;&#45;token5 -->
<!-- token6 -->
<g id="node7" class="node">
<title>token6</title>
<ellipse fill="none" stroke="black" cx="396" cy="-206.61" rx="39.7" ry="26.74"/>
<text text-anchor="middle" x="396" y="-210.41" font-family="Times,serif" font-size="14.00">USDt</text>
<text text-anchor="middle" x="396" y="-195.41" font-family="Times,serif" font-size="14.00">6</text>
</g>
<!-- token7 -->
<g id="node8" class="node">
<title>token7</title>
<ellipse fill="none" stroke="black" cx="582" cy="-206.61" rx="51.74" ry="26.74"/>
<text text-anchor="middle" x="582" y="-210.41" font-family="Times,serif" font-size="14.00">USDC.e</text>
<text text-anchor="middle" x="582" y="-195.41" font-family="Times,serif" font-size="14.00">7</text>
</g>
<!-- pool4 -->
<g id="node21" class="node">
<title>pool4</title>
<polygon fill="none" stroke="black" stroke-dasharray="5,2" points="630.5,-143.74 531.5,-143.74 531.5,-105.74 630.5,-105.74 630.5,-143.74"/>
<text text-anchor="middle" x="581" y="-128.54" font-family="Times,serif" font-size="14.00">DefaultPool</text>
<text text-anchor="middle" x="581" y="-113.54" font-family="Times,serif" font-size="14.00">0xed2a</text>
</g>
<!-- token7&#45;&#45;pool4 -->
<g id="edge15" class="edge">
<title>token7&#45;&#45;pool4</title>
<path fill="none" stroke="black" d="M581.67,-179.46C581.53,-167.81 581.36,-154.38 581.23,-143.86"/>
</g>
<!-- token8 -->
<g id="node9" class="node">
<title>token8</title>
<ellipse fill="none" stroke="black" cx="482" cy="-42.87" rx="41.94" ry="26.74"/>
<text text-anchor="middle" x="482" y="-46.67" font-family="Times,serif" font-size="14.00">nUSD</text>
<text text-anchor="middle" x="482" y="-31.67" font-family="Times,serif" font-size="14.00">8</text>
</g>
<!-- token9 -->
<g id="node10" class="node">
<title>token9</title>
<ellipse fill="none" stroke="black" cx="581" cy="-42.87" rx="39.7" ry="26.74"/>
<text text-anchor="middle" x="581" y="-46.67" font-family="Times,serif" font-size="14.00">DAI.e</text>
<text text-anchor="middle" x="581" y="-31.67" font-family="Times,serif" font-size="14.00">9</text>
</g>
<!-- token8&#45;&#45;token9 -->
<!-- token10 -->
<g id="node11" class="node">
<title>token10</title>
<ellipse fill="none" stroke="black" cx="688" cy="-42.87" rx="49.49" ry="26.74"/>
<text text-anchor="middle" x="688" y="-46.67" font-family="Times,serif" font-size="14.00">USDT.e</text>
<text text-anchor="middle" x="688" y="-31.67" font-family="Times,serif" font-size="14.00">10</text>
</g>
<!-- token9&#45;&#45;token10 -->
<!-- token11 -->
<g id="node12" class="node">
<title>token11</title>
<ellipse fill="none" stroke="black" cx="759" cy="-206.61" rx="39.7" ry="26.74"/>
<text text-anchor="middle" x="759" y="-210.41" font-family="Times,serif" font-size="14.00">USDt</text>
<text text-anchor="middle" x="759" y="-195.41" font-family="Times,serif" font-size="14.00">11</text>
</g>
<!-- token12 -->
<g id="node13" class="node">
<title>token12</title>
<ellipse fill="none" stroke="black" cx="899" cy="-206.61" rx="51.74" ry="26.74"/>
<text text-anchor="middle" x="899" y="-210.41" font-family="Times,serif" font-size="14.00">USDC.e</text>
<text text-anchor="middle" x="899" y="-195.41" font-family="Times,serif" font-size="14.00">12</text>
</g>
<!-- pool7 -->
<g id="node24" class="node">
<title>pool7</title>
<polygon fill="none" stroke="black" stroke-dasharray="5,2" points="948.5,-143.74 849.5,-143.74 849.5,-105.74 948.5,-105.74 948.5,-143.74"/>
<text text-anchor="middle" x="899" y="-128.54" font-family="Times,serif" font-size="14.00">DefaultPool</text>
<text text-anchor="middle" x="899" y="-113.54" font-family="Times,serif" font-size="14.00">0xed2a</text>
</g>
<!-- token12&#45;&#45;pool7 -->
<g id="edge25" class="edge">
<title>token12&#45;&#45;pool7</title>
<path fill="none" stroke="black" d="M899,-179.46C899,-167.81 899,-154.38 899,-143.86"/>
</g>
<!-- token13 -->
<g id="node14" class="node">
<title>token13</title>
<ellipse fill="none" stroke="black" cx="803" cy="-42.87" rx="41.94" ry="26.74"/>
<text text-anchor="middle" x="803" y="-46.67" font-family="Times,serif" font-size="14.00">nUSD</text>
<text text-anchor="middle" x="803" y="-31.67" font-family="Times,serif" font-size="14.00">13</text>
</g>
<!-- token14 -->
<g id="node15" class="node">
<title>token14</title>
<ellipse fill="none" stroke="black" cx="902" cy="-42.87" rx="39.7" ry="26.74"/>
<text text-anchor="middle" x="902" y="-46.67" font-family="Times,serif" font-size="14.00">DAI.e</text>
<text text-anchor="middle" x="902" y="-31.67" font-family="Times,serif" font-size="14.00">14</text>
</g>
<!-- token13&#45;&#45;token14 -->
<!-- token15 -->
<g id="node16" class="node">
<title>token15</title>
<ellipse fill="none" stroke="black" cx="1009" cy="-42.87" rx="49.49" ry="26.74"/>
<text text-anchor="middle" x="1009" y="-46.67" font-family="Times,serif" font-size="14.00">USDT.e</text>
<text text-anchor="middle" x="1009" y="-31.67" font-family="Times,serif" font-size="14.00">15</text>
</g>
<!-- token14&#45;&#45;token15 -->
<!-- pool0&#45;&#45;token1 -->
<g id="edge2" class="edge">
<title>pool0&#45;&#45;token1</title>
<path fill="none" stroke="black" d="M233.8,-269.36C220.47,-257.39 202.94,-241.65 188.91,-229.06"/>
</g>
<!-- pool0&#45;&#45;token2 -->
<g id="edge3" class="edge">
<title>pool0&#45;&#45;token2</title>
<path fill="none" stroke="black" d="M256.27,-269.36C257.59,-258.77 259.29,-245.24 260.75,-233.54"/>
</g>
<!-- pool1&#45;&#45;token3 -->
<g id="edge6" class="edge">
<title>pool1&#45;&#45;token3</title>
<path fill="none" stroke="black" d="M140.27,-105.62C123.06,-93.01 100.13,-76.21 82.54,-63.32"/>
</g>
<!-- pool1&#45;&#45;token4 -->
<g id="edge7" class="edge">
<title>pool1&#45;&#45;token4</title>
<path fill="none" stroke="black" d="M165,-105.62C165,-95.03 165,-81.5 165,-69.8"/>
</g>
<!-- pool1&#45;&#45;token5 -->
<g id="edge8" class="edge">
<title>pool1&#45;&#45;token5</title>
<path fill="none" stroke="black" d="M192,-105.62C210.38,-93.28 234.73,-76.94 253.75,-64.17"/>
</g>
<!-- pool2&#45;&#45;token6 -->
<g id="edge12" class="edge">
<title>pool2&#45;&#45;token6</title>
<path fill="none" stroke="black" d="M396,-269.36C396,-258.77 396,-245.24 396,-233.54"/>
</g>
<!-- pool3&#45;&#45;token7 -->
<g id="edge14" class="edge">
<title>pool3&#45;&#45;token7</title>
<path fill="none" stroke="black" d="M582.77,-269.36C582.64,-258.77 582.47,-245.24 582.32,-233.54"/>
</g>
<!-- pool4&#45;&#45;token8 -->
<g id="edge16" class="edge">
<title>pool4&#45;&#45;token8</title>
<path fill="none" stroke="black" d="M558.54,-105.62C543.36,-93.37 523.3,-77.19 507.52,-64.46"/>
</g>
<!-- pool4&#45;&#45;token9 -->
<g id="edge17" class="edge">
<title>pool4&#45;&#45;token9</title>
<path fill="none" stroke="black" d="M581,-105.62C581,-95.03 581,-81.5 581,-69.8"/>
</g>
<!-- pool4&#45;&#45;token10 -->
<g id="edge18" class="edge">
<title>pool4&#45;&#45;token10</title>
<path fill="none" stroke="black" d="M605.28,-105.62C621.43,-93.56 642.72,-77.67 659.65,-65.03"/>
</g>
<!-- pool5&#45;&#45;token11 -->
<g id="edge22" class="edge">
<title>pool5&#45;&#45;token11</title>
<path fill="none" stroke="black" d="M759,-269.36C759,-258.77 759,-245.24 759,-233.54"/>
</g>
<!-- pool6&#45;&#45;token12 -->
<g id="edge24" class="edge">
<title>pool6&#45;&#45;token12</title>
<path fill="none" stroke="black" d="M899,-269.36C899,-258.77 899,-245.24 899,-233.54"/>
</g>
<!-- pool7&#45;&#45;token13 -->
<g id="edge26" class="edge">
<title>pool7&#45;&#45;token13</title>
<path fill="none" stroke="black" d="M877.22,-105.62C862.61,-93.47 843.34,-77.43 828.09,-64.74"/>
</g>
<!-- pool7&#45;&#45;token14 -->
<g id="edge27" class="edge">
<title>pool7&#45;&#45;token14</title>
<path fill="none" stroke="black" d="M899.68,-105.62C900.08,-95.03 900.59,-81.5 901.03,-69.8"/>
</g>
<!-- pool7&#45;&#45;token15 -->
<g id="edge28" class="edge">
<title>pool7&#45;&#45;token15</title>
<path fill="none" stroke="black" d="M923.96,-105.62C940.7,-93.47 962.78,-77.43 980.25,-64.74"/>
</g>
</g>
</svg>
