<?xml version="1.0" encoding="UTF-8" standalone="no"?>
<!DOCTYPE svg PUBLIC "-//W3C//DTD SVG 1.1//EN"
 "http://www.w3.org/Graphics/SVG/1.1/DTD/svg11.dtd">
<!-- Generated by graphviz version 2.43.0 (0)
 -->
<!-- Title: G Pages: 1 -->
<svg width="563pt" height="241pt"
 viewBox="0.00 0.00 563.00 241.48" xmlns="http://www.w3.org/2000/svg" xmlns:xlink="http://www.w3.org/1999/xlink">
<g id="graph0" class="graph" transform="scale(1 1) rotate(0) translate(4 237.48)">
<title>G</title>
<polygon fill="white" stroke="transparent" points="-4,4 -4,-237.48 559,-237.48 559,4 -4,4"/>
<g id="clust1" class="cluster">
<title>cluster0</title>
<polygon fill="none" stroke="black" stroke-dasharray="1,5" points="8,-8 8,-151.74 341,-151.74 341,-8 8,-8"/>
</g>
<g id="clust3" class="cluster">
<title>cluster1</title>
<polygon fill="none" stroke="black" stroke-dasharray="1,5" points="349,-8 349,-151.74 547,-151.74 547,-8 349,-8"/>
</g>
<!-- token0 -->
<g id="node1" class="node">
<title>token0</title>
<ellipse fill="none" stroke="black" cx="345" cy="-206.61" rx="41.94" ry="26.74"/>
<text text-anchor="middle" x="345" y="-210.41" font-family="Times,serif" font-size="14.00">nUSD</text>
<text text-anchor="middle" x="345" y="-195.41" font-family="Times,serif" font-size="14.00">0</text>
</g>
<!-- pool0 -->
<g id="node7" class="node">
<title>pool0</title>
<polygon fill="none" stroke="black" stroke-dasharray="5,2" points="273.5,-143.74 174.5,-143.74 174.5,-105.74 273.5,-105.74 273.5,-143.74"/>
<text text-anchor="middle" x="224" y="-128.54" font-family="Times,serif" font-size="14.00">DefaultPool</text>
<text text-anchor="middle" x="224" y="-113.54" font-family="Times,serif" font-size="14.00">0xed2a</text>
</g>
<!-- token0&#45;&#45;pool0 -->
<g id="edge1" class="edge">
<title>token0&#45;&#45;pool0</title>
<path fill="none" stroke="black" d="M316.63,-186.88C296.93,-173.88 270.83,-156.65 251.36,-143.8"/>
</g>
<!-- pool1 -->
<g id="node8" class="node">
<title>pool1</title>
<polygon fill="none" stroke="black" stroke-dasharray="5,2" points="456.5,-143.74 357.5,-143.74 357.5,-105.74 456.5,-105.74 456.5,-143.74"/>
<text text-anchor="middle" x="407" y="-128.54" font-family="Times,serif" font-size="14.00">DefaultPool</text>
<text text-anchor="middle" x="407" y="-113.54" font-family="Times,serif" font-size="14.00">0xa196</text>
</g>
<!-- token0&#45;&#45;pool1 -->
<g id="edge7" class="edge">
<title>token0&#45;&#45;pool1</title>
<path fill="none" stroke="black" d="M363.27,-182.08C372.77,-169.84 384.2,-155.11 392.99,-143.78"/>
</g>
<!-- token1 -->
<g id="node2" class="node">
<title>token1</title>
<ellipse fill="none" stroke="black" cx="56" cy="-42.87" rx="39.7" ry="26.74"/>
<text text-anchor="middle" x="56" y="-46.67" font-family="Times,serif" font-size="14.00">DAI.e</text>
<text text-anchor="middle" x="56" y="-31.67" font-family="Times,serif" font-size="14.00">1</text>
</g>
<!-- token2 -->
<g id="node3" class="node">
<title>token2</title>
<ellipse fill="none" stroke="black" cx="165" cy="-42.87" rx="51.74" ry="26.74"/>
<text text-anchor="middle" x="165" y="-46.67" font-family="Times,serif" font-size="14.00">USDC.e</text>
<text text-anchor="middle" x="165" y="-31.67" font-family="Times,serif" font-size="14.00">2</text>
</g>
<!-- token1&#45;&#45;token2 -->
<!-- token3 -->
<g id="node4" class="node">
<title>token3</title>
<ellipse fill="none" stroke="black" cx="284" cy="-42.87" rx="49.49" ry="26.74"/>
<text text-anchor="middle" x="284" y="-46.67" font-family="Times,serif" font-size="14.00">USDT.e</text>
<text text-anchor="middle" x="284" y="-31.67" font-family="Times,serif" font-size="14.00">3</text>
</g>
<!-- token2&#45;&#45;token3 -->
<!-- token4 -->
<g id="node5" class="node">
<title>token4</title>
<ellipse fill="none" stroke="black" cx="399" cy="-42.87" rx="42.35" ry="26.74"/>
<text text-anchor="middle" x="399" y="-46.67" font-family="Times,serif" font-size="14.00">USDC</text>
<text text-anchor="middle" x="399" y="-31.67" font-family="Times,serif" font-size="14.00">4</text>
</g>
<!-- token5 -->
<g id="node6" class="node">
<title>token5</title>
<ellipse fill="none" stroke="black" cx="499" cy="-42.87" rx="39.7" ry="26.74"/>
<text text-anchor="middle" x="499" y="-46.67" font-family="Times,serif" font-size="14.00">USDt</text>
<text text-anchor="middle" x="499" y="-31.67" font-family="Times,serif" font-size="14.00">5</text>
</g>
<!-- token4&#45;&#45;token5 -->
<!-- pool0&#45;&#45;token1 -->
<g id="edge2" class="edge">
<title>pool0&#45;&#45;token1</title>
<path fill="none" stroke="black" d="M182.01,-105.72C158.82,-95.55 129.61,-82.38 104,-69.74 98.14,-66.85 91.96,-63.64 86.04,-60.49"/>
</g>
<!-- pool0&#45;&#45;token2 -->
<g id="edge3" class="edge">
<title>pool0&#45;&#45;token2</title>
<path fill="none" stroke="black" d="M210.61,-105.62C202.45,-94.57 191.92,-80.31 183.03,-68.28"/>
</g>
<!-- pool0&#45;&#45;token3 -->
<g id="edge4" class="edge">
<title>pool0&#45;&#45;token3</title>
<path fill="none" stroke="black" d="M237.61,-105.62C245.98,-94.48 256.8,-80.07 265.89,-67.98"/>
</g>
<!-- pool1&#45;&#45;token4 -->
<g id="edge8" class="edge">
<title>pool1&#45;&#45;token4</title>
<path fill="none" stroke="black" d="M405.18,-105.62C404.12,-95.03 402.77,-81.5 401.6,-69.8"/>
</g>
<!-- pool1&#45;&#45;token5 -->
<g id="edge9" class="edge">
<title>pool1&#45;&#45;token5</title>
<path fill="none" stroke="black" d="M427.88,-105.62C441.98,-93.37 460.62,-77.19 475.29,-64.46"/>
</g>
</g>
</svg>
