<?xml version="1.0" encoding="UTF-8" standalone="no"?>
<!DOCTYPE svg PUBLIC "-//W3C//DTD SVG 1.1//EN"
 "http://www.w3.org/Graphics/SVG/1.1/DTD/svg11.dtd">
<!-- Generated by graphviz version 2.43.0 (0)
 -->
<!-- Title: G Pages: 1 -->
<svg width="1739pt" height="405pt"
 viewBox="0.00 0.00 1739.00 405.22" xmlns="http://www.w3.org/2000/svg" xmlns:xlink="http://www.w3.org/1999/xlink">
<g id="graph0" class="graph" transform="scale(1 1) rotate(0) translate(4 401.22)">
<title>G</title>
<polygon fill="white" stroke="transparent" points="-4,4 -4,-401.22 1735,-401.22 1735,4 -4,4"/>
<g id="clust1" class="cluster">
<title>cluster0</title>
<polygon fill="none" stroke="black" stroke-dasharray="1,5" points="142,-171.74 142,-315.48 339,-315.48 339,-171.74 142,-171.74"/>
</g>
<g id="clust3" class="cluster">
<title>cluster1</title>
<polygon fill="none" stroke="black" stroke-dasharray="1,5" points="8,-8 8,-151.74 341,-151.74 341,-8 8,-8"/>
</g>
<g id="clust5" class="cluster">
<title>cluster2</title>
<polygon fill="none" stroke="black" stroke-dasharray="1,5" points="395,-171.74 395,-315.48 547,-315.48 547,-171.74 395,-171.74"/>
</g>
<g id="clust7" class="cluster">
<title>cluster3</title>
<polygon fill="none" stroke="black" stroke-dasharray="1,5" points="579,-171.74 579,-315.48 785,-315.48 785,-171.74 579,-171.74"/>
</g>
<g id="clust9" class="cluster">
<title>cluster4</title>
<polygon fill="none" stroke="black" stroke-dasharray="1,5" points="487,-8 487,-151.74 800,-151.74 800,-8 487,-8"/>
</g>
<g id="clust11" class="cluster">
<title>cluster5</title>
<polygon fill="none" stroke="black" stroke-dasharray="1,5" points="798,-171.74 798,-315.48 928,-315.48 928,-171.74 798,-171.74"/>
</g>
<g id="clust13" class="cluster">
<title>cluster6</title>
<polygon fill="none" stroke="black" stroke-dasharray="1,5" points="939,-171.74 939,-315.48 1069,-315.48 1069,-171.74 939,-171.74"/>
</g>
<g id="clust15" class="cluster">
<title>cluster7</title>
<polygon fill="none" stroke="black" stroke-dasharray="1,5" points="946,-8 946,-151.74 1259,-151.74 1259,-8 946,-8"/>
</g>
<g id="clust17" class="cluster">
<title>cluster8</title>
<polygon fill="none" stroke="black" stroke-dasharray="1,5" points="1347,-171.74 1347,-315.48 1477,-315.48 1477,-171.74 1347,-171.74"/>
</g>
<g id="clust19" class="cluster">
<title>cluster9</title>
<polygon fill="none" stroke="black" stroke-dasharray="1,5" points="349,-8 349,-151.74 479,-151.74 479,-8 349,-8"/>
</g>
<g id="clust21" class="cluster">
<title>cluster10</title>
<polygon fill="none" stroke="black" stroke-dasharray="1,5" points="808,-8 808,-151.74 938,-151.74 938,-8 808,-8"/>
</g>
<g id="clust23" class="cluster">
<title>cluster11</title>
<polygon fill="none" stroke="black" stroke-dasharray="1,5" points="1267,-8 1267,-151.74 1585,-151.74 1585,-8 1267,-8"/>
</g>
<g id="clust25" class="cluster">
<title>cluster12</title>
<polygon fill="none" stroke="black" stroke-dasharray="1,5" points="1593,-8 1593,-151.74 1723,-151.74 1723,-8 1593,-8"/>
</g>
<!-- token0 -->
<g id="node1" class="node">
<title>token0</title>
<ellipse fill="none" stroke="black" cx="781" cy="-370.35" rx="42.35" ry="26.74"/>
<text text-anchor="middle" x="781" y="-374.15" font-family="Times,serif" font-size="14.00">USDC</text>
<text text-anchor="middle" x="781" y="-359.15" font-family="Times,serif" font-size="14.00">0</text>
</g>
<!-- pool0 -->
<g id="node24" class="node">
<title>pool0</title>
<polygon fill="none" stroke="black" stroke-dasharray="5,2" points="330.5,-307.48 231.5,-307.48 231.5,-269.48 330.5,-269.48 330.5,-307.48"/>
<text text-anchor="middle" x="281" y="-292.28" font-family="Times,serif" font-size="14.00">DefaultPool</text>
<text text-anchor="middle" x="281" y="-277.28" font-family="Times,serif" font-size="14.00">0xa196</text>
</g>
<!-- token0&#45;&#45;pool0 -->
<g id="edge1" class="edge">
<title>token0&#45;&#45;pool0</title>
<path fill="none" stroke="black" d="M739.23,-364.9C667.63,-356.97 516.98,-339.01 391,-315.48 371.13,-311.77 349.44,-306.83 330.62,-302.26"/>
</g>
<!-- pool2 -->
<g id="node26" class="node">
<title>pool2</title>
<polygon fill="none" stroke="black" stroke-dasharray="5,2" points="539,-307.48 403,-307.48 403,-269.48 539,-269.48 539,-307.48"/>
<text text-anchor="middle" x="471" y="-292.28" font-family="Times,serif" font-size="14.00">UniswapV3SR02</text>
<text text-anchor="middle" x="471" y="-277.28" font-family="Times,serif" font-size="14.00">0x8042</text>
</g>
<!-- token0&#45;&#45;pool2 -->
<g id="edge11" class="edge">
<title>token0&#45;&#45;pool2</title>
<path fill="none" stroke="black" d="M742.05,-359.32C691.23,-346.22 601.48,-323.1 539.24,-307.06"/>
</g>
<!-- pool3 -->
<g id="node27" class="node">
<title>pool3</title>
<polygon fill="none" stroke="black" stroke-dasharray="5,2" points="776.5,-307.48 587.5,-307.48 587.5,-269.48 776.5,-269.48 776.5,-307.48"/>
<text text-anchor="middle" x="682" y="-292.28" font-family="Times,serif" font-size="14.00">GMXV1StableAvalanche</text>
<text text-anchor="middle" x="682" y="-277.28" font-family="Times,serif" font-size="14.00">0x9ab2</text>
</g>
<!-- token0&#45;&#45;pool3 -->
<g id="edge13" class="edge">
<title>token0&#45;&#45;pool3</title>
<path fill="none" stroke="black" d="M755.51,-348.78C739.69,-336.02 719.57,-319.79 704.38,-307.53"/>
</g>
<!-- pool5 -->
<g id="node29" class="node">
<title>pool5</title>
<polygon fill="none" stroke="black" stroke-dasharray="5,2" points="920,-307.48 806,-307.48 806,-269.48 920,-269.48 920,-307.48"/>
<text text-anchor="middle" x="863" y="-292.28" font-family="Times,serif" font-size="14.00">TraderJoeV21</text>
<text text-anchor="middle" x="863" y="-277.28" font-family="Times,serif" font-size="14.00">0x9b2c</text>
</g>
<!-- token0&#45;&#45;pool5 -->
<g id="edge21" class="edge">
<title>token0&#45;&#45;pool5</title>
<path fill="none" stroke="black" d="M803.41,-347.53C816.3,-334.96 832.32,-319.37 844.5,-307.5"/>
</g>
<!-- pool6 -->
<g id="node30" class="node">
<title>pool6</title>
<polygon fill="none" stroke="black" stroke-dasharray="5,2" points="1061,-307.48 947,-307.48 947,-269.48 1061,-269.48 1061,-307.48"/>
<text text-anchor="middle" x="1004" y="-292.28" font-family="Times,serif" font-size="14.00">TraderJoeV21</text>
<text text-anchor="middle" x="1004" y="-277.28" font-family="Times,serif" font-size="14.00">0x7c13</text>
</g>
<!-- token0&#45;&#45;pool6 -->
<g id="edge23" class="edge">
<title>token0&#45;&#45;pool6</title>
<path fill="none" stroke="black" d="M817.32,-356.44C847.92,-345.55 892.84,-329.54 932,-315.48 939.13,-312.92 946.65,-310.21 954.04,-307.55"/>
</g>
<!-- pool8 -->
<g id="node32" class="node">
<title>pool8</title>
<polygon fill="none" stroke="black" stroke-dasharray="5,2" points="1469,-307.48 1355,-307.48 1355,-269.48 1469,-269.48 1469,-307.48"/>
<text text-anchor="middle" x="1412" y="-292.28" font-family="Times,serif" font-size="14.00">TraderJoeV21</text>
<text text-anchor="middle" x="1412" y="-277.28" font-family="Times,serif" font-size="14.00">0xe2b1</text>
</g>
<!-- token0&#45;&#45;pool8 -->
<g id="edge31" class="edge">
<title>token0&#45;&#45;pool8</title>
<path fill="none" stroke="black" d="M822.4,-364.11C931.94,-350.25 1229.5,-312.58 1354.98,-296.7"/>
</g>
<!-- token1 -->
<g id="node2" class="node">
<title>token1</title>
<ellipse fill="none" stroke="black" cx="192" cy="-206.61" rx="41.94" ry="26.74"/>
<text text-anchor="middle" x="192" y="-210.41" font-family="Times,serif" font-size="14.00">nUSD</text>
<text text-anchor="middle" x="192" y="-195.41" font-family="Times,serif" font-size="14.00">1</text>
</g>
<!-- token2 -->
<g id="node3" class="node">
<title>token2</title>
<ellipse fill="none" stroke="black" cx="291" cy="-206.61" rx="39.7" ry="26.74"/>
<text text-anchor="middle" x="291" y="-210.41" font-family="Times,serif" font-size="14.00">USDt</text>
<text text-anchor="middle" x="291" y="-195.41" font-family="Times,serif" font-size="14.00">2</text>
</g>
<!-- token1&#45;&#45;token2 -->
<!-- pool1 -->
<g id="node25" class="node">
<title>pool1</title>
<polygon fill="none" stroke="black" stroke-dasharray="5,2" points="228.5,-143.74 129.5,-143.74 129.5,-105.74 228.5,-105.74 228.5,-143.74"/>
<text text-anchor="middle" x="179" y="-128.54" font-family="Times,serif" font-size="14.00">DefaultPool</text>
<text text-anchor="middle" x="179" y="-113.54" font-family="Times,serif" font-size="14.00">0xed2a</text>
</g>
<!-- token1&#45;&#45;pool1 -->
<g id="edge5" class="edge">
<title>token1&#45;&#45;pool1</title>
<path fill="none" stroke="black" d="M187.74,-179.46C185.85,-167.81 183.66,-154.38 181.95,-143.86"/>
</g>
<!-- token3 -->
<g id="node4" class="node">
<title>token3</title>
<ellipse fill="none" stroke="black" cx="56" cy="-42.87" rx="39.7" ry="26.74"/>
<text text-anchor="middle" x="56" y="-46.67" font-family="Times,serif" font-size="14.00">DAI.e</text>
<text text-anchor="middle" x="56" y="-31.67" font-family="Times,serif" font-size="14.00">3</text>
</g>
<!-- token4 -->
<g id="node5" class="node">
<title>token4</title>
<ellipse fill="none" stroke="black" cx="165" cy="-42.87" rx="51.74" ry="26.74"/>
<text text-anchor="middle" x="165" y="-46.67" font-family="Times,serif" font-size="14.00">USDC.e</text>
<text text-anchor="middle" x="165" y="-31.67" font-family="Times,serif" font-size="14.00">4</text>
</g>
<!-- token3&#45;&#45;token4 -->
<!-- token5 -->
<g id="node6" class="node">
<title>token5</title>
<ellipse fill="none" stroke="black" cx="284" cy="-42.87" rx="49.49" ry="26.74"/>
<text text-anchor="middle" x="284" y="-46.67" font-family="Times,serif" font-size="14.00">USDT.e</text>
<text text-anchor="middle" x="284" y="-31.67" font-family="Times,serif" font-size="14.00">5</text>
</g>
<!-- token4&#45;&#45;token5 -->
<!-- token6 -->
<g id="node7" class="node">
<title>token6</title>
<ellipse fill="none" stroke="black" cx="457" cy="-206.61" rx="39.7" ry="26.74"/>
<text text-anchor="middle" x="457" y="-210.41" font-family="Times,serif" font-size="14.00">USDt</text>
<text text-anchor="middle" x="457" y="-195.41" font-family="Times,serif" font-size="14.00">6</text>
</g>
<!-- pool9 -->
<g id="node33" class="node">
<title>pool9</title>
<polygon fill="none" stroke="black" stroke-dasharray="5,2" points="471,-143.74 357,-143.74 357,-105.74 471,-105.74 471,-143.74"/>
<text text-anchor="middle" x="414" y="-128.54" font-family="Times,serif" font-size="14.00">TraderJoeV21</text>
<text text-anchor="middle" x="414" y="-113.54" font-family="Times,serif" font-size="14.00">0x6fe0</text>
</g>
<!-- token6&#45;&#45;pool9 -->
<g id="edge33" class="edge">
<title>token6&#45;&#45;pool9</title>
<path fill="none" stroke="black" d="M443.86,-181.21C437.39,-169.19 429.73,-154.95 423.78,-143.9"/>
</g>
<!-- token7 -->
<g id="node8" class="node">
<title>token7</title>
<ellipse fill="none" stroke="black" cx="651" cy="-206.61" rx="51.74" ry="26.74"/>
<text text-anchor="middle" x="651" y="-210.41" font-family="Times,serif" font-size="14.00">USDC.e</text>
<text text-anchor="middle" x="651" y="-195.41" font-family="Times,serif" font-size="14.00">7</text>
</g>
<!-- pool4 -->
<g id="node28" class="node">
<title>pool4</title>
<polygon fill="none" stroke="black" stroke-dasharray="5,2" points="695.5,-143.74 596.5,-143.74 596.5,-105.74 695.5,-105.74 695.5,-143.74"/>
<text text-anchor="middle" x="646" y="-128.54" font-family="Times,serif" font-size="14.00">DefaultPool</text>
<text text-anchor="middle" x="646" y="-113.54" font-family="Times,serif" font-size="14.00">0xed2a</text>
</g>
<!-- token7&#45;&#45;pool4 -->
<g id="edge15" class="edge">
<title>token7&#45;&#45;pool4</title>
<path fill="none" stroke="black" d="M649.36,-179.46C648.63,-167.81 647.79,-154.38 647.13,-143.86"/>
</g>
<!-- token8 -->
<g id="node9" class="node">
<title>token8</title>
<ellipse fill="none" stroke="black" cx="537" cy="-42.87" rx="41.94" ry="26.74"/>
<text text-anchor="middle" x="537" y="-46.67" font-family="Times,serif" font-size="14.00">nUSD</text>
<text text-anchor="middle" x="537" y="-31.67" font-family="Times,serif" font-size="14.00">8</text>
</g>
<!-- token9 -->
<g id="node10" class="node">
<title>token9</title>
<ellipse fill="none" stroke="black" cx="636" cy="-42.87" rx="39.7" ry="26.74"/>
<text text-anchor="middle" x="636" y="-46.67" font-family="Times,serif" font-size="14.00">DAI.e</text>
<text text-anchor="middle" x="636" y="-31.67" font-family="Times,serif" font-size="14.00">9</text>
</g>
<!-- token8&#45;&#45;token9 -->
<!-- token10 -->
<g id="node11" class="node">
<title>token10</title>
<ellipse fill="none" stroke="black" cx="743" cy="-42.87" rx="49.49" ry="26.74"/>
<text text-anchor="middle" x="743" y="-46.67" font-family="Times,serif" font-size="14.00">USDT.e</text>
<text text-anchor="middle" x="743" y="-31.67" font-family="Times,serif" font-size="14.00">10</text>
</g>
<!-- token9&#45;&#45;token10 -->
<!-- token11 -->
<g id="node12" class="node">
<title>token11</title>
<ellipse fill="none" stroke="black" cx="868" cy="-206.61" rx="39.7" ry="26.74"/>
<text text-anchor="middle" x="868" y="-210.41" font-family="Times,serif" font-size="14.00">USDt</text>
<text text-anchor="middle" x="868" y="-195.41" font-family="Times,serif" font-size="14.00">11</text>
</g>
<!-- pool10 -->
<g id="node34" class="node">
<title>pool10</title>
<polygon fill="none" stroke="black" stroke-dasharray="5,2" points="930,-143.74 816,-143.74 816,-105.74 930,-105.74 930,-143.74"/>
<text text-anchor="middle" x="873" y="-128.54" font-family="Times,serif" font-size="14.00">TraderJoeV21</text>
<text text-anchor="middle" x="873" y="-113.54" font-family="Times,serif" font-size="14.00">0x6fe0</text>
</g>
<!-- token11&#45;&#45;pool10 -->
<g id="edge35" class="edge">
<title>token11&#45;&#45;pool10</title>
<path fill="none" stroke="black" d="M869.64,-179.46C870.37,-167.81 871.21,-154.38 871.87,-143.86"/>
</g>
<!-- token12 -->
<g id="node13" class="node">
<title>token12</title>
<ellipse fill="none" stroke="black" cx="1006" cy="-206.61" rx="51.74" ry="26.74"/>
<text text-anchor="middle" x="1006" y="-210.41" font-family="Times,serif" font-size="14.00">USDC.e</text>
<text text-anchor="middle" x="1006" y="-195.41" font-family="Times,serif" font-size="14.00">12</text>
</g>
<!-- pool7 -->
<g id="node31" class="node">
<title>pool7</title>
<polygon fill="none" stroke="black" stroke-dasharray="5,2" points="1060.5,-143.74 961.5,-143.74 961.5,-105.74 1060.5,-105.74 1060.5,-143.74"/>
<text text-anchor="middle" x="1011" y="-128.54" font-family="Times,serif" font-size="14.00">DefaultPool</text>
<text text-anchor="middle" x="1011" y="-113.54" font-family="Times,serif" font-size="14.00">0xed2a</text>
</g>
<!-- token12&#45;&#45;pool7 -->
<g id="edge25" class="edge">
<title>token12&#45;&#45;pool7</title>
<path fill="none" stroke="black" d="M1007.64,-179.46C1008.37,-167.81 1009.21,-154.38 1009.87,-143.86"/>
</g>
<!-- token13 -->
<g id="node14" class="node">
<title>token13</title>
<ellipse fill="none" stroke="black" cx="996" cy="-42.87" rx="41.94" ry="26.74"/>
<text text-anchor="middle" x="996" y="-46.67" font-family="Times,serif" font-size="14.00">nUSD</text>
<text text-anchor="middle" x="996" y="-31.67" font-family="Times,serif" font-size="14.00">13</text>
</g>
<!-- token14 -->
<g id="node15" class="node">
<title>token14</title>
<ellipse fill="none" stroke="black" cx="1095" cy="-42.87" rx="39.7" ry="26.74"/>
<text text-anchor="middle" x="1095" y="-46.67" font-family="Times,serif" font-size="14.00">DAI.e</text>
<text text-anchor="middle" x="1095" y="-31.67" font-family="Times,serif" font-size="14.00">14</text>
</g>
<!-- token13&#45;&#45;token14 -->
<!-- token15 -->
<g id="node16" class="node">
<title>token15</title>
<ellipse fill="none" stroke="black" cx="1202" cy="-42.87" rx="49.49" ry="26.74"/>
<text text-anchor="middle" x="1202" y="-46.67" font-family="Times,serif" font-size="14.00">USDT.e</text>
<text text-anchor="middle" x="1202" y="-31.67" font-family="Times,serif" font-size="14.00">15</text>
</g>
<!-- token14&#45;&#45;token15 -->
<!-- token16 -->
<g id="node17" class="node">
<title>token16</title>
<ellipse fill="none" stroke="black" cx="1416" cy="-206.61" rx="49.49" ry="26.74"/>
<text text-anchor="middle" x="1416" y="-210.41" font-family="Times,serif" font-size="14.00">USDT.e</text>
<text text-anchor="middle" x="1416" y="-195.41" font-family="Times,serif" font-size="14.00">16</text>
</g>
<!-- pool11 -->
<g id="node35" class="node">
<title>pool11</title>
<polygon fill="none" stroke="black" stroke-dasharray="5,2" points="1465.5,-143.74 1366.5,-143.74 1366.5,-105.74 1465.5,-105.74 1465.5,-143.74"/>
<text text-anchor="middle" x="1416" y="-128.54" font-family="Times,serif" font-size="14.00">DefaultPool</text>
<text text-anchor="middle" x="1416" y="-113.54" font-family="Times,serif" font-size="14.00">0xed2a</text>
</g>
<!-- token16&#45;&#45;pool11 -->
<g id="edge37" class="edge">
<title>token16&#45;&#45;pool11</title>
<path fill="none" stroke="black" d="M1416,-179.46C1416,-167.81 1416,-154.38 1416,-143.86"/>
</g>
<!-- pool12 -->
<g id="node36" class="node">
<title>pool12</title>
<polygon fill="none" stroke="black" stroke-dasharray="5,2" points="1715,-143.74 1601,-143.74 1601,-105.74 1715,-105.74 1715,-143.74"/>
<text text-anchor="middle" x="1658" y="-128.54" font-family="Times,serif" font-size="14.00">TraderJoeV21</text>
<text text-anchor="middle" x="1658" y="-113.54" font-family="Times,serif" font-size="14.00">0x6fe0</text>
</g>
<!-- token16&#45;&#45;pool12 -->
<g id="edge43" class="edge">
<title>token16&#45;&#45;pool12</title>
<path fill="none" stroke="black" d="M1458.88,-193.02C1494.03,-182.52 1544.97,-166.88 1589,-151.74 1596.14,-149.28 1603.66,-146.58 1610.99,-143.87"/>
</g>
<!-- token17 -->
<g id="node18" class="node">
<title>token17</title>
<ellipse fill="none" stroke="black" cx="414" cy="-42.87" rx="49.49" ry="26.74"/>
<text text-anchor="middle" x="414" y="-46.67" font-family="Times,serif" font-size="14.00">USDT.e</text>
<text text-anchor="middle" x="414" y="-31.67" font-family="Times,serif" font-size="14.00">17</text>
</g>
<!-- token18 -->
<g id="node19" class="node">
<title>token18</title>
<ellipse fill="none" stroke="black" cx="873" cy="-42.87" rx="49.49" ry="26.74"/>
<text text-anchor="middle" x="873" y="-46.67" font-family="Times,serif" font-size="14.00">USDT.e</text>
<text text-anchor="middle" x="873" y="-31.67" font-family="Times,serif" font-size="14.00">18</text>
</g>
<!-- token19 -->
<g id="node20" class="node">
<title>token19</title>
<ellipse fill="none" stroke="black" cx="1317" cy="-42.87" rx="41.94" ry="26.74"/>
<text text-anchor="middle" x="1317" y="-46.67" font-family="Times,serif" font-size="14.00">nUSD</text>
<text text-anchor="middle" x="1317" y="-31.67" font-family="Times,serif" font-size="14.00">19</text>
</g>
<!-- token20 -->
<g id="node21" class="node">
<title>token20</title>
<ellipse fill="none" stroke="black" cx="1416" cy="-42.87" rx="39.7" ry="26.74"/>
<text text-anchor="middle" x="1416" y="-46.67" font-family="Times,serif" font-size="14.00">DAI.e</text>
<text text-anchor="middle" x="1416" y="-31.67" font-family="Times,serif" font-size="14.00">20</text>
</g>
<!-- token19&#45;&#45;token20 -->
<!-- token21 -->
<g id="node22" class="node">
<title>token21</title>
<ellipse fill="none" stroke="black" cx="1525" cy="-42.87" rx="51.74" ry="26.74"/>
<text text-anchor="middle" x="1525" y="-46.67" font-family="Times,serif" font-size="14.00">USDC.e</text>
<text text-anchor="middle" x="1525" y="-31.67" font-family="Times,serif" font-size="14.00">21</text>
</g>
<!-- token20&#45;&#45;token21 -->
<!-- token22 -->
<g id="node23" class="node">
<title>token22</title>
<ellipse fill="none" stroke="black" cx="1658" cy="-42.87" rx="39.7" ry="26.74"/>
<text text-anchor="middle" x="1658" y="-46.67" font-family="Times,serif" font-size="14.00">USDt</text>
<text text-anchor="middle" x="1658" y="-31.67" font-family="Times,serif" font-size="14.00">22</text>
</g>
<!-- pool0&#45;&#45;token1 -->
<g id="edge2" class="edge">
<title>pool0&#45;&#45;token1</title>
<path fill="none" stroke="black" d="M260.8,-269.36C247.47,-257.39 229.94,-241.65 215.91,-229.06"/>
</g>
<!-- pool0&#45;&#45;token2 -->
<g id="edge3" class="edge">
<title>pool0&#45;&#45;token2</title>
<path fill="none" stroke="black" d="M283.27,-269.36C284.59,-258.77 286.29,-245.24 287.75,-233.54"/>
</g>
<!-- pool1&#45;&#45;token3 -->
<g id="edge6" class="edge">
<title>pool1&#45;&#45;token3</title>
<path fill="none" stroke="black" d="M151.09,-105.62C131.1,-92.64 104.29,-75.22 84.23,-62.2"/>
</g>
<!-- pool1&#45;&#45;token4 -->
<g id="edge7" class="edge">
<title>pool1&#45;&#45;token4</title>
<path fill="none" stroke="black" d="M175.82,-105.62C173.97,-95.03 171.6,-81.5 169.54,-69.8"/>
</g>
<!-- pool1&#45;&#45;token5 -->
<g id="edge8" class="edge">
<title>pool1&#45;&#45;token5</title>
<path fill="none" stroke="black" d="M202.83,-105.62C218.56,-93.65 239.24,-77.91 255.8,-65.32"/>
</g>
<!-- pool2&#45;&#45;token6 -->
<g id="edge12" class="edge">
<title>pool2&#45;&#45;token6</title>
<path fill="none" stroke="black" d="M467.82,-269.36C465.97,-258.77 463.6,-245.24 461.54,-233.54"/>
</g>
<!-- pool3&#45;&#45;token7 -->
<g id="edge14" class="edge">
<title>pool3&#45;&#45;token7</title>
<path fill="none" stroke="black" d="M674.97,-269.36C670.82,-258.68 665.51,-245 660.94,-233.23"/>
</g>
<!-- pool4&#45;&#45;token8 -->
<g id="edge16" class="edge">
<title>pool4&#45;&#45;token8</title>
<path fill="none" stroke="black" d="M621.27,-105.62C604.18,-93.1 581.47,-76.45 563.93,-63.6"/>
</g>
<!-- pool4&#45;&#45;token9 -->
<g id="edge17" class="edge">
<title>pool4&#45;&#45;token9</title>
<path fill="none" stroke="black" d="M643.73,-105.62C642.41,-95.03 640.71,-81.5 639.25,-69.8"/>
</g>
<!-- pool4&#45;&#45;token10 -->
<g id="edge18" class="edge">
<title>pool4&#45;&#45;token10</title>
<path fill="none" stroke="black" d="M668.01,-105.62C682.43,-93.74 701.36,-78.16 716.59,-65.61"/>
</g>
<!-- pool5&#45;&#45;token11 -->
<g id="edge22" class="edge">
<title>pool5&#45;&#45;token11</title>
<path fill="none" stroke="black" d="M864.13,-269.36C864.8,-258.77 865.64,-245.24 866.38,-233.54"/>
</g>
<!-- pool6&#45;&#45;token12 -->
<g id="edge24" class="edge">
<title>pool6&#45;&#45;token12</title>
<path fill="none" stroke="black" d="M1004.45,-269.36C1004.72,-258.77 1005.06,-245.24 1005.35,-233.54"/>
</g>
<!-- pool7&#45;&#45;token13 -->
<g id="edge26" class="edge">
<title>pool7&#45;&#45;token13</title>
<path fill="none" stroke="black" d="M1007.6,-105.62C1005.61,-95.03 1003.07,-81.5 1000.87,-69.8"/>
</g>
<!-- pool7&#45;&#45;token14 -->
<g id="edge27" class="edge">
<title>pool7&#45;&#45;token14</title>
<path fill="none" stroke="black" d="M1030.06,-105.62C1042.65,-93.65 1059.2,-77.91 1072.44,-65.32"/>
</g>
<!-- pool7&#45;&#45;token15 -->
<g id="edge28" class="edge">
<title>pool7&#45;&#45;token15</title>
<path fill="none" stroke="black" d="M1056.71,-105.63C1082.44,-95.32 1115.11,-82.04 1144,-69.74 1150.7,-66.89 1157.79,-63.79 1164.64,-60.76"/>
</g>
<!-- pool8&#45;&#45;token16 -->
<g id="edge32" class="edge">
<title>pool8&#45;&#45;token16</title>
<path fill="none" stroke="black" d="M1412.91,-269.36C1413.44,-258.77 1414.12,-245.24 1414.7,-233.54"/>
</g>
<!-- pool9&#45;&#45;token17 -->
<g id="edge34" class="edge">
<title>pool9&#45;&#45;token17</title>
<path fill="none" stroke="black" d="M414,-105.62C414,-95.03 414,-81.5 414,-69.8"/>
</g>
<!-- pool10&#45;&#45;token18 -->
<g id="edge36" class="edge">
<title>pool10&#45;&#45;token18</title>
<path fill="none" stroke="black" d="M873,-105.62C873,-95.03 873,-81.5 873,-69.8"/>
</g>
<!-- pool11&#45;&#45;token19 -->
<g id="edge38" class="edge">
<title>pool11&#45;&#45;token19</title>
<path fill="none" stroke="black" d="M1393.54,-105.62C1378.36,-93.37 1358.3,-77.19 1342.52,-64.46"/>
</g>
<!-- pool11&#45;&#45;token20 -->
<g id="edge39" class="edge">
<title>pool11&#45;&#45;token20</title>
<path fill="none" stroke="black" d="M1416,-105.62C1416,-95.03 1416,-81.5 1416,-69.8"/>
</g>
<!-- pool11&#45;&#45;token21 -->
<g id="edge40" class="edge">
<title>pool11&#45;&#45;token21</title>
<path fill="none" stroke="black" d="M1440.73,-105.62C1457.06,-93.65 1478.54,-77.91 1495.72,-65.32"/>
</g>
<!-- pool12&#45;&#45;token22 -->
<g id="edge44" class="edge">
<title>pool12&#45;&#45;token22</title>
<path fill="none" stroke="black" d="M1658,-105.62C1658,-95.03 1658,-81.5 1658,-69.8"/>
</g>
</g>
</svg>
