<?xml version="1.0" encoding="UTF-8" standalone="no"?>
<!DOCTYPE svg PUBLIC "-//W3C//DTD SVG 1.1//EN"
 "http://www.w3.org/Graphics/SVG/1.1/DTD/svg11.dtd">
<!-- Generated by graphviz version 2.43.0 (0)
 -->
<!-- Title: G Pages: 1 -->
<svg width="1446pt" height="405pt"
 viewBox="0.00 0.00 1446.00 405.22" xmlns="http://www.w3.org/2000/svg" xmlns:xlink="http://www.w3.org/1999/xlink">
<g id="graph0" class="graph" transform="scale(1 1) rotate(0) translate(4 401.22)">
<title>G</title>
<polygon fill="white" stroke="transparent" points="-4,4 -4,-401.22 1442,-401.22 1442,4 -4,4"/>
<g id="clust1" class="cluster">
<title>cluster0</title>
<polygon fill="none" stroke="black" stroke-dasharray="1,5" points="122,-171.74 122,-315.48 236,-315.48 236,-171.74 122,-171.74"/>
</g>
<g id="clust3" class="cluster">
<title>cluster1</title>
<polygon fill="none" stroke="black" stroke-dasharray="1,5" points="244,-171.74 244,-315.48 416,-315.48 416,-171.74 244,-171.74"/>
</g>
<g id="clust5" class="cluster">
<title>cluster2</title>
<polygon fill="none" stroke="black" stroke-dasharray="1,5" points="424,-171.74 424,-315.48 538,-315.48 538,-171.74 424,-171.74"/>
</g>
<g id="clust7" class="cluster">
<title>cluster3</title>
<polygon fill="none" stroke="black" stroke-dasharray="1,5" points="546,-171.74 546,-315.48 718,-315.48 718,-171.74 546,-171.74"/>
</g>
<g id="clust9" class="cluster">
<title>cluster4</title>
<polygon fill="none" stroke="black" stroke-dasharray="1,5" points="726,-171.74 726,-315.48 840,-315.48 840,-171.74 726,-171.74"/>
</g>
<g id="clust11" class="cluster">
<title>cluster5</title>
<polygon fill="none" stroke="black" stroke-dasharray="1,5" points="848,-171.74 848,-315.48 1020,-315.48 1020,-171.74 848,-171.74"/>
</g>
<g id="clust13" class="cluster">
<title>cluster6</title>
<polygon fill="none" stroke="black" stroke-dasharray="1,5" points="1028,-171.74 1028,-315.48 1142,-315.48 1142,-171.74 1028,-171.74"/>
</g>
<g id="clust15" class="cluster">
<title>cluster7</title>
<polygon fill="none" stroke="black" stroke-dasharray="1,5" points="1150,-171.74 1150,-315.48 1430,-315.48 1430,-171.74 1150,-171.74"/>
</g>
<g id="clust17" class="cluster">
<title>cluster8</title>
<polygon fill="none" stroke="black" stroke-dasharray="1,5" points="8,-8 8,-151.74 122,-151.74 122,-8 8,-8"/>
</g>
<g id="clust19" class="cluster">
<title>cluster9</title>
<polygon fill="none" stroke="black" stroke-dasharray="1,5" points="130,-8 130,-151.74 244,-151.74 244,-8 130,-8"/>
</g>
<g id="clust21" class="cluster">
<title>cluster10</title>
<polygon fill="none" stroke="black" stroke-dasharray="1,5" points="266,-8 266,-151.74 380,-151.74 380,-8 266,-8"/>
</g>
<g id="clust23" class="cluster">
<title>cluster11</title>
<polygon fill="none" stroke="black" stroke-dasharray="1,5" points="388,-8 388,-151.74 502,-151.74 502,-8 388,-8"/>
</g>
<!-- token0 -->
<g id="node1" class="node">
<title>token0</title>
<ellipse fill="none" stroke="black" cx="707" cy="-370.35" rx="51.74" ry="26.74"/>
<text text-anchor="middle" x="707" y="-374.15" font-family="Times,serif" font-size="14.00">USDC.e</text>
<text text-anchor="middle" x="707" y="-359.15" font-family="Times,serif" font-size="14.00">0</text>
</g>
<!-- pool0 -->
<g id="node16" class="node">
<title>pool0</title>
<polygon fill="none" stroke="black" stroke-dasharray="5,2" points="228,-307.48 130,-307.48 130,-269.48 228,-269.48 228,-307.48"/>
<text text-anchor="middle" x="179" y="-292.28" font-family="Times,serif" font-size="14.00">UniswapV3</text>
<text text-anchor="middle" x="179" y="-277.28" font-family="Times,serif" font-size="14.00">0xd36e</text>
</g>
<!-- token0&#45;&#45;pool0 -->
<g id="edge1" class="edge">
<title>token0&#45;&#45;pool0</title>
<path fill="none" stroke="black" d="M655.31,-368.22C568.23,-365.26 387.34,-354.5 240,-315.48 232.32,-313.45 224.35,-310.62 216.8,-307.58"/>
</g>
<!-- pool1 -->
<g id="node17" class="node">
<title>pool1</title>
<polygon fill="none" stroke="black" stroke-dasharray="5,2" points="408,-307.48 252,-307.48 252,-269.48 408,-269.48 408,-307.48"/>
<text text-anchor="middle" x="330" y="-292.28" font-family="Times,serif" font-size="14.00">Algebra.QuickSwap</text>
<text text-anchor="middle" x="330" y="-277.28" font-family="Times,serif" font-size="14.00">0xeecb</text>
</g>
<!-- token0&#45;&#45;pool1 -->
<g id="edge3" class="edge">
<title>token0&#45;&#45;pool1</title>
<path fill="none" stroke="black" d="M657.95,-361.61C600.57,-352.22 502.86,-335.18 420,-315.48 410.03,-313.11 399.52,-310.33 389.33,-307.49"/>
</g>
<!-- pool2 -->
<g id="node18" class="node">
<title>pool2</title>
<polygon fill="none" stroke="black" stroke-dasharray="5,2" points="530,-307.48 432,-307.48 432,-269.48 530,-269.48 530,-307.48"/>
<text text-anchor="middle" x="481" y="-292.28" font-family="Times,serif" font-size="14.00">UniswapV3</text>
<text text-anchor="middle" x="481" y="-277.28" font-family="Times,serif" font-size="14.00">0xdac8</text>
</g>
<!-- token0&#45;&#45;pool2 -->
<g id="edge5" class="edge">
<title>token0&#45;&#45;pool2</title>
<path fill="none" stroke="black" d="M662.87,-356.09C629.42,-345.77 582.48,-330.68 542,-315.48 535.53,-313.05 528.75,-310.33 522.15,-307.59"/>
</g>
<!-- pool3 -->
<g id="node19" class="node">
<title>pool3</title>
<polygon fill="none" stroke="black" stroke-dasharray="5,2" points="710,-307.48 554,-307.48 554,-269.48 710,-269.48 710,-307.48"/>
<text text-anchor="middle" x="632" y="-292.28" font-family="Times,serif" font-size="14.00">Algebra.QuickSwap</text>
<text text-anchor="middle" x="632" y="-277.28" font-family="Times,serif" font-size="14.00">0x7b92</text>
</g>
<!-- token0&#45;&#45;pool3 -->
<g id="edge7" class="edge">
<title>token0&#45;&#45;pool3</title>
<path fill="none" stroke="black" d="M684.9,-345.82C673.41,-333.58 659.58,-318.85 648.94,-307.52"/>
</g>
<!-- pool4 -->
<g id="node20" class="node">
<title>pool4</title>
<polygon fill="none" stroke="black" stroke-dasharray="5,2" points="832,-307.48 734,-307.48 734,-269.48 832,-269.48 832,-307.48"/>
<text text-anchor="middle" x="783" y="-292.28" font-family="Times,serif" font-size="14.00">UniswapV3</text>
<text text-anchor="middle" x="783" y="-277.28" font-family="Times,serif" font-size="14.00">0x5645</text>
</g>
<!-- token0&#45;&#45;pool4 -->
<g id="edge9" class="edge">
<title>token0&#45;&#45;pool4</title>
<path fill="none" stroke="black" d="M729.39,-345.82C741.04,-333.58 755.05,-318.85 765.83,-307.52"/>
</g>
<!-- pool5 -->
<g id="node21" class="node">
<title>pool5</title>
<polygon fill="none" stroke="black" stroke-dasharray="5,2" points="1012,-307.48 856,-307.48 856,-269.48 1012,-269.48 1012,-307.48"/>
<text text-anchor="middle" x="934" y="-292.28" font-family="Times,serif" font-size="14.00">Algebra.QuickSwap</text>
<text text-anchor="middle" x="934" y="-277.28" font-family="Times,serif" font-size="14.00">0xe7e0</text>
</g>
<!-- token0&#45;&#45;pool5 -->
<g id="edge11" class="edge">
<title>token0&#45;&#45;pool5</title>
<path fill="none" stroke="black" d="M748.9,-354.61C786.69,-341.31 842.38,-321.72 882.8,-307.49"/>
</g>
<!-- pool6 -->
<g id="node22" class="node">
<title>pool6</title>
<polygon fill="none" stroke="black" stroke-dasharray="5,2" points="1134,-307.48 1036,-307.48 1036,-269.48 1134,-269.48 1134,-307.48"/>
<text text-anchor="middle" x="1085" y="-292.28" font-family="Times,serif" font-size="14.00">UniswapV3</text>
<text text-anchor="middle" x="1085" y="-277.28" font-family="Times,serif" font-size="14.00">0xbeaf</text>
</g>
<!-- token0&#45;&#45;pool6 -->
<g id="edge13" class="edge">
<title>token0&#45;&#45;pool6</title>
<path fill="none" stroke="black" d="M757.51,-364.46C820.77,-357.51 932.01,-342.49 1024,-315.48 1031.4,-313.31 1039.11,-310.49 1046.45,-307.52"/>
</g>
<!-- pool7 -->
<g id="node23" class="node">
<title>pool7</title>
<polygon fill="none" stroke="black" stroke-dasharray="5,2" points="1298.5,-307.48 1199.5,-307.48 1199.5,-269.48 1298.5,-269.48 1298.5,-307.48"/>
<text text-anchor="middle" x="1249" y="-292.28" font-family="Times,serif" font-size="14.00">DefaultPool</text>
<text text-anchor="middle" x="1249" y="-277.28" font-family="Times,serif" font-size="14.00">0x85fc</text>
</g>
<!-- token0&#45;&#45;pool7 -->
<g id="edge15" class="edge">
<title>token0&#45;&#45;pool7</title>
<path fill="none" stroke="black" d="M757.68,-365.21C839.73,-358.04 1006.55,-341.53 1146,-315.48 1163.49,-312.21 1182.44,-307.71 1199.25,-303.38"/>
</g>
<!-- token1 -->
<g id="node2" class="node">
<title>token1</title>
<ellipse fill="none" stroke="black" cx="179" cy="-206.61" rx="42.35" ry="26.74"/>
<text text-anchor="middle" x="179" y="-210.41" font-family="Times,serif" font-size="14.00">USDC</text>
<text text-anchor="middle" x="179" y="-195.41" font-family="Times,serif" font-size="14.00">1</text>
</g>
<!-- pool8 -->
<g id="node24" class="node">
<title>pool8</title>
<polygon fill="none" stroke="black" stroke-dasharray="5,2" points="114,-143.74 16,-143.74 16,-105.74 114,-105.74 114,-143.74"/>
<text text-anchor="middle" x="65" y="-128.54" font-family="Times,serif" font-size="14.00">UniswapV3</text>
<text text-anchor="middle" x="65" y="-113.54" font-family="Times,serif" font-size="14.00">0x3108</text>
</g>
<!-- token1&#45;&#45;pool8 -->
<g id="edge21" class="edge">
<title>token1&#45;&#45;pool8</title>
<path fill="none" stroke="black" d="M151.11,-186.07C132.79,-173.23 108.98,-156.55 91.04,-143.98"/>
</g>
<!-- pool9 -->
<g id="node25" class="node">
<title>pool9</title>
<polygon fill="none" stroke="black" stroke-dasharray="5,2" points="236,-143.74 138,-143.74 138,-105.74 236,-105.74 236,-143.74"/>
<text text-anchor="middle" x="187" y="-128.54" font-family="Times,serif" font-size="14.00">UniswapV3</text>
<text text-anchor="middle" x="187" y="-113.54" font-family="Times,serif" font-size="14.00">0xf369</text>
</g>
<!-- token1&#45;&#45;pool9 -->
<g id="edge23" class="edge">
<title>token1&#45;&#45;pool9</title>
<path fill="none" stroke="black" d="M181.62,-179.46C182.79,-167.81 184.13,-154.38 185.18,-143.86"/>
</g>
<!-- token2 -->
<g id="node3" class="node">
<title>token2</title>
<ellipse fill="none" stroke="black" cx="330" cy="-206.61" rx="42.35" ry="26.74"/>
<text text-anchor="middle" x="330" y="-210.41" font-family="Times,serif" font-size="14.00">USDC</text>
<text text-anchor="middle" x="330" y="-195.41" font-family="Times,serif" font-size="14.00">2</text>
</g>
<!-- pool10 -->
<g id="node26" class="node">
<title>pool10</title>
<polygon fill="none" stroke="black" stroke-dasharray="5,2" points="372,-143.74 274,-143.74 274,-105.74 372,-105.74 372,-143.74"/>
<text text-anchor="middle" x="323" y="-128.54" font-family="Times,serif" font-size="14.00">UniswapV3</text>
<text text-anchor="middle" x="323" y="-113.54" font-family="Times,serif" font-size="14.00">0x3108</text>
</g>
<!-- token2&#45;&#45;pool10 -->
<g id="edge25" class="edge">
<title>token2&#45;&#45;pool10</title>
<path fill="none" stroke="black" d="M327.71,-179.46C326.69,-167.81 325.51,-154.38 324.59,-143.86"/>
</g>
<!-- pool11 -->
<g id="node27" class="node">
<title>pool11</title>
<polygon fill="none" stroke="black" stroke-dasharray="5,2" points="494,-143.74 396,-143.74 396,-105.74 494,-105.74 494,-143.74"/>
<text text-anchor="middle" x="445" y="-128.54" font-family="Times,serif" font-size="14.00">UniswapV3</text>
<text text-anchor="middle" x="445" y="-113.54" font-family="Times,serif" font-size="14.00">0xf369</text>
</g>
<!-- token2&#45;&#45;pool11 -->
<g id="edge27" class="edge">
<title>token2&#45;&#45;pool11</title>
<path fill="none" stroke="black" d="M357.84,-186.28C376.45,-173.35 400.77,-156.46 418.99,-143.8"/>
</g>
<!-- token3 -->
<g id="node4" class="node">
<title>token3</title>
<ellipse fill="none" stroke="black" cx="481" cy="-206.61" rx="41.94" ry="26.74"/>
<text text-anchor="middle" x="481" y="-210.41" font-family="Times,serif" font-size="14.00">USDT</text>
<text text-anchor="middle" x="481" y="-195.41" font-family="Times,serif" font-size="14.00">3</text>
</g>
<!-- token4 -->
<g id="node5" class="node">
<title>token4</title>
<ellipse fill="none" stroke="black" cx="632" cy="-206.61" rx="41.94" ry="26.74"/>
<text text-anchor="middle" x="632" y="-210.41" font-family="Times,serif" font-size="14.00">USDT</text>
<text text-anchor="middle" x="632" y="-195.41" font-family="Times,serif" font-size="14.00">4</text>
</g>
<!-- token5 -->
<g id="node6" class="node">
<title>token5</title>
<ellipse fill="none" stroke="black" cx="783" cy="-206.61" rx="30.31" ry="26.74"/>
<text text-anchor="middle" x="783" y="-210.41" font-family="Times,serif" font-size="14.00">DAI</text>
<text text-anchor="middle" x="783" y="-195.41" font-family="Times,serif" font-size="14.00">5</text>
</g>
<!-- token6 -->
<g id="node7" class="node">
<title>token6</title>
<ellipse fill="none" stroke="black" cx="934" cy="-206.61" rx="30.31" ry="26.74"/>
<text text-anchor="middle" x="934" y="-210.41" font-family="Times,serif" font-size="14.00">DAI</text>
<text text-anchor="middle" x="934" y="-195.41" font-family="Times,serif" font-size="14.00">6</text>
</g>
<!-- token7 -->
<g id="node8" class="node">
<title>token7</title>
<ellipse fill="none" stroke="black" cx="1085" cy="-206.61" rx="39.7" ry="26.74"/>
<text text-anchor="middle" x="1085" y="-210.41" font-family="Times,serif" font-size="14.00">FRAX</text>
<text text-anchor="middle" x="1085" y="-195.41" font-family="Times,serif" font-size="14.00">7</text>
</g>
<!-- token8 -->
<g id="node9" class="node">
<title>token8</title>
<ellipse fill="none" stroke="black" cx="1200" cy="-206.61" rx="41.94" ry="26.74"/>
<text text-anchor="middle" x="1200" y="-210.41" font-family="Times,serif" font-size="14.00">nUSD</text>
<text text-anchor="middle" x="1200" y="-195.41" font-family="Times,serif" font-size="14.00">8</text>
</g>
<!-- token9 -->
<g id="node10" class="node">
<title>token9</title>
<ellipse fill="none" stroke="black" cx="1290" cy="-206.61" rx="30.31" ry="26.74"/>
<text text-anchor="middle" x="1290" y="-210.41" font-family="Times,serif" font-size="14.00">DAI</text>
<text text-anchor="middle" x="1290" y="-195.41" font-family="Times,serif" font-size="14.00">9</text>
</g>
<!-- token8&#45;&#45;token9 -->
<!-- token10 -->
<g id="node11" class="node">
<title>token10</title>
<ellipse fill="none" stroke="black" cx="1380" cy="-206.61" rx="41.94" ry="26.74"/>
<text text-anchor="middle" x="1380" y="-210.41" font-family="Times,serif" font-size="14.00">USDT</text>
<text text-anchor="middle" x="1380" y="-195.41" font-family="Times,serif" font-size="14.00">10</text>
</g>
<!-- token9&#45;&#45;token10 -->
<!-- token11 -->
<g id="node12" class="node">
<title>token11</title>
<ellipse fill="none" stroke="black" cx="65" cy="-42.87" rx="41.94" ry="26.74"/>
<text text-anchor="middle" x="65" y="-46.67" font-family="Times,serif" font-size="14.00">USDT</text>
<text text-anchor="middle" x="65" y="-31.67" font-family="Times,serif" font-size="14.00">11</text>
</g>
<!-- token12 -->
<g id="node13" class="node">
<title>token12</title>
<ellipse fill="none" stroke="black" cx="187" cy="-42.87" rx="30.31" ry="26.74"/>
<text text-anchor="middle" x="187" y="-46.67" font-family="Times,serif" font-size="14.00">DAI</text>
<text text-anchor="middle" x="187" y="-31.67" font-family="Times,serif" font-size="14.00">12</text>
</g>
<!-- token13 -->
<g id="node14" class="node">
<title>token13</title>
<ellipse fill="none" stroke="black" cx="323" cy="-42.87" rx="41.94" ry="26.74"/>
<text text-anchor="middle" x="323" y="-46.67" font-family="Times,serif" font-size="14.00">USDT</text>
<text text-anchor="middle" x="323" y="-31.67" font-family="Times,serif" font-size="14.00">13</text>
</g>
<!-- token14 -->
<g id="node15" class="node">
<title>token14</title>
<ellipse fill="none" stroke="black" cx="445" cy="-42.87" rx="30.31" ry="26.74"/>
<text text-anchor="middle" x="445" y="-46.67" font-family="Times,serif" font-size="14.00">DAI</text>
<text text-anchor="middle" x="445" y="-31.67" font-family="Times,serif" font-size="14.00">14</text>
</g>
<!-- pool0&#45;&#45;token1 -->
<g id="edge2" class="edge">
<title>pool0&#45;&#45;token1</title>
<path fill="none" stroke="black" d="M179,-269.36C179,-258.77 179,-245.24 179,-233.54"/>
</g>
<!-- pool1&#45;&#45;token2 -->
<g id="edge4" class="edge">
<title>pool1&#45;&#45;token2</title>
<path fill="none" stroke="black" d="M330,-269.36C330,-258.77 330,-245.24 330,-233.54"/>
</g>
<!-- pool2&#45;&#45;token3 -->
<g id="edge6" class="edge">
<title>pool2&#45;&#45;token3</title>
<path fill="none" stroke="black" d="M481,-269.36C481,-258.77 481,-245.24 481,-233.54"/>
</g>
<!-- pool3&#45;&#45;token4 -->
<g id="edge8" class="edge">
<title>pool3&#45;&#45;token4</title>
<path fill="none" stroke="black" d="M632,-269.36C632,-258.77 632,-245.24 632,-233.54"/>
</g>
<!-- pool4&#45;&#45;token5 -->
<g id="edge10" class="edge">
<title>pool4&#45;&#45;token5</title>
<path fill="none" stroke="black" d="M783,-269.36C783,-258.77 783,-245.24 783,-233.54"/>
</g>
<!-- pool5&#45;&#45;token6 -->
<g id="edge12" class="edge">
<title>pool5&#45;&#45;token6</title>
<path fill="none" stroke="black" d="M934,-269.36C934,-258.77 934,-245.24 934,-233.54"/>
</g>
<!-- pool6&#45;&#45;token7 -->
<g id="edge14" class="edge">
<title>pool6&#45;&#45;token7</title>
<path fill="none" stroke="black" d="M1085,-269.36C1085,-258.77 1085,-245.24 1085,-233.54"/>
</g>
<!-- pool7&#45;&#45;token8 -->
<g id="edge16" class="edge">
<title>pool7&#45;&#45;token8</title>
<path fill="none" stroke="black" d="M1237.88,-269.36C1231.1,-258.31 1222.36,-244.05 1214.98,-232.02"/>
</g>
<!-- pool7&#45;&#45;token9 -->
<g id="edge17" class="edge">
<title>pool7&#45;&#45;token9</title>
<path fill="none" stroke="black" d="M1258.3,-269.36C1264.07,-258.13 1271.54,-243.58 1277.78,-231.42"/>
</g>
<!-- pool7&#45;&#45;token10 -->
<g id="edge18" class="edge">
<title>pool7&#45;&#45;token10</title>
<path fill="none" stroke="black" d="M1278.73,-269.36C1300.16,-256.29 1328.98,-238.72 1350.39,-225.66"/>
</g>
<!-- pool8&#45;&#45;token11 -->
<g id="edge22" class="edge">
<title>pool8&#45;&#45;token11</title>
<path fill="none" stroke="black" d="M65,-105.62C65,-95.03 65,-81.5 65,-69.8"/>
</g>
<!-- pool9&#45;&#45;token12 -->
<g id="edge24" class="edge">
<title>pool9&#45;&#45;token12</title>
<path fill="none" stroke="black" d="M187,-105.62C187,-95.03 187,-81.5 187,-69.8"/>
</g>
<!-- pool10&#45;&#45;token13 -->
<g id="edge26" class="edge">
<title>pool10&#45;&#45;token13</title>
<path fill="none" stroke="black" d="M323,-105.62C323,-95.03 323,-81.5 323,-69.8"/>
</g>
<!-- pool11&#45;&#45;token14 -->
<g id="edge28" class="edge">
<title>pool11&#45;&#45;token14</title>
<path fill="none" stroke="black" d="M445,-105.62C445,-95.03 445,-81.5 445,-69.8"/>
</g>
</g>
</svg>
