<?xml version="1.0" encoding="UTF-8" standalone="no"?>
<!DOCTYPE svg PUBLIC "-//W3C//DTD SVG 1.1//EN"
 "http://www.w3.org/Graphics/SVG/1.1/DTD/svg11.dtd">
<!-- Generated by graphviz version 2.43.0 (0)
 -->
<!-- Title: %3 Pages: 1 -->
<svg width="685pt" height="190pt"
 viewBox="0.00 0.00 684.65 190.00" xmlns="http://www.w3.org/2000/svg" xmlns:xlink="http://www.w3.org/1999/xlink">
<g id="graph0" class="graph" transform="scale(1 1) rotate(0) translate(4 186)">
<title>%3</title>
<polygon fill="white" stroke="transparent" points="-4,4 -4,-186 680.65,-186 680.65,4 -4,4"/>
<!-- user -->
<g id="node1" class="node">
<title>user</title>
<ellipse fill="none" stroke="black" cx="33.15" cy="-164" rx="33.29" ry="18"/>
<text text-anchor="middle" x="33.15" y="-160.3" font-family="Times,serif" font-size="14.00">User</text>
</g>
<!-- router -->
<g id="node2" class="node">
<title>router</title>
<polygon fill="none" stroke="black" points="326.15,-182 242.15,-182 242.15,-146 326.15,-146 326.15,-182"/>
<text text-anchor="middle" x="284.15" y="-160.3" font-family="Times,serif" font-size="14.00">RouterV2</text>
</g>
<!-- user&#45;&gt;router -->
<!-- adapter -->
<g id="node5" class="node">
<title>adapter</title>
<polygon fill="none" stroke="black" points="347.65,-36 220.65,-36 220.65,0 347.65,0 347.65,-36"/>
<text text-anchor="middle" x="284.15" y="-14.3" font-family="Times,serif" font-size="14.00">Router Adapter</text>
</g>
<!-- user&#45;&gt;adapter -->
<g id="edge3" class="edge">
<title>user:s&#45;&gt;adapter:w</title>
<path fill="none" stroke="black" d="M33.15,-146C33.15,-49.08 113.04,-19.98 208.91,-18.1"/>
<polygon fill="black" stroke="black" points="209.18,-21.6 219.15,-18 209.11,-14.6 209.18,-21.6"/>
<text text-anchor="start" x="55.15" y="-88.3" font-family="Times,serif" font-style="italic" font-size="14.00">1. Input tokens</text>
</g>
<!-- swappedTokens -->
<g id="node3" class="node">
<title>swappedTokens</title>
<text text-anchor="start" x="216.15" y="-88.3" font-family="Times,serif" font-style="italic" font-size="14.00">2. Swapped tokens</text>
</g>
<!-- router&#45;&gt;swappedTokens -->
<g id="edge4" class="edge">
<title>router&#45;&gt;swappedTokens</title>
<path fill="none" stroke="black" d="M284.15,-135.75C284.15,-126.77 284.15,-117.03 284.15,-109.03"/>
<polygon fill="black" stroke="black" points="280.65,-135.81 284.15,-145.81 287.65,-135.81 280.65,-135.81"/>
</g>
<!-- module -->
<g id="node4" class="node">
<title>module</title>
<polygon fill="none" stroke="black" stroke-dasharray="5,2" points="605.15,-182 483.15,-182 483.15,-146 605.15,-146 605.15,-182"/>
<text text-anchor="middle" x="544.15" y="-160.3" font-family="Times,serif" font-size="14.00">Bridge Module</text>
</g>
<!-- router&#45;&gt;module -->
<!-- bridgedTokens -->
<g id="node7" class="node">
<title>bridgedTokens</title>
<text text-anchor="start" x="480.65" y="-88.3" font-family="Times,serif" font-style="italic" font-size="14.00">3. Bridged tokens</text>
</g>
<!-- router&#45;&gt;bridgedTokens -->
<g id="edge6" class="edge">
<title>router:e&#45;&gt;bridgedTokens:n</title>
<path fill="none" stroke="black" d="M327.15,-164C352.02,-164 544.15,-133.87 544.15,-109"/>
</g>
<!-- swappedTokens&#45;&gt;adapter -->
<g id="edge5" class="edge">
<title>swappedTokens&#45;&gt;adapter</title>
<path fill="none" stroke="black" d="M284.15,-72.81C284.15,-61.65 284.15,-47.16 284.15,-36.03"/>
</g>
<!-- module&#45;&gt;bridgedTokens -->
<!-- bridge -->
<g id="node6" class="node">
<title>bridge</title>
<polygon fill="none" stroke="black" points="676.65,-36 411.65,-36 411.65,0 676.65,0 676.65,-36"/>
<text text-anchor="middle" x="544.15" y="-14.3" font-family="Times,serif" font-size="14.00">SynapseBridge | SynapseCCTP | ...</text>
</g>
<!-- bridgedTokens&#45;&gt;bridge -->
<g id="edge8" class="edge">
<title>bridgedTokens&#45;&gt;bridge</title>
<path fill="none" stroke="black" d="M544.15,-72.81C544.15,-64.79 544.15,-55.05 544.15,-46.07"/>
<polygon fill="black" stroke="black" points="547.65,-46.03 544.15,-36.03 540.65,-46.03 547.65,-46.03"/>
</g>
</g>
</svg>
