<?xml version="1.0" encoding="UTF-8" standalone="no"?>
<!DOCTYPE svg PUBLIC "-//W3C//DTD SVG 1.1//EN"
 "http://www.w3.org/Graphics/SVG/1.1/DTD/svg11.dtd">
<!-- Generated by graphviz version 2.43.0 (0)
 -->
<!-- Title: %3 Pages: 1 -->
<svg width="1035pt" height="219pt"
 viewBox="0.00 0.00 1035.39 219.00" xmlns="http://www.w3.org/2000/svg" xmlns:xlink="http://www.w3.org/1999/xlink">
<g id="graph0" class="graph" transform="scale(1 1) rotate(0) translate(4 215)">
<title>%3</title>
<polygon fill="white" stroke="transparent" points="-4,4 -4,-215 1031.39,-215 1031.39,4 -4,4"/>
<g id="clust1" class="cluster">
<title>cluster1</title>
<polygon fill="none" stroke="black" points="753.39,-43 753.39,-203 1019.39,-203 1019.39,-43 753.39,-43"/>
</g>
<!-- sdk -->
<g id="node1" class="node">
<title>sdk</title>
<ellipse fill="none" stroke="black" cx="31.2" cy="-177" rx="31.4" ry="18"/>
<text text-anchor="middle" x="31.2" y="-173.3" font-family="Times,serif" font-size="14.00">SDK</text>
</g>
<!-- router -->
<g id="node2" class="node">
<title>router</title>
<polygon fill="none" stroke="black" points="445.89,-196 338.89,-196 338.89,-158 445.89,-158 445.89,-196"/>
<text text-anchor="middle" x="392.39" y="-180.8" font-family="Times,serif" font-size="14.00">Origin Chain</text>
<text text-anchor="middle" x="392.39" y="-165.8" font-family="Times,serif" font-size="14.00">RouterV2</text>
</g>
<!-- sdk&#45;&gt;router -->
<g id="edge1" class="edge">
<title>sdk&#45;&gt;router</title>
<path fill="none" stroke="black" d="M62.51,-177C121.03,-177 250.63,-177 328.53,-177"/>
<polygon fill="black" stroke="black" points="328.7,-180.5 338.7,-177 328.7,-173.5 328.7,-180.5"/>
<text text-anchor="start" x="98.39" y="-194.8" font-family="Times,serif" font-style="italic" font-size="14.00">1. getOriginAmountOut</text>
<text text-anchor="start" x="80.39" y="-180.8" font-family="Times,serif" font-style="italic" font-size="14.00">(tokenIn, symbols,amountIn)</text>
</g>
<!-- getAmountOut -->
<g id="node3" class="node">
<title>getAmountOut</title>
<text text-anchor="start" x="330.39" y="-107.8" font-family="Times,serif" font-style="italic" font-size="14.00">3. getAmountOut</text>
<text text-anchor="start" x="311.39" y="-93.8" font-family="Times,serif" font-style="italic" font-size="14.00">(tokenIn, bridgeToken,</text>
<text text-anchor="start" x="355.39" y="-79.8" font-family="Times,serif" font-style="italic" font-size="14.00">amountIn)</text>
</g>
<!-- router&#45;&gt;getAmountOut -->
<g id="edge2" class="edge">
<title>router&#45;&gt;getAmountOut</title>
<path fill="none" stroke="black" d="M392.39,-157.77C392.39,-145.95 392.39,-134.13 392.39,-122.31"/>
</g>
<!-- module1 -->
<g id="node5" class="node">
<title>module1</title>
<polygon fill="none" stroke="black" stroke-dasharray="5,2" points="1011.39,-195 761.39,-195 761.39,-159 1011.39,-159 1011.39,-195"/>
<text text-anchor="middle" x="886.39" y="-173.3" font-family="Times,serif" font-size="14.00">Bridge Module (Synapse Bridge)</text>
</g>
<!-- router&#45;&gt;module1 -->
<g id="edge4" class="edge">
<title>router&#45;&gt;module1</title>
<path fill="none" stroke="black" d="M446.05,-177C518.25,-177 650.47,-177 751.07,-177"/>
<polygon fill="black" stroke="black" points="743.39,-180.5 753.39,-177 743.39,-173.5 743.39,-180.5"/>
<text text-anchor="start" x="522.39" y="-181.8" font-family="Times,serif" font-style="italic" font-size="14.00">2a. symbolToToken(symbol)</text>
</g>
<!-- module2 -->
<g id="node6" class="node">
<title>module2</title>
<polygon fill="none" stroke="black" stroke-dasharray="5,2" points="1007.39,-141 765.39,-141 765.39,-105 1007.39,-105 1007.39,-141"/>
<text text-anchor="middle" x="886.39" y="-119.3" font-family="Times,serif" font-size="14.00">Bridge Module (Synapse CCTP)</text>
</g>
<!-- router&#45;&gt;module2 -->
<g id="edge5" class="edge">
<title>router:se&#45;&gt;module2</title>
<path fill="none" stroke="black" d="M446.39,-158C487.01,-117.39 631.16,-112.39 743.33,-115.19"/>
<polygon fill="black" stroke="black" points="743.3,-118.69 753.4,-115.47 743.49,-111.69 743.3,-118.69"/>
<text text-anchor="start" x="499.39" y="-136.8" font-family="Times,serif" font-style="italic" font-size="14.00">2b. getMaxBridgedAmount(token)</text>
</g>
<!-- quoter -->
<g id="node4" class="node">
<title>quoter</title>
<polygon fill="none" stroke="black" points="434.89,-36 349.89,-36 349.89,0 434.89,0 434.89,-36"/>
<text text-anchor="middle" x="392.39" y="-14.3" font-family="Times,serif" font-size="14.00">QuoterV2</text>
</g>
<!-- getAmountOut&#45;&gt;quoter -->
<g id="edge3" class="edge">
<title>getAmountOut&#45;&gt;quoter</title>
<path fill="none" stroke="black" d="M392.39,-71.83C392.39,-63.29 392.39,-54.76 392.39,-46.23"/>
<polygon fill="black" stroke="black" points="395.89,-46.21 392.39,-36.21 388.89,-46.21 395.89,-46.21"/>
</g>
<!-- module3 -->
<g id="node7" class="node">
<title>module3</title>
<polygon fill="none" stroke="black" stroke-dasharray="5,2" points="1005.89,-87 766.89,-87 766.89,-51 1005.89,-51 1005.89,-87"/>
<text text-anchor="middle" x="886.39" y="-65.3" font-family="Times,serif" font-size="14.00">Bridge Module (Synapse &lt;...&gt;)</text>
</g>
</g>
</svg>
