<?xml version="1.0" encoding="UTF-8" standalone="no"?>
<!DOCTYPE svg PUBLIC "-//W3C//DTD SVG 1.1//EN"
 "http://www.w3.org/Graphics/SVG/1.1/DTD/svg11.dtd">
<!-- Generated by graphviz version 2.43.0 (0)
 -->
<!-- Title: %3 Pages: 1 -->
<svg width="1042pt" height="219pt"
 viewBox="0.00 0.00 1042.39 219.00" xmlns="http://www.w3.org/2000/svg" xmlns:xlink="http://www.w3.org/1999/xlink">
<g id="graph0" class="graph" transform="scale(1 1) rotate(0) translate(4 215)">
<title>%3</title>
<polygon fill="white" stroke="transparent" points="-4,4 -4,-215 1038.39,-215 1038.39,4 -4,4"/>
<g id="clust1" class="cluster">
<title>cluster1</title>
<polygon fill="none" stroke="black" points="760.39,-43 760.39,-203 1026.39,-203 1026.39,-43 760.39,-43"/>
</g>
<!-- sdk -->
<g id="node1" class="node">
<title>sdk</title>
<ellipse fill="none" stroke="black" cx="31.2" cy="-177" rx="31.4" ry="18"/>
<text text-anchor="middle" x="31.2" y="-173.3" font-family="Times,serif" font-size="14.00">SDK</text>
</g>
<!-- router -->
<g id="node2" class="node">
<title>router</title>
<polygon fill="none" stroke="black" points="461.39,-196 316.39,-196 316.39,-158 461.39,-158 461.39,-196"/>
<text text-anchor="middle" x="388.89" y="-180.8" font-family="Times,serif" font-size="14.00">Destination Chain</text>
<text text-anchor="middle" x="388.89" y="-165.8" font-family="Times,serif" font-size="14.00">RouterV2</text>
</g>
<!-- sdk&#45;&gt;router -->
<g id="edge1" class="edge">
<title>sdk&#45;&gt;router</title>
<path fill="none" stroke="black" stroke-dasharray="5,2" d="M72.6,-177C131.79,-177 242.95,-177 316.21,-177"/>
<polygon fill="black" stroke="black" points="72.52,-173.5 62.52,-177 72.52,-180.5 72.52,-173.5"/>
<text text-anchor="start" x="80.39" y="-194.8" font-family="Times,serif" font-style="italic" font-size="14.00">4. List of quotes for swaps:</text>
<text text-anchor="start" x="103.89" y="-180.8" font-family="Times,serif" font-style="italic" font-size="14.00">symbols ➞ tokenOut</text>
</g>
<!-- swapQuoteInclFee -->
<g id="node3" class="node">
<title>swapQuoteInclFee</title>
<text text-anchor="start" x="325.39" y="-107.8" font-family="Times,serif" font-style="italic" font-size="14.00">3. Quote for swap</text>
<text text-anchor="start" x="314.89" y="-93.8" font-family="Times,serif" font-style="italic" font-size="14.00">including bridge fee:</text>
<text text-anchor="start" x="300.39" y="-79.8" font-family="Times,serif" font-style="italic" font-size="14.00">bridgeToken ➞ tokenOut</text>
</g>
<!-- router&#45;&gt;swapQuoteInclFee -->
<g id="edge2" class="edge">
<title>router&#45;&gt;swapQuoteInclFee</title>
<path fill="none" stroke="black" stroke-dasharray="5,2" d="M388.89,-147.52C388.89,-139.12 388.89,-130.72 388.89,-122.31"/>
<polygon fill="black" stroke="black" points="385.39,-147.77 388.89,-157.77 392.39,-147.77 385.39,-147.77"/>
</g>
<!-- module1 -->
<g id="node5" class="node">
<title>module1</title>
<polygon fill="none" stroke="black" stroke-dasharray="5,2" points="1018.39,-195 768.39,-195 768.39,-159 1018.39,-159 1018.39,-195"/>
<text text-anchor="middle" x="893.39" y="-173.3" font-family="Times,serif" font-size="14.00">Bridge Module (Synapse Bridge)</text>
</g>
<!-- router&#45;&gt;module1 -->
<g id="edge4" class="edge">
<title>router&#45;&gt;module1</title>
<path fill="none" stroke="black" stroke-dasharray="5,2" d="M471.68,-177C549.8,-177 668.85,-177 760.4,-177"/>
<polygon fill="black" stroke="black" points="471.62,-173.5 461.62,-177 471.62,-180.5 471.62,-173.5"/>
<text text-anchor="start" x="503.39" y="-181.8" font-family="Times,serif" font-style="italic" font-size="14.00">2a. Bridge symbol&#39;s token address</text>
</g>
<!-- module2 -->
<g id="node6" class="node">
<title>module2</title>
<polygon fill="none" stroke="black" stroke-dasharray="5,2" points="1014.39,-141 772.39,-141 772.39,-105 1014.39,-105 1014.39,-141"/>
<text text-anchor="middle" x="893.39" y="-119.3" font-family="Times,serif" font-size="14.00">Bridge Module (Synapse CCTP)</text>
</g>
<!-- router&#45;&gt;module2 -->
<g id="edge5" class="edge">
<title>router:se&#45;&gt;module2</title>
<path fill="none" stroke="black" stroke-dasharray="5,2" d="M470.79,-151.44C519.94,-116.92 656.01,-113.07 760.4,-115.81"/>
<polygon fill="black" stroke="black" points="468.35,-148.92 462.89,-158 472.82,-154.3 468.35,-148.92"/>
<text text-anchor="start" x="525.89" y="-152.8" font-family="Times,serif" font-style="italic" font-size="14.00">2b. Fee amount for bridging</text>
<text text-anchor="start" x="560.39" y="-138.8" font-family="Times,serif" font-style="italic" font-size="14.00">token to this chain</text>
</g>
<!-- quoter -->
<g id="node4" class="node">
<title>quoter</title>
<polygon fill="none" stroke="black" points="431.39,-36 346.39,-36 346.39,0 431.39,0 431.39,-36"/>
<text text-anchor="middle" x="388.89" y="-14.3" font-family="Times,serif" font-size="14.00">QuoterV2</text>
</g>
<!-- swapQuoteInclFee&#45;&gt;quoter -->
<g id="edge3" class="edge">
<title>swapQuoteInclFee&#45;&gt;quoter</title>
<path fill="none" stroke="black" stroke-dasharray="5,2" d="M388.89,-71.83C388.89,-59.95 388.89,-48.08 388.89,-36.21"/>
</g>
<!-- module3 -->
<g id="node7" class="node">
<title>module3</title>
<polygon fill="none" stroke="black" stroke-dasharray="5,2" points="1012.89,-87 773.89,-87 773.89,-51 1012.89,-51 1012.89,-87"/>
<text text-anchor="middle" x="893.39" y="-65.3" font-family="Times,serif" font-size="14.00">Bridge Module (Synapse &lt;...&gt;)</text>
</g>
</g>
</svg>
