<?xml version="1.0" encoding="UTF-8" standalone="no"?>
<!DOCTYPE svg PUBLIC "-//W3C//DTD SVG 1.1//EN"
 "http://www.w3.org/Graphics/SVG/1.1/DTD/svg11.dtd">
<!-- Generated by graphviz version 2.43.0 (0)
 -->
<!-- Title: %3 Pages: 1 -->
<svg width="971pt" height="205pt"
 viewBox="0.00 0.00 971.39 205.00" xmlns="http://www.w3.org/2000/svg" xmlns:xlink="http://www.w3.org/1999/xlink">
<g id="graph0" class="graph" transform="scale(1 1) rotate(0) translate(4 201)">
<title>%3</title>
<polygon fill="white" stroke="transparent" points="-4,4 -4,-201 967.39,-201 967.39,4 -4,4"/>
<g id="clust1" class="cluster">
<title>cluster1</title>
<polygon fill="none" stroke="black" points="689.39,-29 689.39,-189 955.39,-189 955.39,-29 689.39,-29"/>
</g>
<!-- sdk -->
<g id="node1" class="node">
<title>sdk</title>
<ellipse fill="none" stroke="black" cx="31.2" cy="-163" rx="31.4" ry="18"/>
<text text-anchor="middle" x="31.2" y="-159.3" font-family="Times,serif" font-size="14.00">SDK</text>
</g>
<!-- router -->
<g id="node2" class="node">
<title>router</title>
<polygon fill="none" stroke="black" points="484.89,-182 339.89,-182 339.89,-144 484.89,-144 484.89,-182"/>
<text text-anchor="middle" x="412.39" y="-166.8" font-family="Times,serif" font-size="14.00">Destination Chain</text>
<text text-anchor="middle" x="412.39" y="-151.8" font-family="Times,serif" font-size="14.00">RouterV2</text>
</g>
<!-- sdk&#45;&gt;router -->
<g id="edge1" class="edge">
<title>sdk&#45;&gt;router</title>
<path fill="none" stroke="black" d="M62.59,-163C119.92,-163 245.81,-163 329.61,-163"/>
<polygon fill="black" stroke="black" points="329.61,-166.5 339.61,-163 329.61,-159.5 329.61,-166.5"/>
<text text-anchor="start" x="80.39" y="-180.8" font-family="Times,serif" font-style="italic" font-size="14.00">1. getConnectedBridgeTokens</text>
<text text-anchor="start" x="149.39" y="-166.8" font-family="Times,serif" font-style="italic" font-size="14.00">(tokenOut)</text>
</g>
<!-- findConnectedTokens -->
<g id="node3" class="node">
<title>findConnectedTokens</title>
<text text-anchor="start" x="326.89" y="-93.8" font-family="Times,serif" font-style="italic" font-size="14.00">3. findConnectedTokens</text>
<text text-anchor="start" x="321.39" y="-79.8" font-family="Times,serif" font-style="italic" font-size="14.00">(bridgeTokens, tokenOut)</text>
</g>
<!-- router&#45;&gt;findConnectedTokens -->
<g id="edge2" class="edge">
<title>router&#45;&gt;findConnectedTokens</title>
<path fill="none" stroke="black" d="M412.39,-143.75C412.39,-131.92 412.39,-120.08 412.39,-108.25"/>
</g>
<!-- module1 -->
<g id="node5" class="node">
<title>module1</title>
<polygon fill="none" stroke="black" stroke-dasharray="5,2" points="947.39,-181 697.39,-181 697.39,-145 947.39,-145 947.39,-181"/>
<text text-anchor="middle" x="822.39" y="-159.3" font-family="Times,serif" font-size="14.00">Bridge Module (Synapse Bridge)</text>
</g>
<!-- router&#45;&gt;module1 -->
<g id="edge4" class="edge">
<title>router&#45;&gt;module1</title>
<path fill="none" stroke="black" d="M484.93,-163C540.58,-163 619.4,-163 686.76,-163"/>
<polygon fill="black" stroke="black" points="679.39,-166.5 689.39,-163 679.39,-159.5 679.39,-166.5"/>
<text text-anchor="start" x="529.39" y="-167.8" font-family="Times,serif" font-style="italic" font-size="14.00">2. getBridgeTokens()</text>
</g>
<!-- quoter -->
<g id="node4" class="node">
<title>quoter</title>
<polygon fill="none" stroke="black" points="454.89,-36 369.89,-36 369.89,0 454.89,0 454.89,-36"/>
<text text-anchor="middle" x="412.39" y="-14.3" font-family="Times,serif" font-size="14.00">QuoterV2</text>
</g>
<!-- findConnectedTokens&#45;&gt;quoter -->
<g id="edge3" class="edge">
<title>findConnectedTokens&#45;&gt;quoter</title>
<path fill="none" stroke="black" d="M412.39,-71.95C412.39,-63.41 412.39,-54.86 412.39,-46.31"/>
<polygon fill="black" stroke="black" points="415.89,-46.28 412.39,-36.28 408.89,-46.28 415.89,-46.28"/>
</g>
<!-- module2 -->
<g id="node6" class="node">
<title>module2</title>
<polygon fill="none" stroke="black" stroke-dasharray="5,2" points="943.39,-127 701.39,-127 701.39,-91 943.39,-91 943.39,-127"/>
<text text-anchor="middle" x="822.39" y="-105.3" font-family="Times,serif" font-size="14.00">Bridge Module (Synapse CCTP)</text>
</g>
<!-- module3 -->
<g id="node7" class="node">
<title>module3</title>
<polygon fill="none" stroke="black" stroke-dasharray="5,2" points="941.89,-73 702.89,-73 702.89,-37 941.89,-37 941.89,-73"/>
<text text-anchor="middle" x="822.39" y="-51.3" font-family="Times,serif" font-size="14.00">Bridge Module (Synapse &lt;...&gt;)</text>
</g>
</g>
</svg>
