<?xml version="1.0" encoding="UTF-8" standalone="no"?>
<!DOCTYPE svg PUBLIC "-//W3C//DTD SVG 1.1//EN"
 "http://www.w3.org/Graphics/SVG/1.1/DTD/svg11.dtd">
<!-- Generated by graphviz version 2.43.0 (0)
 -->
<!-- Title: %3 Pages: 1 -->
<svg width="1046pt" height="204pt"
 viewBox="0.00 0.00 1046.39 204.00" xmlns="http://www.w3.org/2000/svg" xmlns:xlink="http://www.w3.org/1999/xlink">
<g id="graph0" class="graph" transform="scale(1 1) rotate(0) translate(4 200)">
<title>%3</title>
<polygon fill="white" stroke="transparent" points="-4,4 -4,-200 1042.39,-200 1042.39,4 -4,4"/>
<g id="clust1" class="cluster">
<title>cluster1</title>
<polygon fill="none" stroke="black" points="764.39,-28 764.39,-188 1030.39,-188 1030.39,-28 764.39,-28"/>
</g>
<!-- sdk -->
<g id="node1" class="node">
<title>sdk</title>
<ellipse fill="none" stroke="black" cx="31.2" cy="-162" rx="31.4" ry="18"/>
<text text-anchor="middle" x="31.2" y="-158.3" font-family="Times,serif" font-size="14.00">SDK</text>
</g>
<!-- router -->
<g id="node2" class="node">
<title>router</title>
<polygon fill="none" stroke="black" points="485.89,-180 401.89,-180 401.89,-144 485.89,-144 485.89,-180"/>
<text text-anchor="middle" x="443.89" y="-158.3" font-family="Times,serif" font-size="14.00">RouterV2</text>
</g>
<!-- sdk&#45;&gt;router -->
<g id="edge1" class="edge">
<title>sdk&#45;&gt;router</title>
<path fill="none" stroke="black" stroke-dasharray="5,2" d="M72.83,-162C151.25,-162 322.72,-162 401.64,-162"/>
<polygon fill="black" stroke="black" points="72.4,-158.5 62.4,-162 72.4,-165.5 72.4,-158.5"/>
<text text-anchor="start" x="80.39" y="-166.8" font-family="Times,serif" font-style="italic" font-size="14.00">4. List of connected tokens/symbols</text>
</g>
<!-- allConnectedTokens -->
<g id="node3" class="node">
<title>allConnectedTokens</title>
<text text-anchor="start" x="384.89" y="-93.8" font-family="Times,serif" font-style="italic" font-size="14.00">3. Bridge tokens</text>
<text text-anchor="start" x="362.39" y="-79.8" font-family="Times,serif" font-style="italic" font-size="14.00">connected to tokenOut</text>
</g>
<!-- router&#45;&gt;allConnectedTokens -->
<g id="edge2" class="edge">
<title>router&#45;&gt;allConnectedTokens</title>
<path fill="none" stroke="black" stroke-dasharray="5,2" d="M443.89,-133.92C443.89,-125.37 443.89,-116.83 443.89,-108.28"/>
<polygon fill="black" stroke="black" points="440.39,-133.95 443.89,-143.95 447.39,-133.95 440.39,-133.95"/>
</g>
<!-- module1 -->
<g id="node5" class="node">
<title>module1</title>
<polygon fill="none" stroke="black" stroke-dasharray="5,2" points="1022.39,-180 772.39,-180 772.39,-144 1022.39,-144 1022.39,-180"/>
<text text-anchor="middle" x="897.39" y="-158.3" font-family="Times,serif" font-size="14.00">Bridge Module (Synapse Bridge)</text>
</g>
<!-- router&#45;&gt;module1 -->
<g id="edge4" class="edge">
<title>router&#45;&gt;module1</title>
<path fill="none" stroke="black" stroke-dasharray="5,2" d="M496.41,-162C561.19,-162 674.78,-162 764.4,-162"/>
<polygon fill="black" stroke="black" points="496.16,-158.5 486.16,-162 496.16,-165.5 496.16,-158.5"/>
<text text-anchor="start" x="551.39" y="-166.8" font-family="Times,serif" font-style="italic" font-size="14.00">2. All bridge tokens/symbols</text>
</g>
<!-- quoter -->
<g id="node4" class="node">
<title>quoter</title>
<polygon fill="none" stroke="black" points="486.39,-36 401.39,-36 401.39,0 486.39,0 486.39,-36"/>
<text text-anchor="middle" x="443.89" y="-14.3" font-family="Times,serif" font-size="14.00">QuoterV2</text>
</g>
<!-- allConnectedTokens&#45;&gt;quoter -->
<g id="edge3" class="edge">
<title>allConnectedTokens&#45;&gt;quoter</title>
<path fill="none" stroke="black" stroke-dasharray="5,2" d="M443.89,-71.95C443.89,-60.06 443.89,-48.17 443.89,-36.28"/>
</g>
<!-- module2 -->
<g id="node6" class="node">
<title>module2</title>
<polygon fill="none" stroke="black" stroke-dasharray="5,2" points="1018.39,-126 776.39,-126 776.39,-90 1018.39,-90 1018.39,-126"/>
<text text-anchor="middle" x="897.39" y="-104.3" font-family="Times,serif" font-size="14.00">Bridge Module (Synapse CCTP)</text>
</g>
<!-- module3 -->
<g id="node7" class="node">
<title>module3</title>
<polygon fill="none" stroke="black" stroke-dasharray="5,2" points="1016.89,-72 777.89,-72 777.89,-36 1016.89,-36 1016.89,-72"/>
<text text-anchor="middle" x="897.39" y="-50.3" font-family="Times,serif" font-size="14.00">Bridge Module (Synapse &lt;...&gt;)</text>
</g>
</g>
</svg>
