<?xml version="1.0" encoding="UTF-8" standalone="no"?>
<!DOCTYPE svg PUBLIC "-//W3C//DTD SVG 1.1//EN"
 "http://www.w3.org/Graphics/SVG/1.1/DTD/svg11.dtd">
<!-- Generated by graphviz version 2.43.0 (0)
 -->
<!-- Title: %3 Pages: 1 -->
<svg width="1002pt" height="227pt"
 viewBox="0.00 0.00 1002.39 227.00" xmlns="http://www.w3.org/2000/svg" xmlns:xlink="http://www.w3.org/1999/xlink">
<g id="graph0" class="graph" transform="scale(1 1) rotate(0) translate(4 223)">
<title>%3</title>
<polygon fill="white" stroke="transparent" points="-4,4 -4,-223 998.39,-223 998.39,4 -4,4"/>
<g id="clust1" class="cluster">
<title>cluster1</title>
<polygon fill="none" stroke="black" points="720.39,-43 720.39,-203 986.39,-203 986.39,-43 720.39,-43"/>
</g>
<!-- sdk -->
<g id="node1" class="node">
<title>sdk</title>
<ellipse fill="none" stroke="black" cx="31.2" cy="-177" rx="31.4" ry="18"/>
<text text-anchor="middle" x="31.2" y="-173.3" font-family="Times,serif" font-size="14.00">SDK</text>
</g>
<!-- router -->
<g id="node2" class="node">
<title>router</title>
<polygon fill="none" stroke="black" points="471.89,-196 326.89,-196 326.89,-158 471.89,-158 471.89,-196"/>
<text text-anchor="middle" x="399.39" y="-180.8" font-family="Times,serif" font-size="14.00">Destination Chain</text>
<text text-anchor="middle" x="399.39" y="-165.8" font-family="Times,serif" font-size="14.00">RouterV2</text>
</g>
<!-- sdk&#45;&gt;router -->
<g id="edge1" class="edge">
<title>sdk&#45;&gt;router</title>
<path fill="none" stroke="black" d="M62.48,-177C117.61,-177 236.1,-177 316.55,-177"/>
<polygon fill="black" stroke="black" points="316.66,-180.5 326.66,-177 316.66,-173.5 316.66,-180.5"/>
<text text-anchor="start" x="80.39" y="-208.8" font-family="Times,serif" font-style="italic" font-size="14.00">1. getDestinationAmountOut</text>
<text text-anchor="start" x="99.89" y="-194.8" font-family="Times,serif" font-style="italic" font-size="14.00">({symbol, amountIn}[],</text>
<text text-anchor="start" x="147.39" y="-180.8" font-family="Times,serif" font-style="italic" font-size="14.00">tokenOut)</text>
</g>
<!-- getAmountOut -->
<g id="node3" class="node">
<title>getAmountOut</title>
<text text-anchor="start" x="337.39" y="-107.8" font-family="Times,serif" font-style="italic" font-size="14.00">3. getAmountOut</text>
<text text-anchor="start" x="312.39" y="-93.8" font-family="Times,serif" font-style="italic" font-size="14.00">(bridgeToken, tokenOut,</text>
<text text-anchor="start" x="316.89" y="-79.8" font-family="Times,serif" font-style="italic" font-size="14.00">amountIn &#45; feeAmount)</text>
</g>
<!-- router&#45;&gt;getAmountOut -->
<g id="edge2" class="edge">
<title>router&#45;&gt;getAmountOut</title>
<path fill="none" stroke="black" d="M399.39,-157.77C399.39,-145.95 399.39,-134.13 399.39,-122.31"/>
</g>
<!-- module1 -->
<g id="node5" class="node">
<title>module1</title>
<polygon fill="none" stroke="black" stroke-dasharray="5,2" points="978.39,-195 728.39,-195 728.39,-159 978.39,-159 978.39,-195"/>
<text text-anchor="middle" x="853.39" y="-173.3" font-family="Times,serif" font-size="14.00">Bridge Module (Synapse Bridge)</text>
</g>
<!-- router&#45;&gt;module1 -->
<g id="edge4" class="edge">
<title>router&#45;&gt;module1</title>
<path fill="none" stroke="black" d="M472.02,-177C537.9,-177 637.32,-177 717.99,-177"/>
<polygon fill="black" stroke="black" points="710.39,-180.5 720.39,-177 710.39,-173.5 710.39,-180.5"/>
<text text-anchor="start" x="512.39" y="-181.8" font-family="Times,serif" font-style="italic" font-size="14.00">2a. symbolToToken(symbol)</text>
</g>
<!-- module2 -->
<g id="node6" class="node">
<title>module2</title>
<polygon fill="none" stroke="black" stroke-dasharray="5,2" points="974.39,-141 732.39,-141 732.39,-105 974.39,-105 974.39,-141"/>
<text text-anchor="middle" x="853.39" y="-119.3" font-family="Times,serif" font-size="14.00">Bridge Module (Synapse CCTP)</text>
</g>
<!-- router&#45;&gt;module2 -->
<g id="edge5" class="edge">
<title>router:se&#45;&gt;module2</title>
<path fill="none" stroke="black" d="M473.39,-158C533.81,-97.58 629.89,-89.27 710.19,-95.84"/>
<polygon fill="black" stroke="black" points="710.12,-99.35 720.4,-96.76 710.75,-92.38 710.12,-99.35"/>
<text text-anchor="start" x="525.39" y="-144.8" font-family="Times,serif" font-style="italic" font-size="14.00">2b. calculateFeeAmount</text>
<text text-anchor="start" x="525.39" y="-130.8" font-family="Times,serif" font-style="italic" font-size="14.00">(bridgeToken,amountIn)</text>
</g>
<!-- quoter -->
<g id="node4" class="node">
<title>quoter</title>
<polygon fill="none" stroke="black" points="441.89,-36 356.89,-36 356.89,0 441.89,0 441.89,-36"/>
<text text-anchor="middle" x="399.39" y="-14.3" font-family="Times,serif" font-size="14.00">QuoterV2</text>
</g>
<!-- getAmountOut&#45;&gt;quoter -->
<g id="edge3" class="edge">
<title>getAmountOut&#45;&gt;quoter</title>
<path fill="none" stroke="black" d="M399.39,-71.83C399.39,-63.29 399.39,-54.76 399.39,-46.23"/>
<polygon fill="black" stroke="black" points="402.89,-46.21 399.39,-36.21 395.89,-46.21 402.89,-46.21"/>
</g>
<!-- module3 -->
<g id="node7" class="node">
<title>module3</title>
<polygon fill="none" stroke="black" stroke-dasharray="5,2" points="972.89,-87 733.89,-87 733.89,-51 972.89,-51 972.89,-87"/>
<text text-anchor="middle" x="853.39" y="-65.3" font-family="Times,serif" font-size="14.00">Bridge Module (Synapse &lt;...&gt;)</text>
</g>
</g>
</svg>
