<?xml version="1.0" encoding="UTF-8" standalone="no"?>
<!DOCTYPE svg PUBLIC "-//W3C//DTD SVG 1.1//EN"
 "http://www.w3.org/Graphics/SVG/1.1/DTD/svg11.dtd">
<!-- Generated by graphviz version 2.43.0 (0)
 -->
<!-- Title: %3 Pages: 1 -->
<svg width="971pt" height="204pt"
 viewBox="0.00 0.00 971.39 204.00" xmlns="http://www.w3.org/2000/svg" xmlns:xlink="http://www.w3.org/1999/xlink">
<g id="graph0" class="graph" transform="scale(1 1) rotate(0) translate(4 200)">
<title>%3</title>
<polygon fill="white" stroke="transparent" points="-4,4 -4,-200 967.39,-200 967.39,4 -4,4"/>
<g id="clust1" class="cluster">
<title>cluster1</title>
<polygon fill="none" stroke="black" points="689.39,-28 689.39,-188 955.39,-188 955.39,-28 689.39,-28"/>
</g>
<!-- sdk -->
<g id="node1" class="node">
<title>sdk</title>
<ellipse fill="none" stroke="black" cx="31.2" cy="-162" rx="31.4" ry="18"/>
<text text-anchor="middle" x="31.2" y="-158.3" font-family="Times,serif" font-size="14.00">SDK</text>
</g>
<!-- router -->
<g id="node2" class="node">
<title>router</title>
<polygon fill="none" stroke="black" points="454.39,-180 370.39,-180 370.39,-144 454.39,-144 454.39,-180"/>
<text text-anchor="middle" x="412.39" y="-158.3" font-family="Times,serif" font-size="14.00">RouterV2</text>
</g>
<!-- sdk&#45;&gt;router -->
<g id="edge1" class="edge">
<title>sdk&#45;&gt;router</title>
<path fill="none" stroke="black" d="M62.59,-162C127.34,-162 279.54,-162 359.79,-162"/>
<polygon fill="black" stroke="black" points="360.15,-165.5 370.15,-162 360.15,-158.5 360.15,-165.5"/>
<text text-anchor="start" x="80.39" y="-179.8" font-family="Times,serif" font-style="italic" font-size="14.00">1. getConnectedBridgeTokens</text>
<text text-anchor="start" x="149.39" y="-165.8" font-family="Times,serif" font-style="italic" font-size="14.00">(tokenOut)</text>
</g>
<!-- findConnectedTokens -->
<g id="node3" class="node">
<title>findConnectedTokens</title>
<text text-anchor="start" x="326.89" y="-93.8" font-family="Times,serif" font-style="italic" font-size="14.00">3. findConnectedTokens</text>
<text text-anchor="start" x="321.39" y="-79.8" font-family="Times,serif" font-style="italic" font-size="14.00">(bridgeTokens, tokenOut)</text>
</g>
<!-- router&#45;&gt;findConnectedTokens -->
<g id="edge2" class="edge">
<title>router&#45;&gt;findConnectedTokens</title>
<path fill="none" stroke="black" d="M412.39,-143.95C412.39,-132.06 412.39,-120.17 412.39,-108.28"/>
</g>
<!-- module1 -->
<g id="node5" class="node">
<title>module1</title>
<polygon fill="none" stroke="black" stroke-dasharray="5,2" points="947.39,-180 697.39,-180 697.39,-144 947.39,-144 947.39,-180"/>
<text text-anchor="middle" x="822.39" y="-158.3" font-family="Times,serif" font-size="14.00">Bridge Module (Synapse Bridge)</text>
</g>
<!-- router&#45;&gt;module1 -->
<g id="edge4" class="edge">
<title>router&#45;&gt;module1</title>
<path fill="none" stroke="black" d="M454.76,-162C508.87,-162 606.29,-162 687.11,-162"/>
<polygon fill="black" stroke="black" points="679.39,-165.5 689.39,-162 679.39,-158.5 679.39,-165.5"/>
<text text-anchor="start" x="529.39" y="-166.8" font-family="Times,serif" font-style="italic" font-size="14.00">2. getBridgeTokens()</text>
</g>
<!-- quoter -->
<g id="node4" class="node">
<title>quoter</title>
<polygon fill="none" stroke="black" points="454.89,-36 369.89,-36 369.89,0 454.89,0 454.89,-36"/>
<text text-anchor="middle" x="412.39" y="-14.3" font-family="Times,serif" font-size="14.00">QuoterV2</text>
</g>
<!-- findConnectedTokens&#45;&gt;quoter -->
<g id="edge3" class="edge">
<title>findConnectedTokens&#45;&gt;quoter</title>
<path fill="none" stroke="black" d="M412.39,-71.95C412.39,-63.41 412.39,-54.86 412.39,-46.31"/>
<polygon fill="black" stroke="black" points="415.89,-46.28 412.39,-36.28 408.89,-46.28 415.89,-46.28"/>
</g>
<!-- module2 -->
<g id="node6" class="node">
<title>module2</title>
<polygon fill="none" stroke="black" stroke-dasharray="5,2" points="943.39,-126 701.39,-126 701.39,-90 943.39,-90 943.39,-126"/>
<text text-anchor="middle" x="822.39" y="-104.3" font-family="Times,serif" font-size="14.00">Bridge Module (Synapse CCTP)</text>
</g>
<!-- module3 -->
<g id="node7" class="node">
<title>module3</title>
<polygon fill="none" stroke="black" stroke-dasharray="5,2" points="941.89,-72 702.89,-72 702.89,-36 941.89,-36 941.89,-72"/>
<text text-anchor="middle" x="822.39" y="-50.3" font-family="Times,serif" font-size="14.00">Bridge Module (Synapse &lt;...&gt;)</text>
</g>
</g>
</svg>
