<?xml version="1.0" encoding="UTF-8" standalone="no"?>
<!DOCTYPE svg PUBLIC "-//W3C//DTD SVG 1.1//EN"
 "http://www.w3.org/Graphics/SVG/1.1/DTD/svg11.dtd">
<!-- Generated by graphviz version 2.43.0 (0)
 -->
<!-- Title: %3 Pages: 1 -->
<svg width="1030pt" height="205pt"
 viewBox="0.00 0.00 1030.39 205.00" xmlns="http://www.w3.org/2000/svg" xmlns:xlink="http://www.w3.org/1999/xlink">
<g id="graph0" class="graph" transform="scale(1 1) rotate(0) translate(4 201)">
<title>%3</title>
<polygon fill="white" stroke="transparent" points="-4,4 -4,-201 1026.39,-201 1026.39,4 -4,4"/>
<g id="clust1" class="cluster">
<title>cluster1</title>
<polygon fill="none" stroke="black" points="748.39,-29 748.39,-189 1014.39,-189 1014.39,-29 748.39,-29"/>
</g>
<!-- sdk -->
<g id="node1" class="node">
<title>sdk</title>
<ellipse fill="none" stroke="black" cx="31.2" cy="-163" rx="31.4" ry="18"/>
<text text-anchor="middle" x="31.2" y="-159.3" font-family="Times,serif" font-size="14.00">SDK</text>
</g>
<!-- router -->
<g id="node2" class="node">
<title>router</title>
<polygon fill="none" stroke="black" points="436.39,-182 329.39,-182 329.39,-144 436.39,-144 436.39,-182"/>
<text text-anchor="middle" x="382.89" y="-166.8" font-family="Times,serif" font-size="14.00">Origin Chain</text>
<text text-anchor="middle" x="382.89" y="-151.8" font-family="Times,serif" font-size="14.00">RouterV2</text>
</g>
<!-- sdk&#45;&gt;router -->
<g id="edge1" class="edge">
<title>sdk&#45;&gt;router</title>
<path fill="none" stroke="black" stroke-dasharray="5,2" d="M72.65,-163C136.13,-163 259.15,-163 329.38,-163"/>
<polygon fill="black" stroke="black" points="72.62,-159.5 62.62,-163 72.62,-166.5 72.62,-159.5"/>
<text text-anchor="start" x="80.39" y="-180.8" font-family="Times,serif" font-style="italic" font-size="14.00">4. List of quotes for swaps:</text>
<text text-anchor="start" x="109.89" y="-166.8" font-family="Times,serif" font-style="italic" font-size="14.00">tokenIn ➞ symbols</text>
</g>
<!-- swapQuote -->
<g id="node3" class="node">
<title>swapQuote</title>
<text text-anchor="start" x="316.89" y="-93.8" font-family="Times,serif" font-style="italic" font-size="14.00">3. Quote for swap:</text>
<text text-anchor="start" x="300.39" y="-79.8" font-family="Times,serif" font-style="italic" font-size="14.00">tokenIn ➞ bridgeToken</text>
</g>
<!-- router&#45;&gt;swapQuote -->
<g id="edge2" class="edge">
<title>router&#45;&gt;swapQuote</title>
<path fill="none" stroke="black" stroke-dasharray="5,2" d="M382.89,-133.49C382.89,-125.08 382.89,-116.66 382.89,-108.25"/>
<polygon fill="black" stroke="black" points="379.39,-133.75 382.89,-143.75 386.39,-133.75 379.39,-133.75"/>
</g>
<!-- module1 -->
<g id="node5" class="node">
<title>module1</title>
<polygon fill="none" stroke="black" stroke-dasharray="5,2" points="1006.39,-181 756.39,-181 756.39,-145 1006.39,-145 1006.39,-181"/>
<text text-anchor="middle" x="881.39" y="-159.3" font-family="Times,serif" font-size="14.00">Bridge Module (Synapse Bridge)</text>
</g>
<!-- router&#45;&gt;module1 -->
<g id="edge4" class="edge">
<title>router&#45;&gt;module1</title>
<path fill="none" stroke="black" stroke-dasharray="5,2" d="M446.65,-163C522.09,-163 650.74,-163 748.4,-163"/>
<polygon fill="black" stroke="black" points="446.56,-159.5 436.56,-163 446.56,-166.5 446.56,-159.5"/>
<text text-anchor="start" x="491.39" y="-167.8" font-family="Times,serif" font-style="italic" font-size="14.00">2a. Bridge symbol&#39;s token address</text>
</g>
<!-- module2 -->
<g id="node6" class="node">
<title>module2</title>
<polygon fill="none" stroke="black" stroke-dasharray="5,2" points="1002.39,-127 760.39,-127 760.39,-91 1002.39,-91 1002.39,-127"/>
<text text-anchor="middle" x="881.39" y="-105.3" font-family="Times,serif" font-size="14.00">Bridge Module (Synapse CCTP)</text>
</g>
<!-- router&#45;&gt;module2 -->
<g id="edge5" class="edge">
<title>router:se&#45;&gt;module2</title>
<path fill="none" stroke="black" stroke-dasharray="5,2" d="M444.82,-137.39C496.06,-101.17 639.91,-97.95 748.4,-101.31"/>
<polygon fill="black" stroke="black" points="442.33,-134.91 436.89,-144 446.82,-140.28 442.33,-134.91"/>
<text text-anchor="start" x="501.39" y="-132.8" font-family="Times,serif" font-style="italic" font-size="14.00">2b. Maximum amount of tokens</text>
<text text-anchor="start" x="537.89" y="-118.8" font-family="Times,serif" font-style="italic" font-size="14.00">that could be bridged</text>
</g>
<!-- quoter -->
<g id="node4" class="node">
<title>quoter</title>
<polygon fill="none" stroke="black" points="425.39,-36 340.39,-36 340.39,0 425.39,0 425.39,-36"/>
<text text-anchor="middle" x="382.89" y="-14.3" font-family="Times,serif" font-size="14.00">QuoterV2</text>
</g>
<!-- swapQuote&#45;&gt;quoter -->
<g id="edge3" class="edge">
<title>swapQuote&#45;&gt;quoter</title>
<path fill="none" stroke="black" stroke-dasharray="5,2" d="M382.89,-71.95C382.89,-60.06 382.89,-48.17 382.89,-36.28"/>
</g>
<!-- module3 -->
<g id="node7" class="node">
<title>module3</title>
<polygon fill="none" stroke="black" stroke-dasharray="5,2" points="1000.89,-73 761.89,-73 761.89,-37 1000.89,-37 1000.89,-73"/>
<text text-anchor="middle" x="881.39" y="-51.3" font-family="Times,serif" font-size="14.00">Bridge Module (Synapse &lt;...&gt;)</text>
</g>
</g>
</svg>
