<?xml version="1.0" encoding="UTF-8" standalone="no"?>
<!DOCTYPE svg PUBLIC "-//W3C//DTD SVG 1.1//EN"
 "http://www.w3.org/Graphics/SVG/1.1/DTD/svg11.dtd">
<!-- Generated by graphviz version 2.43.0 (0)
 -->
<!-- Title: %3 Pages: 1 -->
<svg width="1071pt" height="205pt"
 viewBox="0.00 0.00 1071.39 205.00" xmlns="http://www.w3.org/2000/svg" xmlns:xlink="http://www.w3.org/1999/xlink">
<g id="graph0" class="graph" transform="scale(1 1) rotate(0) translate(4 201)">
<title>%3</title>
<polygon fill="white" stroke="transparent" points="-4,4 -4,-201 1067.39,-201 1067.39,4 -4,4"/>
<g id="clust1" class="cluster">
<title>cluster1</title>
<polygon fill="none" stroke="black" points="789.39,-29 789.39,-189 1055.39,-189 1055.39,-29 789.39,-29"/>
</g>
<!-- sdk -->
<g id="node1" class="node">
<title>sdk</title>
<ellipse fill="none" stroke="black" cx="31.2" cy="-163" rx="31.4" ry="18"/>
<text text-anchor="middle" x="31.2" y="-159.3" font-family="Times,serif" font-size="14.00">SDK</text>
</g>
<!-- router -->
<g id="node2" class="node">
<title>router</title>
<polygon fill="none" stroke="black" points="516.39,-182 371.39,-182 371.39,-144 516.39,-144 516.39,-182"/>
<text text-anchor="middle" x="443.89" y="-166.8" font-family="Times,serif" font-size="14.00">Destination Chain</text>
<text text-anchor="middle" x="443.89" y="-151.8" font-family="Times,serif" font-size="14.00">RouterV2</text>
</g>
<!-- sdk&#45;&gt;router -->
<g id="edge1" class="edge">
<title>sdk&#45;&gt;router</title>
<path fill="none" stroke="black" stroke-dasharray="5,2" d="M72.47,-163C141.74,-163 284.36,-163 371.02,-163"/>
<polygon fill="black" stroke="black" points="72.4,-159.5 62.4,-163 72.4,-166.5 72.4,-159.5"/>
<text text-anchor="start" x="80.39" y="-167.8" font-family="Times,serif" font-style="italic" font-size="14.00">4. List of connected tokens/symbols</text>
</g>
<!-- allConnectedTokens -->
<g id="node3" class="node">
<title>allConnectedTokens</title>
<text text-anchor="start" x="384.89" y="-93.8" font-family="Times,serif" font-style="italic" font-size="14.00">3. Bridge tokens</text>
<text text-anchor="start" x="362.39" y="-79.8" font-family="Times,serif" font-style="italic" font-size="14.00">connected to tokenOut</text>
</g>
<!-- router&#45;&gt;allConnectedTokens -->
<g id="edge2" class="edge">
<title>router&#45;&gt;allConnectedTokens</title>
<path fill="none" stroke="black" stroke-dasharray="5,2" d="M443.89,-133.49C443.89,-125.08 443.89,-116.66 443.89,-108.25"/>
<polygon fill="black" stroke="black" points="440.39,-133.75 443.89,-143.75 447.39,-133.75 440.39,-133.75"/>
</g>
<!-- module1 -->
<g id="node5" class="node">
<title>module1</title>
<polygon fill="none" stroke="black" stroke-dasharray="5,2" points="1047.39,-181 797.39,-181 797.39,-145 1047.39,-145 1047.39,-181"/>
<text text-anchor="middle" x="922.39" y="-159.3" font-family="Times,serif" font-size="14.00">Bridge Module (Synapse Bridge)</text>
</g>
<!-- router&#45;&gt;module1 -->
<g id="edge4" class="edge">
<title>router&#45;&gt;module1</title>
<path fill="none" stroke="black" stroke-dasharray="5,2" d="M526.74,-163C598.86,-163 705.25,-163 789.39,-163"/>
<polygon fill="black" stroke="black" points="526.49,-159.5 516.49,-163 526.49,-166.5 526.49,-159.5"/>
<text text-anchor="start" x="559.89" y="-167.8" font-family="Times,serif" font-style="italic" font-size="14.00">2a. All bridge tokens/symbols</text>
</g>
<!-- module2 -->
<g id="node6" class="node">
<title>module2</title>
<polygon fill="none" stroke="black" stroke-dasharray="5,2" points="1043.39,-127 801.39,-127 801.39,-91 1043.39,-91 1043.39,-127"/>
<text text-anchor="middle" x="922.39" y="-105.3" font-family="Times,serif" font-size="14.00">Bridge Module (Synapse CCTP)</text>
</g>
<!-- router&#45;&gt;module2 -->
<g id="edge5" class="edge">
<title>router:se&#45;&gt;module2:w</title>
<path fill="none" stroke="black" stroke-dasharray="5,2" d="M524.75,-136.72C563.22,-93.17 503.38,-108.6 789.4,-108.99"/>
<polygon fill="black" stroke="black" points="522.2,-134.32 517.89,-144 527.3,-139.12 522.2,-134.32"/>
<text text-anchor="start" x="551.39" y="-125.8" font-family="Times,serif" font-style="italic" font-size="14.00">2b. Possible post&#45;bridge actions</text>
<text text-anchor="start" x="591.39" y="-111.8" font-family="Times,serif" font-style="italic" font-size="14.00"> for the bridge token</text>
</g>
<!-- quoter -->
<g id="node4" class="node">
<title>quoter</title>
<polygon fill="none" stroke="black" points="486.39,-36 401.39,-36 401.39,0 486.39,0 486.39,-36"/>
<text text-anchor="middle" x="443.89" y="-14.3" font-family="Times,serif" font-size="14.00">QuoterV2</text>
</g>
<!-- allConnectedTokens&#45;&gt;quoter -->
<g id="edge3" class="edge">
<title>allConnectedTokens&#45;&gt;quoter</title>
<path fill="none" stroke="black" stroke-dasharray="5,2" d="M443.89,-71.95C443.89,-60.06 443.89,-48.17 443.89,-36.28"/>
</g>
<!-- module3 -->
<g id="node7" class="node">
<title>module3</title>
<polygon fill="none" stroke="black" stroke-dasharray="5,2" points="1041.89,-73 802.89,-73 802.89,-37 1041.89,-37 1041.89,-73"/>
<text text-anchor="middle" x="922.39" y="-51.3" font-family="Times,serif" font-size="14.00">Bridge Module (Synapse &lt;...&gt;)</text>
</g>
</g>
</svg>
