<?xml version="1.0" encoding="UTF-8" standalone="no"?>
<!DOCTYPE svg PUBLIC "-//W3C//DTD SVG 1.1//EN"
 "http://www.w3.org/Graphics/SVG/1.1/DTD/svg11.dtd">
<!-- Generated by graphviz version 2.43.0 (0)
 -->
<!-- Title: G Pages: 1 -->
<svg width="713pt" height="348pt"
 viewBox="0.00 0.00 713.00 348.00" xmlns="http://www.w3.org/2000/svg" xmlns:xlink="http://www.w3.org/1999/xlink">
<g id="graph0" class="graph" transform="scale(1 1) rotate(0) translate(4 344)">
<title>G</title>
<polygon fill="white" stroke="transparent" points="-4,4 -4,-344 709,-344 709,4 -4,4"/>
<g id="clust1" class="cluster">
<title>cluster0</title>
<polygon fill="none" stroke="black" stroke-dasharray="1,5" points="16,-152 16,-276 264,-276 264,-152 16,-152"/>
</g>
<g id="clust3" class="cluster">
<title>cluster1</title>
<polygon fill="none" stroke="black" stroke-dasharray="1,5" points="8,-8 8,-132 236,-132 236,-8 8,-8"/>
</g>
<g id="clust5" class="cluster">
<title>cluster2</title>
<polygon fill="none" stroke="black" stroke-dasharray="1,5" points="286,-152 286,-276 697,-276 697,-152 286,-152"/>
</g>
<g id="clust7" class="cluster">
<title>cluster3</title>
<polygon fill="none" stroke="black" stroke-dasharray="1,5" points="244,-8 244,-132 472,-132 472,-8 244,-8"/>
</g>
<!-- token0 -->
<g id="node1" class="node">
<title>token0</title>
<ellipse fill="none" stroke="black" cx="282" cy="-322" rx="50.89" ry="18"/>
<text text-anchor="middle" x="282" y="-318.3" font-family="Times,serif" font-size="14.00">0: USDC</text>
</g>
<!-- pool0 -->
<g id="node8" class="node">
<title>pool0</title>
<polygon fill="none" stroke="black" stroke-dasharray="5,2" points="256.5,-268 23.5,-268 23.5,-232 256.5,-232 256.5,-268"/>
<text text-anchor="middle" x="140" y="-246.3" font-family="Times,serif" font-size="14.00">UniswapV3.BaseSwap 0x8849</text>
</g>
<!-- token0&#45;&#45;pool0 -->
<g id="edge1" class="edge">
<title>token0&#45;&#45;pool0</title>
<path fill="none" stroke="black" d="M253.61,-307C230.86,-295.79 198.86,-280.02 174.62,-268.07"/>
</g>
<!-- pool2 -->
<g id="node10" class="node">
<title>pool2</title>
<polygon fill="none" stroke="black" stroke-dasharray="5,2" points="490.5,-268 359.5,-268 359.5,-232 490.5,-232 490.5,-268"/>
<text text-anchor="middle" x="425" y="-246.3" font-family="Times,serif" font-size="14.00">CurveV1 0xf6c5</text>
</g>
<!-- token0&#45;&#45;pool2 -->
<g id="edge5" class="edge">
<title>token0&#45;&#45;pool2</title>
<path fill="none" stroke="black" d="M310.59,-307C333.5,-295.79 365.72,-280.02 390.14,-268.07"/>
</g>
<!-- token1 -->
<g id="node2" class="node">
<title>token1</title>
<ellipse fill="none" stroke="black" cx="131" cy="-178" rx="56.59" ry="18"/>
<text text-anchor="middle" x="131" y="-174.3" font-family="Times,serif" font-size="14.00">1: USDbC</text>
</g>
<!-- pool1 -->
<g id="node9" class="node">
<title>pool1</title>
<polygon fill="none" stroke="black" stroke-dasharray="5,2" points="228.5,-124 15.5,-124 15.5,-88 228.5,-88 228.5,-124"/>
<text text-anchor="middle" x="122" y="-102.3" font-family="Times,serif" font-size="14.00">Algebra.SynthSwap 0x2c1e</text>
</g>
<!-- token1&#45;&#45;pool1 -->
<g id="edge3" class="edge">
<title>token1&#45;&#45;pool1</title>
<path fill="none" stroke="black" d="M128.78,-159.7C127.38,-148.85 125.59,-134.92 124.2,-124.1"/>
</g>
<!-- token2 -->
<g id="node3" class="node">
<title>token2</title>
<ellipse fill="none" stroke="black" cx="122" cy="-34" rx="39.79" ry="18"/>
<text text-anchor="middle" x="122" y="-30.3" font-family="Times,serif" font-size="14.00">2: DAI</text>
</g>
<!-- token3 -->
<g id="node4" class="node">
<title>token3</title>
<ellipse fill="none" stroke="black" cx="351" cy="-178" rx="56.59" ry="18"/>
<text text-anchor="middle" x="351" y="-174.3" font-family="Times,serif" font-size="14.00">3: USDbC</text>
</g>
<!-- token4 -->
<g id="node5" class="node">
<title>token4</title>
<ellipse fill="none" stroke="black" cx="490" cy="-178" rx="64.19" ry="18"/>
<text text-anchor="middle" x="490" y="-174.3" font-family="Times,serif" font-size="14.00">4: axlUSDC</text>
</g>
<!-- token3&#45;&#45;token4 -->
<!-- pool3 -->
<g id="node11" class="node">
<title>pool3</title>
<polygon fill="none" stroke="black" stroke-dasharray="5,2" points="464.5,-124 251.5,-124 251.5,-88 464.5,-88 464.5,-124"/>
<text text-anchor="middle" x="358" y="-102.3" font-family="Times,serif" font-size="14.00">Algebra.SynthSwap 0x2c1e</text>
</g>
<!-- token3&#45;&#45;pool3 -->
<g id="edge11" class="edge">
<title>token3&#45;&#45;pool3</title>
<path fill="none" stroke="black" d="M352.73,-159.7C353.82,-148.85 355.21,-134.92 356.29,-124.1"/>
</g>
<!-- token5 -->
<g id="node6" class="node">
<title>token5</title>
<ellipse fill="none" stroke="black" cx="631" cy="-178" rx="58.49" ry="18"/>
<text text-anchor="middle" x="631" y="-174.3" font-family="Times,serif" font-size="14.00">5: crvUSD</text>
</g>
<!-- token4&#45;&#45;token5 -->
<!-- token6 -->
<g id="node7" class="node">
<title>token6</title>
<ellipse fill="none" stroke="black" cx="358" cy="-34" rx="39.79" ry="18"/>
<text text-anchor="middle" x="358" y="-30.3" font-family="Times,serif" font-size="14.00">6: DAI</text>
</g>
<!-- pool0&#45;&#45;token1 -->
<g id="edge2" class="edge">
<title>pool0&#45;&#45;token1</title>
<path fill="none" stroke="black" d="M137.78,-231.7C136.38,-220.85 134.59,-206.92 133.2,-196.1"/>
</g>
<!-- pool1&#45;&#45;token2 -->
<g id="edge4" class="edge">
<title>pool1&#45;&#45;token2</title>
<path fill="none" stroke="black" d="M122,-87.7C122,-76.85 122,-62.92 122,-52.1"/>
</g>
<!-- pool2&#45;&#45;token3 -->
<g id="edge6" class="edge">
<title>pool2&#45;&#45;token3</title>
<path fill="none" stroke="black" d="M406.71,-231.7C394.98,-220.6 379.85,-206.29 368.32,-195.38"/>
</g>
<!-- pool2&#45;&#45;token4 -->
<g id="edge7" class="edge">
<title>pool2&#45;&#45;token4</title>
<path fill="none" stroke="black" d="M441.07,-231.7C451.29,-220.68 464.46,-206.5 474.57,-195.62"/>
</g>
<!-- pool2&#45;&#45;token5 -->
<g id="edge8" class="edge">
<title>pool2&#45;&#45;token5</title>
<path fill="none" stroke="black" d="M475.13,-231.97C511.57,-219.58 560.13,-203.08 593.31,-191.81"/>
</g>
<!-- pool3&#45;&#45;token6 -->
<g id="edge12" class="edge">
<title>pool3&#45;&#45;token6</title>
<path fill="none" stroke="black" d="M358,-87.7C358,-76.85 358,-62.92 358,-52.1"/>
</g>
</g>
</svg>
